<mxfile host="Electron" modified="2023-12-05T12:45:18.712Z" agent="Mozilla/5.0 (Macintosh; Intel Mac OS X 10_15_7) AppleWebKit/537.36 (KHTML, like Gecko) draw.io/22.0.3 Chrome/114.0.5735.289 Electron/25.8.4 Safari/537.36" etag="P9qm-wXrV6L2vuBOIoJj" version="22.0.3" type="device">
  <diagram name="Page-1" id="MA0LuJ_RIJC3xFe-2XAP">
    <mxGraphModel dx="954" dy="674" grid="0" gridSize="10" guides="1" tooltips="1" connect="1" arrows="1" fold="1" page="1" pageScale="1" pageWidth="1169" pageHeight="827" background="#ffffff" math="0" shadow="0">
      <root>
        <mxCell id="0" />
        <mxCell id="1" parent="0" />
        <mxCell id="BQA1cjj0MLRr8krq4X8K-30" value="AWS Cloud" style="points=[[0,0],[0.25,0],[0.5,0],[0.75,0],[1,0],[1,0.25],[1,0.5],[1,0.75],[1,1],[0.75,1],[0.5,1],[0.25,1],[0,1],[0,0.75],[0,0.5],[0,0.25]];outlineConnect=0;gradientColor=none;html=1;whiteSpace=wrap;fontSize=12;fontStyle=0;container=1;pointerEvents=0;collapsible=0;recursiveResize=0;shape=mxgraph.aws4.group;grIcon=mxgraph.aws4.group_aws_cloud_alt;strokeColor=#232F3E;fillColor=none;verticalAlign=top;align=left;spacingLeft=30;fontColor=#232F3E;dashed=0;" parent="1" vertex="1">
          <mxGeometry x="136.5" y="46" width="772.5" height="735" as="geometry" />
        </mxCell>
        <mxCell id="BQA1cjj0MLRr8krq4X8K-31" value="" style="fillColor=none;strokeColor=#000000;dashed=1;verticalAlign=top;fontStyle=0;fontColor=#5A6C86;whiteSpace=wrap;html=1;" parent="BQA1cjj0MLRr8krq4X8K-30" vertex="1">
          <mxGeometry x="30.5" y="36" width="716.5" height="350" as="geometry" />
        </mxCell>
        <mxCell id="RQda5iM8rityzSOryd8X-3" style="edgeStyle=orthogonalEdgeStyle;rounded=0;orthogonalLoop=1;jettySize=auto;html=1;entryX=0;entryY=0.5;entryDx=0;entryDy=0;exitX=0.5;exitY=1;exitDx=0;exitDy=0;exitPerimeter=0;strokeColor=#000000;" edge="1" parent="BQA1cjj0MLRr8krq4X8K-30" source="BQA1cjj0MLRr8krq4X8K-5" target="RQda5iM8rityzSOryd8X-1">
          <mxGeometry relative="1" as="geometry" />
        </mxCell>
        <mxCell id="BQA1cjj0MLRr8krq4X8K-5" value="Amazon EC2&lt;br&gt;Prompt Flows&lt;br&gt;(e.g. Flowise)" style="sketch=0;points=[[0,0,0],[0.25,0,0],[0.5,0,0],[0.75,0,0],[1,0,0],[0,1,0],[0.25,1,0],[0.5,1,0],[0.75,1,0],[1,1,0],[0,0.25,0],[0,0.5,0],[0,0.75,0],[1,0.25,0],[1,0.5,0],[1,0.75,0]];outlineConnect=0;fontColor=#232F3E;fillColor=#ED7100;strokeColor=#ffffff;dashed=0;verticalLabelPosition=top;verticalAlign=bottom;align=center;html=1;fontSize=12;fontStyle=1;aspect=fixed;shape=mxgraph.aws4.resourceIcon;resIcon=mxgraph.aws4.ec2;labelPosition=center;spacingBottom=2;" parent="BQA1cjj0MLRr8krq4X8K-30" vertex="1">
          <mxGeometry x="237.5" y="463" width="78" height="78" as="geometry" />
        </mxCell>
        <mxCell id="BQA1cjj0MLRr8krq4X8K-12" value="Amazon S3&lt;br&gt;Front-end objects" style="sketch=0;points=[[0,0,0],[0.25,0,0],[0.5,0,0],[0.75,0,0],[1,0,0],[0,1,0],[0.25,1,0],[0.5,1,0],[0.75,1,0],[1,1,0],[0,0.25,0],[0,0.5,0],[0,0.75,0],[1,0.25,0],[1,0.5,0],[1,0.75,0]];outlineConnect=0;fontColor=#232F3E;fillColor=#7AA116;strokeColor=#ffffff;dashed=0;verticalLabelPosition=bottom;verticalAlign=top;align=center;html=1;fontSize=12;fontStyle=1;aspect=fixed;shape=mxgraph.aws4.resourceIcon;resIcon=mxgraph.aws4.s3;" parent="BQA1cjj0MLRr8krq4X8K-30" vertex="1">
          <mxGeometry x="196.5" y="623" width="53" height="53" as="geometry" />
        </mxCell>
        <mxCell id="BQA1cjj0MLRr8krq4X8K-13" value="Amazon Cloudfront&lt;br&gt;Users&#39; UI for the chatbot app" style="sketch=0;points=[[0,0,0],[0.25,0,0],[0.5,0,0],[0.75,0,0],[1,0,0],[0,1,0],[0.25,1,0],[0.5,1,0],[0.75,1,0],[1,1,0],[0,0.25,0],[0,0.5,0],[0,0.75,0],[1,0.25,0],[1,0.5,0],[1,0.75,0]];outlineConnect=0;fontColor=#232F3E;fillColor=#8C4FFF;strokeColor=#ffffff;dashed=0;verticalLabelPosition=top;verticalAlign=bottom;align=center;html=1;fontSize=12;fontStyle=1;aspect=fixed;shape=mxgraph.aws4.resourceIcon;resIcon=mxgraph.aws4.cloudfront;labelPosition=center;spacingTop=0;spacingBottom=2;" parent="BQA1cjj0MLRr8krq4X8K-30" vertex="1">
          <mxGeometry x="78.5" y="463" width="78" height="78" as="geometry" />
        </mxCell>
        <mxCell id="BQA1cjj0MLRr8krq4X8K-22" style="edgeStyle=orthogonalEdgeStyle;rounded=0;orthogonalLoop=1;jettySize=auto;html=1;entryX=0;entryY=0.5;entryDx=0;entryDy=0;entryPerimeter=0;strokeColor=#000000;" parent="BQA1cjj0MLRr8krq4X8K-30" source="BQA1cjj0MLRr8krq4X8K-13" target="BQA1cjj0MLRr8krq4X8K-5" edge="1">
          <mxGeometry relative="1" as="geometry" />
        </mxCell>
        <mxCell id="BQA1cjj0MLRr8krq4X8K-23" style="edgeStyle=orthogonalEdgeStyle;rounded=0;orthogonalLoop=1;jettySize=auto;html=1;entryX=0;entryY=0.5;entryDx=0;entryDy=0;entryPerimeter=0;strokeColor=#000000;" parent="BQA1cjj0MLRr8krq4X8K-30" source="BQA1cjj0MLRr8krq4X8K-5" target="BQA1cjj0MLRr8krq4X8K-29" edge="1">
          <mxGeometry relative="1" as="geometry">
            <mxPoint x="396.5" y="502" as="targetPoint" />
          </mxGeometry>
        </mxCell>
        <mxCell id="BQA1cjj0MLRr8krq4X8K-24" style="edgeStyle=orthogonalEdgeStyle;rounded=0;orthogonalLoop=1;jettySize=auto;html=1;entryX=0.75;entryY=1;entryDx=0;entryDy=0;entryPerimeter=0;exitX=0.5;exitY=0;exitDx=0;exitDy=0;exitPerimeter=0;strokeColor=#000000;" parent="BQA1cjj0MLRr8krq4X8K-30" source="BQA1cjj0MLRr8krq4X8K-12" target="BQA1cjj0MLRr8krq4X8K-13" edge="1">
          <mxGeometry relative="1" as="geometry" />
        </mxCell>
        <mxCell id="BQA1cjj0MLRr8krq4X8K-25" value="Amazon Cognito&lt;br&gt;Authentication" style="sketch=0;points=[[0,0,0],[0.25,0,0],[0.5,0,0],[0.75,0,0],[1,0,0],[0,1,0],[0.25,1,0],[0.5,1,0],[0.75,1,0],[1,1,0],[0,0.25,0],[0,0.5,0],[0,0.75,0],[1,0.25,0],[1,0.5,0],[1,0.75,0]];outlineConnect=0;fontColor=#232F3E;fillColor=#DD344C;strokeColor=#ffffff;dashed=0;verticalLabelPosition=bottom;verticalAlign=top;align=center;html=1;fontSize=12;fontStyle=1;aspect=fixed;shape=mxgraph.aws4.resourceIcon;resIcon=mxgraph.aws4.cognito;" parent="BQA1cjj0MLRr8krq4X8K-30" vertex="1">
          <mxGeometry x="92" y="623" width="51" height="51" as="geometry" />
        </mxCell>
        <mxCell id="BQA1cjj0MLRr8krq4X8K-26" style="edgeStyle=orthogonalEdgeStyle;rounded=0;orthogonalLoop=1;jettySize=auto;html=1;entryX=0.5;entryY=1;entryDx=0;entryDy=0;entryPerimeter=0;strokeColor=#000000;" parent="BQA1cjj0MLRr8krq4X8K-30" source="BQA1cjj0MLRr8krq4X8K-25" target="BQA1cjj0MLRr8krq4X8K-13" edge="1">
          <mxGeometry relative="1" as="geometry" />
        </mxCell>
        <mxCell id="BQA1cjj0MLRr8krq4X8K-29" value="AWS Marketplace&lt;br&gt;Embeddings DB&lt;br&gt;(e.g. Pinecone)" style="sketch=0;points=[[0,0,0],[0.25,0,0],[0.5,0,0],[0.75,0,0],[1,0,0],[0,1,0],[0.25,1,0],[0.5,1,0],[0.75,1,0],[1,1,0],[0,0.25,0],[0,0.5,0],[0,0.75,0],[1,0.25,0],[1,0.5,0],[1,0.75,0]];gradientDirection=north;outlineConnect=0;fontColor=#232F3E;gradientColor=none;fillColor=#1E262E;strokeColor=#ffffff;dashed=0;verticalLabelPosition=bottom;verticalAlign=top;align=center;html=1;fontSize=12;fontStyle=1;aspect=fixed;shape=mxgraph.aws4.resourceIcon;resIcon=mxgraph.aws4.marketplace;" parent="BQA1cjj0MLRr8krq4X8K-30" vertex="1">
          <mxGeometry x="399.5" y="472.75" width="58.5" height="58.5" as="geometry" />
        </mxCell>
        <mxCell id="RQda5iM8rityzSOryd8X-1" value="Amazon Bedrock&#xa;Invoke model for answering" style="shape=image;verticalLabelPosition=bottom;labelBackgroundColor=none;verticalAlign=top;aspect=fixed;imageAspect=0;image=data:image/png,iVBORw0KGgoAAAANSUhEUgAAAUcAAAE/CAYAAADVOAHHAAABYWlDQ1BJQ0MgUHJvZmlsZQAAKJFjYGDiSSwoyGFhYGDIzSspCnJ3UoiIjFJgf87AzcDLwMkgycCfmFxc4BgQ4ANUwgCjUcG3awyMIPqyLsis55YaqnNE5B92TTqbtYvfbiWmehTAlZJanAyk/wCxSXJBUQkDA6MBkB1QXlIAYjcA2SJFQEcB2VNA7HQIewWInQRh7wGrCQlyBrIvANkCyRmJKUD2AyBbJwlJPB2JnZtTmgx1A8j1PKl5ocFAWgKIZRhcGFwZfIBQgSGUwYjBHIiNQGI49JiA9Tgz5DMUMFQyFDFkMqQzZDCUAHU7AkUKGHIYUoFsT4Y8hmQGPQYdINuIwQCIjUFhjR6GCLH8JQwMFt8YGJgnIsSSgGGwvQ3ozFsIMZV5DAz8LQwM2w4VJBYlwkOW8RtLcZqxEYTNY8/AwHr3///PGgwM7BMZGP5O/P//9+L///8uBpp/m4HhQCUAIMVjvPIp2HIAAABWZVhJZk1NACoAAAAIAAGHaQAEAAAAAQAAABoAAAAAAAOShgAHAAAAEgAAAESgAgAEAAAAAQAAAUegAwAEAAAAAQAAAT8AAAAAQVNDSUkAAABTY3JlZW5zaG90/5II3gAAAdZpVFh0WE1MOmNvbS5hZG9iZS54bXAAAAAAADx4OnhtcG1ldGEgeG1sbnM6eD0iYWRvYmU6bnM6bWV0YS8iIHg6eG1wdGs9IlhNUCBDb3JlIDYuMC4wIj4KICAgPHJkZjpSREYgeG1sbnM6cmRmPSJodHRwOi8vd3d3LnczLm9yZy8xOTk5LzAyLzIyLXJkZi1zeW50YXgtbnMjIj4KICAgICAgPHJkZjpEZXNjcmlwdGlvbiByZGY6YWJvdXQ9IiIKICAgICAgICAgICAgeG1sbnM6ZXhpZj0iaHR0cDovL25zLmFkb2JlLmNvbS9leGlmLzEuMC8iPgogICAgICAgICA8ZXhpZjpQaXhlbFlEaW1lbnNpb24+MzE5PC9leGlmOlBpeGVsWURpbWVuc2lvbj4KICAgICAgICAgPGV4aWY6UGl4ZWxYRGltZW5zaW9uPjMyNzwvZXhpZjpQaXhlbFhEaW1lbnNpb24+CiAgICAgICAgIDxleGlmOlVzZXJDb21tZW50PlNjcmVlbnNob3Q8L2V4aWY6VXNlckNvbW1lbnQ+CiAgICAgIDwvcmRmOkRlc2NyaXB0aW9uPgogICA8L3JkZjpSREY+CjwveDp4bXBtZXRhPgorCE+rAABAAElEQVR4Aey955LlOJolCA/XWmsV7qEjI2VVV1X3WPfO7I81mxfYJ12bH2u2az09PVtTnZU6Q4dHuNZay/A9B7y4AEGA5BWuCbfrVCAUwcNPo6Lx//yv5wLpvIL/5T/u5FOFdT7Ipy7r/PcqZDG5C8H5z/oyzgcH94xzp7nc94JKVKH57WfrfKV1rDLa+dR5u1x/PnWH2rraL4T/fqNTuSLsvKrfFdYYn+Vvze/IEipDhxVC5wsqUOWoclXLj3PlV4WehxCnnrGrcpw/c5xzjb0rH9th5/Xlc9XN++384bFgjiDZ+Xj22NH2Gsc5NR+De4Ly+L9e72IkOe6hByGvHuFUg/Uc1W2u/OqauQ33KVqHmdfet+eCfd3sm30tXK99Ne44OgfjctvXovXqPh/amY3jap3NOBvdVe+DfeXePftMumO+v1XMmgGjOWDB0wgDuxsYbfBVpWTAqEYiCnTqSgaMaiRSvv257BkwqnHT24sARpZelQGjHmR+cW1Q5FUb7HguA0aOQjhlFGN4PFxHYQoqA0bXGPHcVVKMqk0gOqMPKOAk9Pm7wkpnwKimRbC1wY5nfWyjndeXL6MY1Rjr90udidtmFGN0dC6KYlQ1RTjyDBjV0GQUox6JYM8HeBkw2iMVPc4oRv0xuK4yRvupSZmjOlk4MOoOh6mu4LxSFijFC+tJy47aL5xqo4vFdZXrz6dKUtuMlVYjobausc+AUY2O3vrGROcI9jJg1DhxU4CRTy4Pjhkw6intAta0oK4+CDbJr9kiPVFYo/3i6HxBe1Q5qlzVyovQSrtAkfX5QMDO78uXsdLqqYWfvTrr29pzIZrPX154XkXv9J+5e1pp31hIcMyAUQ/PbQPG9MDkftF8gJcBo54zvr0wQLnH13dvBozRkVGEgn2lFHMduyzzOPfu6AeXrHzReTNWWg+louzsB6gnuR433mW/ODpfUKYqR5WraiLFaNsw8prLjjEDxmDUjo2hv/l2jEZn1KQwtuF5ZVxI3M0oRnuIQDnqwc6AMTw85WGl9fiq0sMTODopM2B0s/I3z8A7+uzVHPBt7Y9kOF98eeF5Fb4z/ig6B+Pzh69G69XtvEkyxnCvoB9RJzJgVCMRbDNgDI8HjzJWOjom9hkNFBog7Dy+4wwYoyOjCAX7ykWx0mY9UuaYAaM5JOk16orltR9gMMmjL4d+cVhf9GutylHlqlZlrHR0LMvpEkh3QKbyuQRG2xvU4P+fAWN0bNT7YF+5DGBknTkPGVW9fqjaV1qfy2SMapwIoMG+/QAzYNRjpPZspU74I6FypWOl3aDIMvQ8LUTGmAGjHv9C9qLPUI//RbHSxYIi++VStCb1N2/KY06uDBjDw2YPbAaM4fHhUXrlT/ReGzxVDlvGmAGjGplgGwWo8HX/UZRr8eeNXonWe/uAkb3OgaPuXBpgVODAAjIDb44CqR7+1+PII6bwRIpOSkV5mmPK+246K+0CvPBYsJduapHnM2CMziWOi0qusVTX4rfRORifP3w1Wq9u522hGFWP89pqDYq8pDtss9LmS5wBYzCMGTCq6aTGQ88fdSX6UmXAqMYmuo2On5nHNZbmdf9+8cDorlO387YBI0UzknLMgDE6nW4LK91XWyda6+tFTWWVdN08+fxZHBwfic2jI7FxZn7e9BiUopXOKEY9jr69m6Z8uYvAyGdXlQFjdArfFmBsASAOtbWLkY4u0VxXL6oqK8XRyYmY31wXs5sb4mx/V2yfnYUGIAPG0HA4DzRYaMrJmdFxslhg1HU6Ck08lVGMiUOUy2Aq85wKmYyV1kOpxAhKNqiuJLPSwYtjvwyqHFWuKq8cMsZKgF8LfnUAxcbqGtHb0iIe9vSLsa5e0dbQJKor74FqPBFdzS2ipaFRdG9vifWDPbEFKvIzKEqadJGy5O8Mv33VOGvrUr5kFKM1SI5Dey6Es/iBNgPG8EjFHdmETVxe+5oJjLwWUchkwKiHTAGYAjR15ToCI8FpANThcFuHGAalONbVIwbaO0V/S5vobGoRDTW1YKvviePPJ2J7f0is7e2KjX0AI36bAMjN/X2xcbArVne2xTJ+iwf7Yv/0RHU5v72rwBgGKD+Q5QfK2smA0RoQHNrvFXNctrmOapUNjDyfV8jw4DYBo+8LcvGeL5dPMRIYW6uqxAiA8cXgqPhmZEz8YfShGO3sEnVVNVLWSKry/PxccKUftvDz+ZnYPz4WO4eHAModMbuxJqbXV8Sn1SXxfmVJVOG4GudXkEel2waMLmpX9dXcZsDI0dAfhNuofDGfd9Db3BoyPLgJwKgouXBHovEY7wIwEuQ7wDo31tWJDrDIAwDGJ70D4knfoPhiYFg86ukTjVDG+FOlqAVwtoPd7sCvBUqbNpTTASqzp7VNLGxsivX9HVCVoCDBdh+BiiQluXt0KHYAmFvYj9KVtulSULsPhK7SXMfXJnu8MmDkiNw9YGSvJVt9lcDoouRc4JYBIx+XTk2QK/ZAdvi0f1B8OXhfPO7tF4NtnaIXwEbAqwdwpk0NNTWir7lNtNQ1iFGw5AfHYwBAgODhAdhusNq7O2JxZ0ssbG2IGVKY+J2Aqtw6DWu7w0AS1O4DoQwYNeDYz8k1jnYe/3GmfPGPTfiKi5U2Wf2qDBj1gCkANgeIV6+DjJEfEX7JasEed0C22NPcKkY6u8W3I+Pinx48FQ97+0RnQzNkNvlYIrpjCXu8h1SmTWmSDd8G2728uyVmwHJPrq2ItvoG5KsVrQDKNcgrd0hVfj6TEUxOybbjd3L+WRxjmwGjb+BvFjDGsdHsYSmLYRUxXfOD6iKi8hcTdpKAkbfnFDLcrcj7C/PIpAlc1B3z2I2zzUCYh8nOx3OuMt35mNtOd4+VrsUsGoeC5VF3nxiCLLGvpV0M4fh+Z4/8FQuM9siaxxWUZYLdhr0XWPAq0dHYLM2CXoCSXIdCRypyqO3Gb/vgAJrvXbGysyNWAZrLDmUOy84oxgwY1Ry7zsDINubAMQNGDsZ1pBjZLqY+sMov+ofEPz95IZ73D0MT3QFKsUnUgn3mR4lAdhGJlGAdNN39VdWit6lVfO4bEJ/PYEhO+SPY7g0A4zzZ7fVVMQXq8sPKoqjE/jnAcwXG5mbKgNH/jK4jK31XKUY1ZwGOGTByMK4CGF3Ru9kWaoVbAEatYF9bwMZ2QlEyBFngt6Pj4qvhUfGwu1/KFZk3bToDyB3DAJyppro6EpvRVw5BtxIXqe3GvyAbZg1Z8C5Qkj0AQCp02tHGThx3NDWLQVC0q7vbUpmzC7b8ELJJst77J8diTypzTuE7Tr25K2kAMVmfpAjecdF1fOy9XXsYoHQ77Hy+49tkrnPXgZHPmBxTPmWsdDAUpcgYzfFUA+sy8I4DRt7X29gkHoCFHu/uFY9BrY1jXylcmqE4KTQRGKl9Jkj2QpFTCU11ORIp125ouCmHHGztEF+Aqt0+PhC7YLM3D/cl+027ySXILWfhmUOFTgWoymUAZTTpyZgBY3R0omcuRvmSAWMw0nmZ410ERpta5JC4gNFFUdhUAssqBRjrQKFVgzKru1cpugGMj+HZ8sXQCMxyRqTt4ji8XGpB8aVNUjECL5dDUmtQmqyBklva2RTwg8HxoRhp75Is+WeAJRNlwFTlkFIshEUnS08Dc/66GmVR8h8tKmlDuQqtNgGRLDcpzCbka95aF60AyC1cP4D7IoqAIgcvOu5hezgXFWWZUYx6TMN7GTCGx8N/ZH5oVS7Xu6+uqa0ExwwYg+G4SmDsAyD2QwM9Cg30KLxbRqlowZZKl2H8CgVGghJ9qCdh1D0FcFqFKQ6VJhXwkukG5djX2ipNd+qpea4F697UJLXd1EaT7S41cfK1QKteXQV7yspqqeXuh5kRQX8Fbdukdw4oy23YUVIjvkn5JQBzCTLM2ZysMgNG31PIgNE3MvZ5GxjTgCLLoAa+KgPGYDivChhZew8AiQD4AlTin8efiBegGLuh/CCrWg9Kq7JAtd42gGZybVn8Pjct/vbxvfhlblK6C56AKqtGWU2QFxIEOwHIPbBvHIQB+Vh3jyB1OtzWJW0lfZYHwWil/18DYCQYdzQ1ioco/xTULJU5pF5pYB6w22tiZm1NfFijZ86KqKDGG9eZ1GS25YaZjDH9M1A5wxyQOhuIMq4jK+2yXlGtTrMtBRhZfp6tdpnWMIPdQN9LY+fjva4y3fmY204XY66jXjaztssERipbmsg+w4ibLCYBiprn8c5e8WxwGK5/98UjGHQTVNKmE7CmxwCcg9Nj6SM9BWB8tzQvXs3Pit/np8XPcAcMgQuottbtTdEJgOyFPHB1bxs2i3AVxP5s25o0E+pobITrYbW0m2Rb6mEoXo/jmuqqPGClaR/ni1TmUK2Tm22tvBFU8vHZiejZaRFdYLepeW9rRHtwfhlU7gaAU9pQQixAm0l651ChswvlznZOmeNa8yXUz5gGhoFCyzpjbgldssUqoYsYIV8K1+vL5Tt/dyhGF074RsV1vlRgZJlyurpAjBftBmbAyFEJEkG2GBkjQ/0TlEZAKT4ECI539YkRBokA9dbX2i6NuwsBRrZm9+hAzG2si/fL8/gtimkYa0/DnGYeMsYlyBpdgLHFUGWgzgisBKLp9TVQmjOI1tOQcylslNRlu6QuW0HZdokBtK+7uRnUZ/6bmhuN4jbsZxe02/TmobfPE2jht9AXeuZsUqEDEF+Fh84K+jAHc6FPNBfCvkAcygwY04+5G5CTKcZSjLvZugIZnnyHbNzJX0i5Uw5gZFXQVru/cnYDM2DUT6ZYYGwD5dUPMBgCpfgMWt3vEBziOahFstQ0gylEEcLWkEVdh0H27OaapBR/nJ4AwM2K6c1VsQz53Q6AzwWMKoDEHqgw/gTAiIl5a/FrB0XbDuPv7sZANkmXQhp806/6ENRpL1jxRuSh0iVQ6OgPhYsyl4V7/tVDa84fzYJUokadbPcGgHEeFO4klDnvYD/J8flccS4aEEFo5wTmQPDEUcnVT3XN3IaBwj33zfz2/s2nGHWf41jpuw6MfO5OEiADRg5NMInsl6EYYGyHgmMQ7OIQfJ8fwDRnHK5+4139UuEyiGC07QYwsOakdAzQW4CyhdThFKjEScjqqA3mPoPYUqmxnwCMdh0KXI4ATIsAJsnGMmrPEUKZgYKbR7lk1em2SOqxpbYRGuoa/CC/BDtMf+7W2nqptbbLLvSYH2Iqc+rAwlPm2gIZKe09myGDJYi+BVC+g+jg+CQAR9X2pHpuHjC652BSP9X1cH95NgNGNTbm1vchiIBjBox6EpUDGFnaAADl66HRIJwYDLmfInJOO/ygqzB771UEocQKoRppr/jz7Cfxw9SEeLc4Lz4CKEgpHoAKPAc1dQSK0gUYimI0Jwb37bx8qegfvQGQ3IWcbwGyyCqYGNUD5JsAUASq9noEywUVTDfG+9CwM37kMMB/ANRxVbH8lNWwSrDvpKgJuoxJyeAY/aiPFCvZ7A3Ybtptt4rIH4aBQoNEPkPCjj0Xwtn95YXrDd8VfxSUGV+vv4RovbqNGcWox80HjMwRAscMGDkk7kmZlmKkmKIFMrRGUFX8kaJ6iPBhXw/fF89pszgwKrXBrCltOgAFt4soOUcAqi3I4j7CPOeHqQ8AyCkxsbIsPkKBYSYXYBQCjCyLSpBjxHyEr6AsWpYJeaDYhS4FQMngFzRUX2oNlDnrYIGXwAIPtG1I6q4WIFkJsyHabtZgnwqoKvhn+8QzZvvVvspbCVDuq24VzaBS2Q+y2CzX1U91r7kNA4UGCTNP3H48QPnLC9cbraEW49PA8cGvGv06zwuxgzIZmb0Cz4FWBsenZ2IP3MChIUqIlhicidar25gBox61OGBkrjw4ZsDI4Qgmkf0ypAVGltAAABiFcmW0q1suUTAOuz5SVL1gn6l8YMxEX6LhNpNNRVKm+H5pQXwi+wzWmfaL/C1B3rgKZYqZXIBRKDCa5XHfLnOHgAk55RFe1E2A9vzOhniD9inzoPZ6sNgN9Qha0SD7PNjSIQbw62xGKLUSPHNo2tQPpVAbqNZK2E+mSWGg0CCR5l7msedC+D5/eeF6w3epIwJjP+xLe0AdUynFjwGjtVcAJEkdU/b6+Yya+mNYFEC0AauCw5woQZVhb6P16jZmwKhHKwkYmVOCYwaMHIrSgZEugUNYloDufl8iIvefYLP4BRQulCkqKog1+ZINiszHGIpvFufEj9Mfxa+zkxKE5qCxpWzQTjaI8Xq5gVHVuQZgXKMihz+sRUMtfB1e7DZQy20IwNuNPtOonTaUj6CR34WXzshZl1y2gcqcYlMbFEWUdaYZzzBQaJBIW/dFAWMzqOiWWrhd4uMxCiuAYQC+XACtAitEAhg5D/ihPMMYcy0fehrNbq9LarkekY+2j8BBOFaODPeXvdR9zoBRP/U0wMjciOeoB5AnfJPOzse8Lk23Ox9zmymoMxxLMmo6pO5w1cNrdl3kSkjl2SmY5OHz4YkUXLNfhjQUYzMoxXb4OtPQmVTNfRg6ExwfgJVmjMUuyMpciZPfBYbMSy303MaqjHDDKDfvFubFh9VFadhts9Cq7MsERl90HbJ8VOZsQgzAABP0fFkHZcswZhPry1jwq030YDworySlRBmmjEAOSpMsc011pZRtup6h6iflkAQQ0FfqlHPrer7OjJ6T9lwIZ/PXHa43uKsabe0AoPdDkdULCwCaR3HOMKAIjf1p61pfTWN/Uo5B3+jmSUuAs8/nsBCA++denzSYX4P4YgsfJMbSnMdHaRYilTXYgEbr1W3MgFE/vbTAyDvybDUPSgFGG6hYHhMBK5yCE7cBGDmRO/D1JxB+N/oAEXPuS/c/ep1Q1kh/Y1/yASPzn0CxQkrxv/32g6QUtwAw23Cp27VCgKmyrwMwqrZwy5d6E9QNFUQrUBS9h8KIBuTUNrcCFMh+U+vMDwrtJx900M6zXRqCN0GWGX3RdemkpPhhIXj4Uvj+yAT03ZY/X05gZKHN+AgMYCXI7yBv/hq/UZhu8SPRhr7SVZNATy8oFab4nKw1PjRM/C9BEseUO27BemAVH5tP+Hh+P/NRHM+ciE1L5pxRjHLoIv8KAUbenAdHFzD6AS884fz57PbdfGBswpvXBLlZM8xL6I/MFf4eY+2WP489El8OjYn+traCvFvsEeLxZ7wIjJH408yk+BXmOiq5ntF1A0a2lfF2jiGXpGzyuAJh0nBC+UnXAQS6oX3uxtjRXnIFclOuhDh+0COe4iMzjg9K4FGjem1vCY72OX18XYCR1GIzTJG68CGgtcID+Mr/AfPjGyjlyErzA1Fc6hDbrQeS2uRH4uTzqWiBHJrG8tsnR2Lv5CwvcskoRj3ChQIjPzASHF0vnR/w7i4wVsEAuQcmOM8QdJaLWQ12YulThOmidwtjGJISKtS7RT8+vceX/xgyJbKmKrme0XUERpNqUZ4KChjZlyOwiStgvamB3QF1SS+el5CpjkGBdXb2NeRvXVJ7q/pdyPa6ACPb3AEqeQig+BxeUH8YgksovH8GIVagq2QzZLKlJMbSpJyyGiIdelq9X10Qvy7MitdwE51HaLiVA6z/E0NZpwUKn3ijWEstH6akHQs1n1R+X/vUdbVN21+VX81hmNqFwY4ZfJ2wZX/+fLqaYO/mU4wN4HnaQPGMgQL40/gj8ZcHT2SMRRUggv3kl7xsCWUp1tH1jG4iMKrJfIJhWmEYNYgJjnbOBYNIPIEZ0GMYxp/kTIcKHcdrBYxglYdbWuEO2Sf+Ai+o//3BMxkijn2iFrrURFEVrR4ounkG0H2Keppr+AkK3jM6AHCFSFdKCxTqWdll3BVgZL/zbLUaBD/gBQOfnE/lUNvgvpsoY2Qk4E4qWxjOi650YJkfgmL8IyY8KUdSjeaCVnFyRDUaabefQWHxd9uAkaDOuI0yYUNgpJ/0CpQMDJxBI/ZC03UCxhZScwDGr/qGxHdgo78GG02NvUo+0FHX02ztMmgqRnado0rZ5QHYa7pX7lljmQFj0uiGMS4Ejhkw6sFj9O4uUIoPEMqLMsWnA2Slh+TiVl0AStrxmcCo7yzPHm3dXOXfZIrRbrsCRo5YMxQ21TAuLzRdJ2DsAMVI3/nHMF0ixfjPY4/xAW3DB06pWgrtXfr8z3oHYVca2NAuwx5yG5TjKqwFNnKUeAaMSWMZBsYTHObB8S4Ao0sLya+w0qhzAtXCBo3eHS2QCzFa9jOA4vPBIBr3U8gaadicNtGI9xRhuWjSwhX6yHW3IxQYXQddFKFZrosKtcGF+S/KjtFnrmO2MdjXk0rJhEwZo6Jy7LabwCj7AYqHJjqFpOsEjPR26QWr+xCulASq53AR5fxRSbHTajzM8zTX+QxvpFMYfPOP2mmKsPinXEw5H+w5Y5ZJl80RUKhfoN5JaLK5bk8VghwfQ9mloqqrOn1bu20q311ipdlnAiOTBMfrCIyuNvHdsR+gBrzwi2W/ODpf0HH+Z1nm+0i3P4YNC2wV+2VE7uH2btGPKDpUujAYQiFpHzK1eYQSe7UwLQPPcoL/I2SV//zoiwSNbLQWG1yY47YAo9lbusylSWFaLOVNRsGu+aAv+8sLzyt9RwuoxhGwt38cHBPfDt6H6U6bvhizR2BkRHT+GKZtDywxrRXoKdMAqwhqtVsx77hEbiWMxJMSzYT+M9YxZ0Djiok3Yv5wD8q9nBgj5mb7vVJZ7yowsv8RI/D8oOBFNpMLrHjdBJcgf3BfKTJGV10XDYw0u+gHADLQ7J8fPBZ/Gnsi14NuAgXJRaQKDaZAQ+6FrTUA44z4t3evxL+9fyXZxjbES/xHeM7QnzZtuivAiNmUbkhCUzN0kOr+cgIjTXZovN1OTgPgSGDkErq05zSTD3zokz4Ls61FaO0XYK/IpSyolKLskMBILyMG3Bg4b8PSuC0h4sBVZhe4kr+MPEREoxoZuu53aLL3z8JL5Jrt4r6rHJ6/y8DI/js/RVeplb4sYKwHCdACmzp+Yemp0APlynBHl3jY1yftFR8DJAsJJUYWmpTiPlhohv+fBzBOIPDsOwSgpdvfK9gr9qCuA5ivkL1Om64zMCo2mn0xaWr1stltt1lpcwzOrY+xec2/f7XAyHbVAEFa4QrYCS+fPukl1SZdJ/1tppnWCTxc9sUCNPSMvTkF33mu0LgOrxdGOz8lOJJyxPxkRHaC4n2w6OPgYvqg7CFoxgUc5od3AIA6xDmNKEbHWNBsFwoaV9AK9azs9t51YOR4RMDxLgAjqdBWANUAhOUMH/akf0TcR5zFkQ4EiABbTTOJJihjCkmMmMPw/u8RQuzl/LT4CJuzWQDi/PaGmESQCKY6aDKrUgZMkDc4AOO6sNLlBEYbRGXfE/9dPTCyibWV92DRUA9gbIbXD5aoBcVmJ8oGTRCiS+UPCDn32+KsjDA0jfnBZWzp/SODTSA/vWYogyXH0gYq9GFHt/gCCkHKFL8eGIa9pA4ObJcv24W5Rtb+MUzPaGI2iXl4aJn3mG0y25wBYzAaIXC8zcAYCLPp3cKlTxtlyP8x2Id9NTKOcGJjMELulaHECmGflYfC5h6pAIAgQolxqYFfZj7JsGLzoAY2AJoqMSZiVQlLDGTAqEay8G05WWmz9lo8U65/M4iPKqMuuVxGTRCiRwtXg/wV4pbvwVG8x5z5AKWJnUKyza1NCZ5UslBZQ8qxBStGKtGMWb4qpwaKxV74bY8DVLcRam5pfwckq56Lrnt4bwaMagQNyvE2AyO7y2Whhlvpy9uJlfb6EBxiUG5HoF2kEoZrKhcCjCyTC1J9WGEosWXxCSy0jMQNTSGDw3JpVBMYmT+tsoF57ZQBoz0i6Y8vChjZAkYrJ4XGlRvJyhKUXImgSIpxDhHVf56fEr8vzWK1xWUxjVBkdgoBo7xYgQATu5jB85hDWCcc3jcUzVA7zfBtCiTNcrjKZBfscykHncOHm1YYKmXAGIyE0kqrcbG3csRuOzByMnTDLpEuXF+PjiFABH6gGMlGU3ZDVsZlOmMPlnnMALQfESnnrx/eiN/mpsRbxDOcBXu0jQgpnMAMUqpScWyjuhvA7mCvedUuN/pSBWXY+VTJhZrrXD0rrVqefnuRwMhWMIgvV0xk8AzKHGs8tpoMGsFlLX6enxE/zU2Lt6vL4j38yu0UfYaB+GAXcsifQEFyVlE8Q2N5hjR7DjbeBY5VYPc7wHpLihZBPmpzCsAMGIMRTwJG5oossOVSiDAj5XThFJy47lrpbmgR+yHEHoXs5cvhUQmMzyFjHMexMrL2gY/ZXwrRGYVbRsgBBbBEn+BZLHsKFpqBaD9CqL4Lty2ZMmDMe76YY6j2fWAdxKBRuUrfXjQwsoUMktEB6m0Aio82cB++oBlc5ZF+5G+hoOOyFksWxViDD/gZfPfDqUJQG47PrVBBJGah3W5bW5GyTbLNlCm6Epff4PISMvoPtiQCMmAMRioNMDKnprVxcNuAkZNhCCwz/aAZTuwRWGmy0YyxqIAxGK7k/wTG30EhUuHygcufrq+IRWgbGVGG2ukDCNPt5AcBO6f72EMwZhSje7hCZy8DGFkhP6yMUE4TLYZk8yWa5ywj1NgHzJtZgOS+FazWBYwsywRGHh+cItYnFH8M+PsY4qETx7xjPpoXsT2MndkIhZFPZHS7ZYwRii5v4M0xSkp5cLyNwEhql2HFvh4ZE//08Dki53RgIqeLiEJWm1Z3ZLdJLb5F5BhSib/NTomXULq8g2yRa3ow2Z4LPOcDxrRyRx+bb5cbZcNYu7/+681Kp7RzDLro/X9ZwMgGVIJCY6BaBuv1UWbMR7vXDXhJyQC1UOCZXivRZ6hfakUxsgwm+kvPwgyosXpTlnd6Fv0oM59qC1dupAadRuV2yoDRHpHwsQTH2wqM7CqXDh2EbHG0qwtugQ4zC4+8kTaLSxCec92Wj4jGTZvFSbAzpBi5lnIxwOgDvPAj8R/dbmD097uQK5cJjGxXBUCHMj9GNo9L5wBHer+s0WNFSg6D3IUAoyr/APevQQO9B0uIMy6CFpNoDF4DGaX9Ac+AMWbQcpdiPGTsm2+GjJFfTFM+Wgu3rta6Ricw2j1Ux1S2EBh/hS3av759KU1zGNGak3EPy4EykCuTPeF4zgYwnmNy5Q2upPtvlxt9qYJy7Hyq9HJSjK464gy8XflVu8JbNxUUzuM/umxglPQZXotKKD98bKtqLXt2Ck5jD+Y4KkWfoZ9iVPdwyxgAB2DLWR4tKOMS550d+CIDxrgR09fybLU+dXOVLzYwsk9kJ2ohn/ElRc0dIVwW7RVXEdGES4zSgPsV2Gd6t/wKylFRiqocF9j5QMCVV5WTZmuXG32pglLsfDxrgyLPcTGsaNLn4rTSrjrKAYxsknoW0bYln7kKYFStKiSOZ2UOzKLPUI+/zUqrerhV0XUYwYguhlynMCmpuKDMlwFj0mgF1znOEXA0qa4gW/DQrrtW2gWMDDvGlGbyLmGxor99fCe9WwiMK9vb0uNlESv9lRcY9UsQjG/8fxuMoi9VcL+dj2dvCjCG+xSVjcWPEKn1uBz+i+F648qwrwVlsl4CD+V+x6DiXCY16k72qhbsbVNNtdiE5UM46TamAUbe2w0lC2WJZOvjEu0rz8DpsJ0ZMMaNlL4WfIByyySo07cSGGEeQa+CpLQBv1Z6tjBIxDQ8GJYQfNUFOC4q0JWP9dl5C/UftvP7XmZX/TcRGM/TaquMh3mVwMhmcG4dgcWljLoGniu+dA+sdyPk372wOdyC2IaimWB53cKAsRkUYzu00AMw42H4PNozxqX94xNxBL/qNASCqxyfPsKV13XO5EJ4XSmKXHnNc4pCNs/59/UYqjxpzXVUfrVVwMjj/MjeRmDkmi9p0wHC9nON6E+gGi8CGF0AlrZtzHfbgTGQ36V/XhyTqwBG1mnWy2jtVLRswzdaUmmeDzHZYEbYeQBTslGsRFgjQU2/1D7QqAecmEDB+4bhifOoqwf2u+2C7ouuRH9rasi3jw/FPpZ2TUMg2OXcZWDkWEhwvOvAyIGgHdoOqMVVLP7kAjKbCuQ9rnw8b+f15WNeV7IJqLsAjK5xiDtnj1E4rwad8Hn/R8bOFz2mkXb0LAFoB5GYVsF57GLLoLWuVA1PmiEGo0Ug3AeIsNMM8x+V4lhp+91sgoJxDNGjXqCcUUTdqTLcAlV53DKyzzbm8jq8cHYOjyRQmteT9u86MHJ8uEyKlYIT11nGqL6ydtuVjLEQilF1npPpCCyIC8hssOM9rnw8b+f15WPeNOkuAWMxbHV0DCMTOp/FN5b5DN4dNzAyu/SZhrcLoy9xud46KP+q8/yYLpAUHn2wn/cMgAU/RsiyA3F4tizmsc9E8xw7kWI0zX46AYz3AYiPQTXSFbYX5dV6ojwRtGWsSLRrDV419PBKmzJgDEbKUsjcRmD0vyz2ZKlwSKxtsOM9PsCz8/ry2fX6jp1KZU/9N1HGSFbaTBUFiEHM+/R+uDx9vvwUoyqbJjVLWA71A6LrMGI3/azrrbeKeasYQgzeWrWVNRIGD3EfTYCq4Uo4BYrTTiYrzWsDkDM+hasgF9L6qn9YrmzYUQ93RcecZX4qiZbRrol1ADA8ctjONCkDRj1KxmMsPzAqyk5ReqpazZ6EJ3P4yx79WqtyVLmqPB/FeOpDF3WjsaXWzw7AYYMds/sAz87ry5e6SeGhybfUVe5tAEZ2sDTK0TNgKDc8r/JDmWInOgftmw5gtzgH0y8CIxfTenzaj3BiUS8szg8ue9DQViNOwXofwF6WiRTeHgKYrEJpwkQZo5rfimpsBbA+BCtOYOTvKZaw7YNCJi4dIgAKo/Ew8g+dFhjuLCllwBgeoRw4VsCvOnyBR67BsgFE3WXnVQ9YAZrKdx2BUbXN3Npgx2suYOJ5O68vXyl2fL76bwswsn/FU46OycsCkS4SGFn+PkBtGpQZjcDvI3YitdYiWASQl52pBxrrpz198FyplIFsxwF8awe7UqtM4DzNLclL059GsOmMMj7a2SUedfZKeWMH7k9Kh3BYICh+QPSfaWx3E8DRfn+Tyrev32SttN0XdQxwzIBRDYba2mDH8z7As/P68qWJ/KPqd21d5d4mYHT1Od25qwNGtm+Hijz4Op8hJNkzRGbawP5Ye3zL6dLHqFDdCIDCZVxXEPtzCfa0K2CDt6AUZAQfBkbuQER6xmPkGjIMcNuEZRNo20ivr6S0wdiR2+uIAbAiFqCYiUsZMLpHB+6D0Quuwcooxug4ZcAYHRP7TJhyc0w2+4aCjv3lhestpNBkVtpV2jwoxlm4nL5fW5DL+jKcGBU0rsR5I1lssNm9WFphBEoWarspG9xGcAq1wBaXQrgPzbS5JIKrPPPcDoBwEVF7Xq/MY22a9QwYzcHBfiDL9c8bM7shcwxO32VgrFCyAGOEXBQbL98UYGScQMquTLbHXB2HYg9XH+kSiMBuAubDxmgEu678kUxyjMyz6SakeUf8vr+8ywZG1c4ZUGr/OvFWriD4j/cfwdxmSF2K3XJphS7MvXpEFT88aYVM8hzz6x6OGRfAfFqxxciLk5sr4l8/vkVA3SmER1uNvcH1rsfeYF005xQv2SI0K3v+0FY25S84d6LPuRwG3s6qrJMhcHQN1k2nGNPK+RzWF07Q4PhdFjDaHjKsu1BWulhgbMBUv77A6HpaHJ2LlzEGtUT/E5DnsU7LKYKVHMIovBMU4VALlzHwe82YpdRXVUPLHWWX0wIOyyJL/mZ5QfyPT+/Ej1i8az1nJmTWo/Zd77q6lmZ724GRY5AHR9dg3XRgLEXO56OOLgsYDeel/FwtFBh5o5rEo6BABiHIb0RkdCZ6dkADIvf5j8+aNOL28QFMQHbFMjyG7OQbEztfmHLTddj57OPStNVXC4zsyzpd9U53AHJr4j9mPsqAs4+xtswgQLIlgQIsBATtcTuC5ptU6ysAIxftmuA6RjFyRte7bpcZd6zmlMqTtu03hWJU/ZLg6Bqs6wiMLuNul7lOKaDIgfGBQMnAaICRegBpt6UAI+voR9DfP2DtnEF4aTCWyxGE/maiMTED/NKv/Hv4mNvg6BsTswzuFwuMvLd4bbVdL0tLm4qTMarSw/1FMFqY5swjstP/mprAR2ZH/HlkTPxv409lkGV7/qgySt2uI0bk/5z6IP598p14B7OgNShjfMn1rvvyus7fFWAk6+6M55gBY3Ra2BPbBxY+YPblj9YUPVMqMFJq1YaYlk/gnfG8bwggVAHWTy/TSVc8yr1oOFwL1u4dAvuaKW3bw0CRnmKUdRWY3WxfuF7zStJ+eYGRUjemJRh174Ca24RfMyP1dObWmO5qbJKKmFponO35lNRSdZ0fsDNE2jmCdpzrXO9CEfQKKxn+NDcpfpqfFjOIO8rFuFzpJgJjsfJF9r8Q5Ys5XqrOPFutLpYHGKMzPTyBo5NSkea2ToQG3pdFMZpsphoPbu2J7AOL1MAYHR6zutB+OYCRBXI9kfsIevCif0iy0Lsm2wWwbIJmlS6Um9Ca0mREJV9f1XW11c+3gM7lbta2r6q09Ftdb/p7gpzROVhICdF6db9pOHNIcxyY9bwEq8twYZNgdR+BxR6HveJwS2dEFslAEUzqPZAHjn+fAYizWIVwdmsdvw0xh99HeMG8RszRRVCMGTAGg1YqMLKUEDjeRmCMD1Bgzj49uc2zVwmMLrAuNlAtw/j3wLWNtnVMXCkPPilyn89dvZTdWJiexsdMGTDKYYj8SwJGdcMODK/fba2JVRh4T0JcsQJ2W0XIqansldS6yqvGXx27tvSmWYCZzluslf5yaR4yxjmAIpYEBrUYRAanHDl6ZykUo81Gs/Q0bWW+UmSMinpjOYWmcgAj68yD420ExrQvt2/wyw2Mfh1rtAXnDj/jYoGRk/keluasM7ShQd+ibxINlLkyY9qx00ARLSvaq/AZm2IMoDqcx3dUvPj2YilGs70MJnEADxq6BnKN6WqM6zEAc2ELANe6gJUxO2Dk3SWXDraXMjDL4b3TsFnkkq6kQPn7BOPuj+tr4i2oyCNcl8nxCDJgNEfSv+8CYwmOGTBGB63cwKhBJFpX0hk3KPIu/TaYX3jTMo7ASKBjsFPKqJLSKeRZyJoq6T7pdqS6EZlsYOR9aUtJmy/alssDRrNuUjIbR8fiLb1VQD02QKNcBxvGh3A3/K9PvxL/R+MLaLj9S3mcQr74G0xz/q/XP0PhsiTjR5JSZNDcPDCaFeb2M2B0DIrjlAsYmQ0hy9xTzR5YJQu0SepgkkfL0C8Oq4lOSlWOKpe5mMohY7Spnmjrgrp8/0sBRrtu1hEeC1+t7vPlAEZVMoX5SSlFFlmE7lOho+sGxqR2lX49OgcLKVP3V92l+x3nnKdYS+lmiLXPBX+5tAS3wS+wlrpcXjXPw6mrekvKcR6mOt9D6fIOboZpkv3+prlH5TE/tOqcel/VsW+r+uu7Hj6vx5DnfSAVvsd9VC5W2izd+UjsgVUAZg/QTQBGmq0Ukq4TMPoN2HWfzInsohgL6XvavBoodDvS3uuiGPW9hQge9F3Je8UDo+6rWYvudxpgNO809/cROecEFgJp0gmo/ssIO2bOJ9Uu+71X5+3tbQJGEnSR2XibgNEGOvthJh27qEDe49JKu/ImvVhx9SOAmueyfjHNiXzzgVH3y9PxIk9fT2BkZ2ph5pO0BozqNDm8Gs+SCCoPt/b7a15L2jfnk8p7V4GR/Q+9gfbA3mSKsWBgtN5NF9hxwEoBRpc7IMtMn3QjzYmcBIz0ky5H0mBfeIHxFGNQHpZCK0czjTKuLzCykfQISivGYH5ziVUe28l+f+3rccfmfFL57jIwcgzy4GgP7J0CRjUbctuLAEZfmVbVMYcakMyJfFuAkR13MDIx45F06XoDI4HHI+73dixORGS/v95CHBfM+aQu33Vg5DhImaM9sMUDY/AC21SCGmhVrnoAF6F8KZhiVI3JbX0gVgrFaJepYc6qPHeY/2LlL+s7zImcFhgZRKKUdNEUo2pb+SjH6w+Mqs+FAqS6z9za7695LWnfnE8qr3pf1bFve9tkjHY/I+6DCsDsAUpWvlxjYEw5A31sb7mAkQbp1ZAz1SO6c1ziIk1cXySgFDSwmRP5MoBRgyJbq9sR13bzmv2RNK8VU174ft/RzQFGXw8KOZ8BY7rRiteEu+d2iEi5jcDoA7x0Q1qajNGmGFlnYG8Yb1Jzxog5Mot+aHcBGEtnqzNgTDuvzfmk7rEJInXe3t52ilH1N2/KcxuB0QVOquNptuWiGFVddP9aQaSWd4jSPIAwVlxv5BjmHCrVwIOFASDmEG5/Dfno68xkTuTLoBjDLpcaoFU7k7ZFU4yFV2U05eYBY0qGxuij3s0oRj0WcXvFUIyqPAmOGTCq4dDbcgMjS2aYsAmElPrv717Bt7kRawmfyXWPVa3VcPFjFJd1BH+YgKsYgxeUCxjP1UNWlfm2IYAKHfjuCJ0vFhgR+LqEdPOA0bOiaqoxyIAx1TAlGJUnz214yAQV2ST1TZYxXjeKkSPM6DoEu0lQhfemEBIfUXAYeuqzYctBW7ZKAOQ+As1y/Y9DrESnUikUY3HjkTx5VNvUtlhgDMs2VWlptxcDjHHG3WxZWtbSfq94bwaMHIV0KRjnwudiKRSjeraScrQfYAaM4QfnAhfXC+3Kx5JU2LEDsMlL29twF8OC7jDopfzxnPLFXKqoqBRcx4a+tBtH++Io5wt9+cCoWpR+mwFjdKzs94o5SgHGgm1/jCaZHIg67WqfumZuFViY5/z7YSCLByl/KbxylcDI+qvsAbrLwOhy13MBXjHAyME+ARCuYp2PLcgaSbEbuIirwaTi+RNoY7h2MX8ZMHLkXImRg1znk8+5np8a/+tKMar2JfcumuOmAaMG48IfcDwYx5en6w3GMK+Q4WEpwKjYc/PRuOwYXcsa8B6XjI/nbXDy2THa+XivTCVIvV1lul4sVz7WrSjGoCHB+DIAgcgpWtR5c+KbEzkDRj1C9p4rpJudx3Xsen5q/K8vMLp6ku6cOZ/UHTZBpM7bWxss7Ovh4zDwxINU+E7zSNcZLs/M49uPrzO+PF2vLj0Pji5gDE+koHD7a82Bvq7A6ANS3X3/ngvwwuMR3OvKxys2MJYzug7LVy6BLgNvX5t4XzmTPRfCZfsno2sc5b0qLmG4oOiRI9ZlNFP0jLveoJ0ZMIbHywUW4RzmUfhZx4OUeV94X9cZLi+cy30UX2d8ebrecNkSHDNgDA+KC1xcL5YrH0vKgNE/GV3jmB/90lTW+WJcO+56g3beBWC8GGqRIx1+1vEg5XoywTkNUOHy/HfoK/F1xpen69Xlqb17GTCqoQi2LsBzvViufCwhA0b/ZHSNY3j0L+bIXW/QzgwY9ZjHAYXOZe6Fn3U8SJn3hfd1veHywrncR/F1xpen63WXDcoxXEB4IgXXbPbptrLSLm1geDyCQbxoYFRfebueW8lKu+dl2c66np+a8xkw6mFOAgqdU+2FcSMepNQ90a2uN1xeNGf0THyd8eXpeqPlqjN5mSNPhCfSzQdGG1xUp93b6GCGxyO4y1dmuSjGDBjdT6eYs67nV05gVM/KbltJ5jp2YQUc28oXX/vsItMARfie8LsSD1LhO80jXW+4PDOPbz++zvjydL2+0oPzeXAMT6Sg8JtMMfpALH44gqvhsdB3+Mq8CcBYUaQSQ/XengvqfLD1T0bfWIbvzx2lVcg4bw6fdNcbtDOOYkz74viAJwPG8HPwHelx9s8d372XAYysW4JjeCLdLGB0aaR9IOYbbPN8eCz0FV+ZNwEYfX3SvYvfuxRgZBPKpJCJ9le/gBkw6metAUqfi9/T48h88SDlL0nXGy7Pf4e+El9nfHm6Xl1e3N698EQKCrdfBn4lr6O5TrmB0Te0GTD6ppBvxGwRje/+4s5zoTD6pbtSeD4zh27jdQNG+tqfGu6jrv4knctYaTVC+jmrM+a2UGDkvDHc/YPCbxswurxezEFT++FINOps1AhdXbl5FKPxqFUnErb2XAhn90/GKECF7yz16DPYb67IZ6dovbqN1w0Y2fZT2QHtPmr3J+k4A0Y1Qvo5qzPmthhg5P05mePtBEZ63dB/OW2Cp3Mo6+2hGAsbBw7CpQMjv07h4Q89C31wTzTV1In+plYxv38g6hAUuBnBgaOOUPqFicKoWZrej9/T5Zn5ovWaV937BwhTtw4vqcHGFtFYXQeuzF22++7gbAaManTix65YYGTpAMegcPtluKmsNAGRrIpyRzwF65JuvWawOAarRmCsxtjQz9lMN49iDJ7v54jLotkraz92vvkvRik3q1zvYa5Mf9H5O6lY6m9uF38cvC96m5qx8HqlqKnK6xVz+VIUxJwps+Urt3aKwDRZQhCq7kz0NbeK4dY2zNXCqPoMGNWDiH+ApQAjZZtyVt0WYOSQmcDI4yrER3TJJnnNTIyIw0g5TIpivApgdLkDmm2SDYz5FwYoPXnupVjWM6bY3CVdnp03XK99Ne44KPM8JT7cA5AMtraLfxi5Lx7u9yLKDT5iIRWxbmN5KEZ3231iGHfu8NkzRFs6RTi6lrp6MdzWKSzBfzizdZQBoxoQ/ZzVGXNbKjCyrKrbBIyyQ7nPOVmVRy1tog8vUi0ibCel+upq+SUfbGgS0wd7keylUIx2AAkWrgBYVUQD74sCxubKKtGA/lWFQETVnHbrn4ylAqM9B+NaxOfa0dgoHnf1C7KnxNSKAimvuPLTXCuWYlRlk5OhuKcOz6SrsRlsdbovgw3IPnMiVY/algIULCNeQ6xqiW51vf65E70rOBNfZ3x5ul5f6fZ5XZ5Zb4gfuamstOqqYqV5/LS9U3w1MCKe9A6Ipro6lcW7bUbw2Qe9fWJxd0vcW5oXk3u7+bw3GRgpGhhqahJt9Y1Y3Cv0uPP9S97Rk8fOe5nAyLo5R9tBcdVX1YjPuXiXaZVudtuv6vhzbn3uSkB7LZ5JKpmj9QgyYHQ/vXIBI0vPvy03GRgJinWgiviS1IF9HGhuEV8NjojvhsfFw+5+0Yh1WZISWZyHoEb2Do8ke123sihWsFwBWWvqdBh4dhca0kKi61wVxUhArMF4tAPwKZcb6+gSo/iRekxK1juI7NEzqozLBkZVb01lNZaTSO6Lyn/jt5YdXQaM7idaLDCa1KJZsgTHmwyM7Ay/vF31DWKsvUs87OkTD7p7AQjdYrizB6xym9Rump127beAsnrePyRaUc4DlDG7sSpmtzbEzMaamMd2DgteHZ8cu27FOQ0gSiZ0VcDIBnbW1or7oJwJig+7esSjzj58JHpFB0QGSakyRMnoftn3XRUw2u24C8c1WDqDIhEpQjDmWlzfiwUKVaYPMNR131bX6587vnvj64wvT9frK90+H5QXV6eMBG59mGQpVx2o1qVEseV0bCgppEEA2igE23+8Py7+8+MvwEoPSjayrroGrCRXf44fWJZDtrqhq1eMoJyD0yMscrUvF8P6YeaTeDk/Q8GW2N3gui62mF+XfR2AkfLF0bYO8c3AsPiqf1h8DdHC4+4+uaoh+5mUqNUmpWwCvn1PBoz2iFzsMZU3wVpDeq7F1VgsUKgy4wBD5XFtdb3p2qnKSK4vvjxdryoxaRuUl1RvfoEts7jrDoxtMN0gy0hKqBtsY08LTCJANX4N845nvcNiqL3D7E7qfQJyJVjPWvxaQUnW5lg32tVxtUAKz+e2N8TawYFYwVIHJoBcJTA2grJoB7XYg7EYhBKKVOJzfCCeQKQwDuqZy72qpGw5XR+M/eNjsQZZ6xHWuPGlDBh9I3Nx55d3dsT24aE4Cb5asRUVCxSq0CTAUPnsra43Hsjs+5Lriy9P12uX7DtOB4y8Oy9z5AFBkanKClJwmUsbJFGMlC+219aL530D4uuh+2Ch+8RgW7vogc1YF2SN7XWNsg+l/iN4dDc3ie9qxsUIWPTHvf3i/fKieLM0J36ZnxaHKytCLnmAiq4SGAnQbTCCfgAW+o8jY6AYRyX129XYJNrx8WgEaJqJ/VIAaZ7fPjoUn7Ac7DSo412ApCtdNTCy3S5Qd7X1tpxbgILw/fqSWN7jOuY21xLuZbFAoUpJBiqVM7zV9cYDWfiuNFrw+PJ0vXbJvuP0wMgS8uB4nYFRKVxaQQF1goUehjztm+Ex8eexRwCtATHU0i5qUigb1JCZ4BD3slHo39nAX5PoAdXYjV8zFDf8gFMCtIIJuwNzkv3TUyyzCh0kLlCBo8q0xQDlNNepQi0t6HNnQ4Ps/xc9g+IvIw/FHzEupKZVG1Sfza19bRuLfn0AML5cnBXvsK72DoDSTlcNjGyPajdB4gTL2porN9rtvbHHkHFRxkhTn8W9TTyPZfE7nss8OJajGEP+YoFCjVMGjGok9FaC43UARsoObU8WBS5DAMQhyNFGQB2NQy44CiUD2UUedze1FASM7DpfMvrmEuSccgU9Pvk9KmyG2+F5A5leJ6gyKm8WoKhZ2NoUCzubYgbrTM/Kr3twi2o7j6g93gU1Xi47xkZo5EcpSoB8dBxj8BDU88POXvEop3RRIJJvvGeHH4lZtHtifVn8MjcjflmYER/XVkClaDMm3nodgFF1gXNkAUDB9b93AOq0UKCXzHVI5y7hfRENq4PjAvs5j7n1cnlevFtbwjrmG+LAI+7IgDFpkAujGFVpVdcBGMlK+4CxHdTRKOSJ347cF19CpvjV0Cg0sL2iDlQkv66F2riR4jg8ORVHpwHr2FBdG5LJqYGxt5z37ZA7ttbXi6dgsfePjsUUNNpvwWa/XJyD4qdSRopZOtgXB9bN5QRGFt0HSvYpAPGrwVHxNZQuL/qGpFiBGk2TKraaETlc398Vr/Hy/Tg7LX6Y+Sh+hX3nFNpvpusEjGwXn/ksQOOvUxMSJKugcKsuo1kPpmKRqegbg/qM26sB9vh0i8WdbfFqeUG8w8dgPQNGOU7FfgiKoYwl5XidZIzNAJl2UGnNkJVRg0xly6OefvElDbr7BkEdGZrXFDOZYLEDYfbW4b5YhTnOOqi7A8jUTsCi0EOhDyz5AGSWbbUNUhHjezNIjUmFTc6bobW+Sjyp6gcleU/a3NFNsQWy0PmdLbEB+8h1sKb8baP+UinGWvSztaZaGj8z4MIIxApfQOHyHKD4BNTiALyAVIqjGjkWhxAD7KJdK6AOP6wuiV+hiX+1PAe51koEGOtQr+1CqeqJ3wZveiGeL/Hl6avngI2V/W3xdmVBfFpfhetgJTygAumQ7UGi7wrvecconaNKuLByHBnAKClhuLISHNdgMfHBAka6MyihR7FAoZpcDGDwXl2v0XBVaMw2ub748nS9MZWELgXlJdcbuil/UHWdgJGtonzvGZQt43jpH3b1idHObgBkm6TaqJ2uhXlOIekEX9wZSeHNi9/BNk4AEAgOZMU6IJt7BpChJw3tAYdAoRaSqNUebuuCkTmMrQFQz3uHxEcIzz+sLIkJsKdvIcc79Sg36DIGo5nE6ki5NVTBsB1t/aofhu1UQoGF7m9tlWPVBpGDKxEIbRA4xQdhGdTIT/NT4ue5KbSVtpybYKO3xSo08GZivdcNGNm+cyDgNto6BXHAr5DH1WJsmuEemuI7meue+wVMf785Stgv+sagnCig46nJMs/FPgKhbFlyxgwYrfF3HupnXCwwsti8QoYHV6GVJlV0BFaJqQ8vOuVmX4NdfAEPly+xvQ/ZYg2osrSJoPAZxZHKOz47gQxtWbyCQPuX2Unxd9gs/r60IM1w+ELdB1V6IE1yoEgBu03Wvr+1Q9YXxAsMqMW4uknd8tePsu5D/teLLb1taGMpdYuofw0AGXjWVEilDRUzaYCxHrx8J8rug1yVMlYC47+MPxVjnV3SfS6uXSYwUoGxh36ugmp+B8+f/5j6KP4/sKWTkJlu4vxhbvxVeVfFGFz1UwAAQABJREFUSqdbyuEzFGAnYhUigQ0Cx/GZWPMa56seBVtzTMwrkEYUlT6XCIzKykFV7mufuq62xVJQ6v5iAUPXq8FHlRm3Ta4vvjxdb1wt6pouK7ledY97mwfHiwBGUylhVm+a6zAW3xN4sYzihR8BlfgA8kSa54zgeDAHVOa9SftkG8k+z21BQQLK6BPYxY/LS+ITqEeyYbRPpK/0GijKauSrBFjyHub7pXVK1klFxwAUQLRrJNClSVKzjYAI56JHBrroQZ/GAGhTKHdxexM+2zuyXfOQ6cVpHVVdow3UQrdBCdQhKUWOC+0Wh0Ch0q84bdpEfdNQXkyi/6Sa+bF4C8p2GsC4CAraTlfFSheCM+dQpqlgt2lfHB/wZMBozwD3sR5nDT7unOGz8QCVXJauN1yu+0iXF1+v+27zLOuV4FgIMLoAzwQ7VYErH6+ZeVsp84N9IhUL//L4qVS40F6RbGo9QLOywJlLCmkNbON7yKP+BsqI1CLd/1YhA9w+OhJ7AEQziMQuQPEjQHRhd1v6HdMHm+DzDdrzp/sPxRPIOhkYgOxzmnQPsqJuBDDtgK3lAwD9DspZBii+g1D957lp8WZlXpysrohdUD1xqb26StwHQNPL5UX/sPgSP1KOgc2ingBxZfAaKWEqjX6Ym4Q2Gqw05IsfAYp7MD0idW2nq2KlC6VUGYWHyqe0L04GjMGTLhYwgnFOP+/UvIqvL7m8tM83qE+XF1+vap1/q+qtukxgpIlCC9jZVihbqHTpAgtK6vBLsNBfD41B1jgktb7+ZkevMHDoztG+VIIsQxkyD1nUe1BIP89MSvuw2d3dvMufCYwsifpq3r+NnyB7DSXFWk5bS6dD2v+td+0CMDtFKyhIyjvjwn5J4AcJxDwEVBph90KBQg8VAn1jXQ38vGtFKwB7iTaSx1CO5GRKLRibZpTflaMYn/QMiBcAx+fYPgbF2ICPRZqktPFUQs1sr0POOg2j9RmIE+bFb5CD7uMD4kqFApQuI5iUxSpfiqlXOoSmJDUzYAyeVLGAcVeBkaOWZ6v1ZMdJx8RzUYImFajud+XjNeYlpUhPDtoIPoTxNlnXAWiLGXOxF2wozWEKTWv7OwDCT+I3eK3MgG2m+cMKQHIVQLcCDbXyhbaB0RddZwvywTfwhFk92BVvVxfEI0TqeQLTnccAKZoQ+RQgvnbXgAocRj8bAW6j9LRBeTS0fkuwWpwXk6AsaSbUCU33g64uKVckIFIj3QNgJWtfD021nVwKF+bZg4kRKdSfQCm+RT/IUtMOc2F37wYAYzrhX1SJYY9OcHw3gVFTUGpUMmBUIxG/VRSjmj0RcLwIYKQvdBsVC6AUCYz/9PAZqKIR6enSiZe/0ER50zFYZFJ27yAz/H7yg/gbfpQrzoOFPrCoo7TASPNwUlbvEOyWv5mtLbEC8FoHAB9C6M9pR++cZsSHpIzR9XGw+8IXVCltSCXLjwHGoQlgyWCt1VVBqLV+iBO+7BsW/zz2WLL17fVNsVSq/eIfnZyIraMDaYxOYPzvH96I1xAv0O5y8xSUsScVQ7kFRZWbYix8nRtPl+Rpe3xUXhDwRaWboXy5XsCooqhqginaPvUwKnNKwcI4EF1esR8AVb8NjDwfAsdyA2MvWEhqb2mHx2g3UuGCcGC0WyRl1Aa2s5DE4KYrAKpFmJ/MQ1Y4CTbxI6kwUGAExllQi0rzrcotBBh5j6lBXIXCogFsOl0DCcSf1lbFcEcHRAGdAHpEGYd5TXtDc2qWl+x2Xwtc++Atcw/7TWDV1yTlCFdAaOo5RmShSS36Xm7VL7WlWGARtnAzGA96t3yEtws/GO/hVTGN8ThwCBexHBVECucAd1VKodvgxsImsq4jWm9QXqEG/brE8J5v7DJgDI+T76hcrHQDOMFuEEV0+62tDBZBU884wMJzKRenQnSDtrfHh/LY167weT15LwIYWVceHMsNjKSqCIxfQ272Bc1y4NlCORopRRpOV8J/tNC0cbgHG8JF8QoyNCoYfp2dQpScLdiDnWJNDvo2h0tMB4x6kE1gVDrqNcjudk9WxQcEZKidmZQa5GcAd9pHPu0Duw0w669slZRkuHb3EfvdiwAZrXUN4inKOT0NZICVNCaHPLYRv0ISxQq/w0PnV8gWf8J4vMHHYgV2gCcA9DO3ePFaAiP7bD2+QoYhnzcDxmAoigWMcgFjGwkBiIpGwS2RK2qEPJ22vUpmT08nKgzPIHPfAjDOQvQjaNUB7uck/zR9O/qdLbafqmQXxaiuSYQqJzA2YFDIQvcDAJ7Co+UbROP+YhAaVwBkN2RohaRjsIp7J9AyQ462CRkgzXPorvdmcUH8Dhnj36EF1iS7LtkGRV5xyxj1ILuAkfeRzd45zz0uKG0W4bVA+0mG9eIXbw8yyvW9QD7YAtdCKk4qMQl8iR+NSrDkZMtbhIJgX+7oeU6oU2ibWT8DX7zFGPwIbfTvC7PiN8gxP+Y14bpvdilRys3O4TsOyiw3xcjaPDjua4jzfAaMwbAUCxjFAiOF5t1wqmiETqEVINgCa5NWYEAXOMNB6BR6YadLSxA596nPwI/gyEAttDDZBiDSlpe/TYiztvCeMfjJJkRZ/IXtcPW8LrafavLEASPzwENGV6ZucgGOS77mykcS+hsA4TcwWCY4Mqr2MJQwZD8LTYtQrNA27wNkZxOgGOfA4q7RNQ+gQBMZV/3lBEa+bHYd9BqZAbVKymwJ7XsD32QuQUAqkFTkSEen6IC88KLSGYzVZ8FG/7Y4I326J2FHOY1x4VitgPUPUvSZqvZcR2CMWluq1qbfZsAYjFWxgFEsMLK+DhBEw+AIn8Jz6yGUjn1SkYh1i8AdEShroZRkpCGCImcmWWuCIzkFbkls7AMEtwGKG5CRkxuaBRX5EorF3/DeL+BakPS8LrafuYIsMzBdrrrObYS3tcGAmdICI/NS0fAYQPEvj5/LbTcoyNoCjJZZBtMKbA9pr/gr2OcfpxEUAaz0FDTRx2CfmVztvGhgZL30bqHHy9o6DKs3N/GFXBb3YZqzC2Ci/I+UXVUXTJZSGo+zzDSJ5e5j8pBafA3q+X9MvBV/hx3nHEBxDee1Esr9oFlHBoxpRhpUrINgSHdnkMvkQnjGB9x2mWFKxr5qH0efc7GAUSwwcj51g1KUnm0dPVhLfFR81z8i7rd2wdIC0bKKsD6hJ9cS3Fk/4KNPFlzGFgXHuIV3S5mhFdtPNYLhcY6Oo8oXAkcX4BQCjMzLQADdkDEwtJjLV5lfCiYlmFUNIXm9BZKakai5Zgs9SyYAjvRTppxxCiBwnLvXbCfDgZGauyxgNINI7EFesocvHZnoSkwEPsgZmM68XuqEOyHYiZYWGQPSFdTCZ4rjOr8GVnkJMpkpyD0nN+CzDROdlwBIuv8tYTLpFDxopXDR50sDxmLZaNYfBWQ9GTOKUT+h8Aurz7v39Biq68UCRrHAyGhZBMVRzPNHAMaH+D0HUfQA2x44QrhwQ7U1bkv2e6CyTX5QuEoj7YsngAWf8F7N0UwPSpsViJSKTeFxjo6jWW4eHE3AURlcHXTlY36Vl1pYBoRlnMVC0g5sEqdhp/gjbBZ/mv0kpqF5XcJgkMym/68LGFn+VQGj2TdSkvsA8GnE3GuurZHsBLXx30IJxcjc9G7pqy5M3qrKJ8vxCWPxywKDRUxLY+55sBw7kMce5AzIg7z6QVMTbaYoQJlX4/YpVoi7Hn8tWq8uzAmMuY9ffKn6qo8iwxQsKmUUY7phYyCUIcgTH7bDLhfz+08IJcgF3VprGkQ9KEmFBelKi+aqBQtOzzkGmP4Gy568hpLx36ffix8QOKYCIEm5ZJolI+ySCwFG3ivB0QV4rg668rEQMy/3a2G0bK5bwjwqKYqRbCIVLrv4EqzDi4WRjj8CYAiOPxIcYa6zkZc1BHe76r8KilH1hVu2iV4uuwiAsAKQFHs8uyaegf2lwJlSAK7Nsod+djfSW4ZukXytNVDwDpV4ntTjCVTNOxBUT+KD8fPCFLTz8HSB0uU/MEbR5C6L+aIAFb3bfeaSgZGNKIiddfc5A0b307TPFksxUvkyWt8o5Ysv4MjxbT9cXHuGIGd3R4ey601zTIyoz1ltkJJkLIF9xF+lRQoTrVM+QWFTSCoUGFl2lQtwTLBTDXDl4zU77zknOGxq2I04fxdqXF+BNaTWeQqUEW0XF8E6kqVehLzxpgCjGh97Ow/xwD2Y1zASzvu1RShrGK27RypthmDPGBeBnMDISEI/zH2CSGFZBsWYAbVIijGa3CDBfDcKGNFef0+ivXadyYDRNSrRc8UAIw3MGuHMQbvFx2Cd/4LlOP40MCZX/STre5GJ5f+hb0SaA1XAPWoTRMMu8CMte10MMLI/ebZadc4GO55PC4zMp1T0NNimHM6XDtG5dzA9+X/e/IpFq+DJAe0z5Qmu5Kr/OlCMrraqc1vo39bGhvgApc3k5qrUtNOlkRHMB2D7FZdOIXxmMNf/++3v8HKhK2MwGWx2OQ5ObhwwloiMGTDGzSh9rRhglHeDYuwCMN6HKyyj0BMY/wh2+rISNeAEyU0oPud2sGQE3q9KaLUXwX3GpWKBkTLcEDiWCoxxjbSvfcZavKugED8iYOkvoBx9L/NFAGMLaBQVyJVsrKuOci2GhWWgEM15W9CDrwYRfrikwTk+HPhy2EOSP+YHZpMyWGjp3kHuaqdA4WKf1ce+sdQ5fHtXwEqjKeEJ7Gub/3wGjP6xMa8UC4wECrr39UIG+BUWcvuayx/D681OlHTb3zhpZUFbRfwOAGRHMEXj/CbW0OmhAYqdenjPMAqXfa+SnKvzZK8fd/aJteE9+S7dA+e5CBmkL4XnlSrFl1ufZ3+Z8uB4mcDIijloewgjtg67Rd/L7AKtJIpRa2r1YCjTCmqaa/EFlAn4RJ2Xq45yAWNQEf9XiEmw1+2wR2R/2fekdIQvI2WVruQ+G+T0jaWrnPC5qwfGQBgTblXSUQaMSSMUXC8FGFUNQwgOQ2rxG8QAoIdXmkTTnBWY5tDtl8vL7uKYsRFo1UJKsKcBFh1NWH/+HlwiHN5h+i0OahuDSKoe7H0T1n7iMhI/g4BwKWdKBUbWJsHxsoGRFfPrweARO5bShdeYXKCVBIy8L2A9KwQ9dZpAqTUhPBoj4jDiz2fI8g6lwekJDE6PEYI+EPDyPpUuAhhV2St7CIohTW/iwZHrh9Cf+9AZMMKeLqr0mydjDE9gfkLSqZkr8HJVYP5kwKiffdxeOYCxD0A2gHgCjyA3H0VsAaVYNetVM5Pv9iHeba7bNAM9wiwAbBHrbzOIyw483s6gk6iBuyxtgcku9++3iOGWIzEA8GWQlurcg1XlmXUQQMewNAk9aL5vRUDp1XoEiQkvCheeV65SzBL1vqIY1ZmqqwBGVblvWywwBuUFgzHQ0CiXLbiPoLNcvqAaQLkEhcYUtL9z0IyfIOIOfTrNdJHAaNZT/L7/Qd9kirHQ8aB30iHYs2JSZq6TbtRMoBiGec4jUGykHOn95QJGs9R1xEDgetsTG8sw5l4GOG6IDQAll7fgwnbknKrgYlsLgqUBYMcA0bSTfAwPmwfwsKFZUJ2xoqSLXSeIsj2PYE5UWQHwhSySy2aUCxjZnzxbrTrnAiZes0HUly9p4FQ9zHcPv2r8zOQqNw3FGJQRlMUQaQREujB+B1tDrklTi4fwBgogmglVzN9DdHB8bQxwvAxgZHgyOt+nSRyb8JiHx8ks4y4BI/tdCZasmLWqM2A0Z41/3wbGhwCrJ6AY+wFGdSm83eZBLX4//0n8vDQrF5mbwvEaxERcgoPzmokS90N85E7ALwwC6KZBsDCGKjm7FhyTilTJNfMZoZ/h/2iAfoyyt8GB7kKPoZPrLn3V3DP7a54PgaMLmJg5/JK6WV7mc/lp83xckqY/uQyu+tMAI+WMbfi6tYFM72psgmdOB6LmDOA3hOji/QDKnnw0EBn5G5F26Hmj0mUAo6qruK3/Qd81YCTr3QGu4ClWi+RnhuKSNGvqmPOsqGcQeQSRE85irW+/M89FnAzqTddGs/5zDCoptVPphXIPSpgmGaD6SWc/WN92gGMIMvK3khqkw4Jcaxs+0fSLfkPvNmiWd3LiKxlAAvl0Cto3ByKlEhYdbDMjdtEnmyDKwNI0CHcRXATpPiiIRmD5wTrrEPVeKhFk4en77QNGFpPvqQuYmOEigZHlq+SqPw0w8n4uv9Ajly4dFv8wOg6f7j4ZWZwsQDuWHVBhkhht/EXfZxmkoRlrzDBlwCiHoaB/UUDWkzEsqAgXG2Z5wtfSHvFF4cJjfx56AParW75EpCIuNOnu5aqJnHBXnzKb++bizxYLjKpGJfPmWHfA4HsULPVIS4eMYeqj2Bk4YnITrq0IFPMj4iC8ZsAYAxhV2XqrB4cANQG2+ASLvzHxeZKCfNqBhfawpnx1RfT5kiXvAjs+1NwuJhqXDU5Cl6vrcu/FASPvkLW6gIkXrysw1oE1pdK5BoLbztoG0QVgpJziDyNcuvQJlnfFwlgwEbATHeEH8aCHMeB0T+pFgNxVaMzxbcJHx/yi+alju8wwUKR/MHY50eP4ssL1Ru/2n7l6rbS/bclX+MJSiP81PDMY6orHhS7EllxLXI7456LuDABKHd2ArdEtEnfUKHOtHka9729qQ/ixRhl2zMcdHsGDhdGhfgMr/QZOD9OIhaAoxmjvdWUmQE1DWVmHMppr6qGUqYI7IutuFWAKI4k6hE5Qlv1490lpBgSQLjdyg3XCrNe6lD90esjwasnAiGjXaZKL3UmiGJsBfKNY1H68oxdg1y6DPPRjy8XuGezCBYyqLRzEPlCQXyLGJOMxfsDXagZatFMjUq7vY6HKUFsNUOkfirq3lK2ut9BSbjYwsrf8KHLhsodAH4pIAhC63PFPGvUbB4yODik7jjrI6psAUgxWKz9Cns4d4lnMAxDfUwGDkH5beLfcST8rF0BtACA/ba/K6F4PwBmoJXjtsqjRbkEw3U6EQmxG+wr5QLrqtcun/XOUXkWu0oFRD4BdaejYMdBJwNiDhzSIMGhf9o2Kv4xh+VTIFgdhkNqJF6YOJjtRM9RQjfKgHV/B54jkfQijVALkEmwPKRxmyoBRDkPkXxSQ9TMuDytNn/LkxEnbBIF9AxcdUyttpfwQJ5celyOdIi2uhJt4jU+Z1LlSpOinHu7NMd6j5f1tsNYbYoGBIcKXc0f6bh9A7UPjPIdYC63VsAlGOachGaUulG2iWQ9tJQngNmbpnOE9X70qF+eXShFwtCvxgYWPvM59ylX5BW1tYFTRuzvQ+Q4MQndjo5QljkAT/QU8Tb4cQOw4mOoQGAtJdaA8+dWhISu12GQfmHx9tcvWQKEH0s7jPS7hHdP1ekv3XLjeFKOakEmjqcK5cY5WOuRQns5npy9hBGREbyg6l6Bx3pDKHLtS/XTjAGoPYLgH+WUXCBYGpaHNZFxqgGKGZj8QtMVlk9fi6mUGNQ9VQSFwLBUY04KLqtzc+oCReQYhV6D2mWvQPO0bEGNgn7txrgXg5ov+Y5Zt7zNaDg3QjyD0pQ+4FEA7qFj7Ph5rgNIP25XPea6IW1Q5ul51Ju32ZgBjmt7YkzfNPVmeyxkBfrgkF+Z06tATPwmgVGu3YSzOpUCSvKZI3FRDw81F6+JSUr2uuZUHx1KAsRRQpKeDCYz1wG+uWsawXnQx6gELTGD8Zvi++Aqx40gtUplSSKLcggv5nGAxq+3jAxiCI3AmDFPXsJYzv1KQXKUqTgNUuvxmoeWNi2iWHLd/e4AxrpfZtasfARJ4ksiIUHr6XUkCqGJ6Qfbapbcwy0qq1wWMvF+CY7mBUQ+H2UR7H98aAqN1ugvuflTfc8UyLn/aD3niKJQsoxDOcs1oLltaSKL91RIExAz3NYPlDLjIPY+X4M7ENWC4Fs0JwDMp3SVg1H01R0U/1XLIGJ0TUldhVpzfV2x1/kS2c21GgIwXvV6aoSjRWmr9QJMAyu5IE3QL1EjTrjUunYLoIfd3ruTPVuakep3zMFdGxH3QRwW6ZIyuvCm506B69NvsOmWMA1S2wEzji/4hyBWHxRjki61Q2TOCRw0iEJOiLCRtQ6j7ATZXXJ3v57lJubzAKnycjzGoR9BQM5q2qal2la3BorC6WVYpFGNKZxpHk4unGHVfzWJ1vy8KGAuaN2bTsv1rMQL0/KJGuxuy/B28c6ZiNAmgzA40YiK04V3vgx6Bi3ORMoxLhzAhOpEyziiBk1RvHDCyzjxbzQMX2MlMjga68rpfLJbgShSq35MhiwTU949BEY51dIqnYKG/BChSC81focstnMDn9vDkFOGRsGTq/o6YXFsFIMKNCTEjf0MA2V9xzGS3X61FY7dU9yn+Idn3BXWEz5JSZkCJNEnmjbAoae68ecAIYiNV4mQm9bgL29QtGA3Ti4MslWN6pirvsjIlUT+X1Y5C6lGyPsr0GhEBpx4rCFZVwOmP4+0oiJ4s5Orug9s7AdExD2UKubYkgLKLaoYHzjCWWKHnCw3QXUSZuodSRq7bdAQzIgazMFNSve5e6BKq0Mk8ONpgobK5GufKq0FE3Rm/5YSm6xdd/v4TvhL/OP4IS7reF4yS3YOFqbpgv9SKwSk07WONa7LOr7DQPZdNnQYrTfkiI4LQZIfJ1X4V39GsT/fJNR3MnNF9Uow6fFpw/QhRdpK0b6ok5MTLnw5I1T38WhdLqeq+6tLMr/9FUYxpgVG1iso0Lk37O2L5yXB3AFb50qoMabfOR+o8mbbEdPlSfghchcnWedhHV/5SzgVLElTAEqRRug/SEJwRrgiCrq8Rl18dBqA97R4AV/ZZbK4hHCHmsEp12HHNIft8MzTPY4j686yrD7qFFulOqMowt9SOkwDiR5J6A5OOKAcwsi4Jji6wkBcdn2RXXveLZXYlul+Jr1AbBp6LT9HD5b88fiH+NPJAGvjaMtDo3dEzpBg3EEyCyywQFP/X5Afx09yUXGN6A76bvgW6oiWZGmleLfyFUQBlR+6WodM4uVIkGrkyEKgZHCP+ttsPjOw/X4IFBDL4aX5KfvS4oFvB7oPOR+o8GRnydLkitwUnSrlZgmopBbja5CsPugB8yGnbyDBlyhC7X7SKqjo3NUf/9mG4GD7vQtR6UI3L+7v4eO3mK3UBIy/a5+nL/bAT68Aj2ngf3AOV62++oNwOo/tswEOKy7hu0/UwpzcoBRhJLZrJ6yFTEsWY4uvIL80XiCjMztMk5ynMdApVtrAj27CtmoEb4BQc17lI1zzWopmDC9J7hEyaxf5SLvKOC9TNgVD7YaC3RktlitkqYLSz9GN5BMaha4Ovd0WC3JQfB9pgMgrKMmLV7YBtiE+3BBg1oeHtLilvUowT8Gx6v74iY/8VtC6685E6T0ba4KAVInku4kRQb7o2mvUziIQ/xZd3Qu8jzNOtI8ZKBBeTCxFHA/yqkKYgqIGG2CNYQoHp+PMJFpQ7FvfgRvgRAW5pu5iUuqF8GQPH+AKuv192DyLaDsz1wD3eIyvvSIzEswiF6uTWqgRi6hDKCYys0knGlAKMSWp11c8akM9fDo6Ix719OdljLR7BOei0+Iem7ueWpDUB8a9T78XfZz5iIao1mOfsIHbcgVyhjOQ903UAxud46M8hQyXgJVHGnJSMLvQYkWfIOrwD+PsB8pYAo3xSyf8oC9vFB48uaq/xcjDRSSBNcnOk6eZbKcDorjdNixUHm66NZonxdSaXdwRKjLDEyN2Mn0lXTTpO3G/tCsVaVHUybgEpPcon+R4zP0P0nUO89TsAMikRGL8DsfQPMNd7DtacAXV9VCPLYmCKOXAQH9ZWYHGyDeVqPAERhys2xajaGgHHUoAxLQhx8AgQDFjJX9qkwiLtglqkrGEFg/IOC1D9gBiNP2NN25nNLbFp+XSmbVM5KcZ6ssSYLLWw02yH4z5Nkb6ER88zUMe9La3er6EaB4oc+sHOvBgYhgcPVnwDUDJG3iqoyC3IVPfyE+GWAWPyOyuHiAL4HWMxtnXrmatxNLdqqQzzXNwLY+YrLJpQuBNJ1IxZj70f1Bsuz87jOo6vM7k8s78nYI3JVtN3+VFXr3ScaBb+d7YZHBKj+HB5BLLlNO9pBYWvAkuTXKFtM7XQ/BEHuqFzeIayX2B9midw8GCwiThgZJ9Z/izClE1srIjZg23jnYiOSNxz9gEjSwmB42UAY7Tp6c9wOVdG/vgE05w3ywviHX5UvszDZpHyRi7XaKarAEbWT1OEAXwJxwCKDIZBueoY3BwHEQ+vGxq9JPMETsQRTLB6yByfA1DXMEGpWPphdlL8DR+CPQbqvQPKF/NZmvv0hkgaQzN/BoxqNAoDRt7FGIwTEGPUVa5jLZgduX60Ks23pZL1GTglxjCgKGkBFP7KATg6rKJJ0xsqe+jgQUqUi3b1QufQhzXde0B5MlZnGq+3bXwcGSD3NcKkfUD7uACYKxULjCwrD46XCYxxDbY7SCqTGsojBImg1vm1XOt6Rkb0/mFhVkyDxeLCWXa6CmCkdroXlOIgqL5xgOE3YBG+BvV3HyDZA81bmqCs7Ae/ppS/8sf+046LH4UqUKNcB/v4dFlsgq2gfaat9LHHwT4OU8jqajB+tnBcXVVbk6JQ51xb1/MF3pctSYokZYEZMKphj74j6gq3Sc92HgBERdgCVtLsrGuCshCzHfPUlejrTOqPbPbDtm6xBa+0JQSkJRGzAyUKlSlcibMXJjvjAE9ueY+vPFUH4Y9YQK6RLDWXO3m9Fyh9XIEuXPNQlRVHMebzcOcygVFVnGa7CTZSerJAvrQAD5dZAMQMKMVpyOAmIGu4LsDI8O8DMDvqA8tMluIBgHEMa2GMg2ochpCabAPtxcxE0HM9PPs881A+y8hDfxwck6ZAT3qWAZK78kvOFd1oorSasH4v6772wOj++JvDVtB+BoxquNwgpq4mASPzMZjEJ7x7f52dwJrRx5Iy7AX4xSWCHcVm9QBSRtBpBkW5D59pAhzZ7bb6+iBeY0oLDtbFNeB/BYH094VJMQ2w9SXXu6XypgFG5q26GGCMfxiqkXFbmubMAgR/h0D31/kZ2C3Oyq/FAWRuu7i2C0XFdaEY2yBneQjlyVf9iBQE2SK9ewZg1lCHryNckCCvyRPo+S77Hp7vPAGSa15zbRx+KD5CjvNuZQEG7vNCwHRpH1/m/ZwCKl+JsXPtgZFtLX3a5Ht804BRA1Thg1CKjFHXmx865w4/7RMAx/NPb6XpDJdGTQJHVRDFRC0ISk1qU3mjkZGoRMCIQmxUyZK/xFz/bxO/i9+xDMNsjmpU9ait7x3i9bTAKPOqAtXWxY66XixXPlmGh9RW5fu2VLZQpkhfyV18XWY31sVLACJ/vwAcf4OHyxoAkcsaMClgNKN4e9sU3JL/H+5P4ZOxEW6MXDWtEeZIFEDTvuvFAIFxWDzvgxkCDFiTNNL5xqTcYXkNiFfJXw/YEK6vQbvJKgAw2UzKb1Yhm9yC98g2FBRyvY5c2eH+qgqDft8UVlq1Os02A0Y1SvFzOy0wqtLmKDM8W5Ef/SFwRKQEyT7Te4aRu32JraDdbvU9R0hv303GeWrLd8GaT4Bq/G0F2m8A4/cQsblSuYCRZYd65AIX14vlysfCzOg6PHYlso1MdicIjIuQI0zAPpFG3FOgjGbARs+DpZ6DQNcFjCxHLW/gaxPzmCncn/jJY96n9mnH2AehMd2b6PdNhcsIAmKQpe7FRKHCpdzAqOo2t1zOsoKaQLDzI1hQ7BPcIt+twq4M4oYpyGLmoNFnCvdXlRD0OwNGNR7JMjedU+2F50489abuiW41QIXLi+aMnomvM748XW+0XNcZrhJ4AgJmDVriCaxD/W+T72Uw2m/7RsTXCBxNj7aLSuuIEfn93KT4YXFK/ARiacFap1rVa2OKOs9tIRSjui8Pji5wcb1YrnwsLA0wMp+rA/swGA2AcVH8Bxa++n4KNovQzq5irdu1nCzNphhZlkq+NqnrahvuT/zkUfeYWwLjAGQoY5ArksX9dnhUfDsAl0dooatgckPbblf/zDLUPm00GT2ZX0UaNlM+w68rA2wkmTGwDFKQwzXtUts3DvnmWPuaaAdQkpVnWSdnq1gO0455xDuDfl9LYCxR5mhTjGmfRaFAocaQo8kUD1JBHtd/XW/hczG+zvjydL2uVrnO6fJ2QNxMg0PZX5iGrBsRrTB/28C11ELsQy1zuQkDlj8JIumvcx/Fv89+FFMw39sAB2mnuGddDDCyPAmOLnAJA0nQFFc+XkkLjGaHKFNcpKIF5PECPFkoR5sG2fwO7DM9HyhPOAJoMF0lMNZRXgJZSUd9nYw4ThObx929MvAut8M4pgFs2kTxwQ60bYsQJtOzh4udn8BVqxqseju9YqB4oUlDG4AuqVw+QK6X040fpy/t0Qiag2B5nmNcZ/CFn8ZvcmcHYyktzGQzFTAyduZBjpI325/25XFNSAxXkQk9AKgXmzJgVCMXP4Zpn60qzfwQKEDegOiL85apHTqBenyQuUTCIFYC7AHnxFU/k+auLj+8x/djH9TpJrTa64d7eE+2xW/Lc1jqdQHzGFzkJQEjW+V0HywFGNN6yBwjcs5rDOy/T7xFSLFFaKV3xDoAcROd3wO1qIJsXCYwuiLzEBiHW9vEEwAh1515AGNVaqRppM2V2RiFuJC0B9Mjigt+W5wR38OrZ2p9FbZfWPAcAEf3q68QzPcZjGEfdsE4FhMtbaILJm3LqB3fh9xxA2Gj3mBC/b8fXkIOOSEWochiUsDoKzfty1NOYPycB8XiSMcMGNXTvHhgVDVxuwoQe7m6AKDckwtrveiBMhI+0Y86hZRFmnnT7hMYafLDZV5fwsHj1RpAEe/LHEDSdvBgma55qOoqlmLk/fwQ5NlqnnCBIs+npRjVmi+8JymRXJ6F9utHyBJeg1pcBGjY9VwmMLK9jMxDgGTMyEawyT1QejDgLmWLVLRwOVCuldzd3BwrgDb7ThkrlUx05KcjPv29J+Bz+uv8LIInTIsPcHncAHvdAXCkeY5UTMEDhP6pD+Bf2ol1c2gTRqVL3ETgl7qmsh5+6vVC5DCVSpsNmPlsHh6JLsghd1DPPoCYH58DRPwxqcZSQJH9LZZi1MDIUuJfbuawUwaMakTixy7t81Wlmc9CUYz6WrAnKUjM6QVQeZsANYqKyBHuQ5yzg/e5A/OPIh4lNmLotmA5AxIUOuIUw/jR/Y/iNb4DM1jv+iO4SEZe+gXgOI057PLPjnsfSgVG9jAPjpcJjKyYLOAmSPNFgMV1AEa2iYnAOA7lCr1b7sOz5VF3DyjFLkkpMrYkWd84zVxQiv5PCngOK7K9xINmsIRZ7M/D7WmWdpvoO4GRaR2AVY1zBMdFmOXQLeoR6n8ISvVhZx/sHNt0oSn3uATtP48/BaveJhVbS/j6zoLdZlCO1/gwKfI87Yvjm4zlAUZ2qjDKMQNGNREuHxhVzdyu42Nen/OfpsUEzW26YNtLTxnKIRldqr4K4c7wkadpWwUcv2nrKANakI0Gt7gBJcv6IThHbDcBrKtQwswj4s4SRFBXAYzslwTHywZGVszYU1walQNx1RSjbE/uXzU0wDSV4brWZHFpnjMKbTQD8ypNu5k/bp8fgDV8CV+Dvf23j2+kzSZBkZF2tkHBmYkU6xK+nPOQt05S/roVGLsT0CgupEyyE7KcNMoaVS4NcL9FH15gUTJ6NryH2+Vv8EGnzPMDZJFM1wcY2Zr4l5w5fMkH3Hb+tP3V94Xb5KOidH73nq43XJ47d/hsfJ3x5el6w2X6j3R58fWGS6A1yTLm1HtwKLX4WjaB82qGLWQnqMcOEBTkaBgpvIYmPzlqku8HF7qjzTJli2Sdd0CBHuD8ofwhBoME0XBdcc+6HBSjqo1A7kw2YKlMtvKlEFZalcEtvxtnZO1AUpvpsllps27uU/xFY1WGDKPMLzDNCeSKcQ9FlUM3x02EeSILvQRAolLkNQy1f1uYEx/AKsxJv2iVW22hXcYuteFMa9RiQ1lFNoUBb48ApHSVGsLaOnS16kC72jHZaBieJpHS7YMoYBXaRcpJudwEgSjti+Prd/koxjS98Ofxtc++I21/9X3hl6MQsNBlmB+gcHlmHt9+fJ3x5ZXS3/h6o62VsmwA2SZ+1QC2dYAeY5H249desy8VhbQNroFPNSMGkdUm9cg4jPt4Z1YgI59FXrte2y0w7lmXExjZwzxbbXb3ooFR1VWBt4vmKypdNTCyHXxwXEWNKz1Kcxv4MIuYKCSq7Wq7RuE0BMm01eS6NW9XlsQyA3KCKtzFJIimYIIrYFTXGW6NboHb+Kp+ADXZ0/gRIcx64YUzAk05hN4wNOciZGnT7jFj7B1JFoby3nv30MHwd8lZlG8yGo/NeZ/vZFjG6MuV/ryvfXYJpQAFy7JfWrt837GuNx7IXPfH1xlfnq7XVbLrnC4vvl7XvfpcuF7EgwRIHoNYqEKgCJr5mB55nH4ESL5nXMspqd64Z11uYGSPIuBYOjDqQdZDFt1jLlJpFNgyXQdgJEBRRkjB8DKoLAZ54HolnTEGroo1OIL2fR1fv4+QK76EFv4VZIw/zk+JV5Ax+lPQdxsYmZ8eLhQ7iBygvgYlSRktgY0xHkl1052qHZGZa+ChQHaF8lLfBNpE27hUBH8H6B+KSUy+si4OGMlPpE++9tklhF9Y+6rrOHgu6krSS6vy2Vtdb7g8O5/rOL7O+PJ0va6SXed0efH1uu7V58L1BmXSpTXOrVXdnVRv3LMuFhiT6gyB42UBoxoQtb0uwMj2kMyntqxmDvEYIUCmdprxGH2JAmRGC6KyJVC4IIQajhk1ZGFXh4mP3h9MHhcwRvMGZ+YAbFUAXsoxJ6GwGcx56YxAYTQA5Qsj/1TREt1KDDzKcFM07XmzOi8WQcnS2yEu+SbjxQEjWxNtu7+NmuPw5zFZ2rhc5rVwG5JeIPNOc18DRbg8M49vP77O+PJ0vb7S7fO6vPh67fvCx+F6dZnhXO6jpHp9c5GlXRQwyrJVc8sJjPFRiFWNwZZ5lZ90+IrfhMjOF5abFvZgWJYJUJSBfoDR9Abc7xhN5Dss+nUMbxiXUes6gHEKnjykEv82PSF+BRvNNS32QEXuQU4YGF7breVx0EazXlcu+xwj7+zCLnJ6d1O8Asj1gKJ92tMvvhu4L456j6EJDJRJ5n2kbGmHRgBnYODXZPNBgQbaQjOn3vdNxosFRl1/8l4GjK4xCgOUK4d9Tr8rSQBl32keh+vVZZp5XPtp6vTNRZZ3kcAoy+e/cgIjyyskwfLJmd3XJjtzOYHRLJtuiwswqaGGl072jMnYiNXXuATkGlhuevSQQpwEWH1YW5LRcbicga2FZplh4/LCgdFcxRDm8WIdbDF/jApOApDC7S0A3hpYZ4ZKIxVJG8fPAEau0T2xHlC1c2jzHPLsgyX3Jd9kvD7AGMipTs7jw+KHX1hfb83z4XmY5sU171b7ut5weep63Da+zvjydL1xNZjXdHnx9Zr3RPfD9eoyoznDZ9LU6ZuLLOmigVHW4QOh9FppPSDK7izdd530k77XHDpfm8w83L8oYAzqqZAyPkYF4mJgXHDoMaz/qdT42/RHuTQDo3NzkZ8VaKbXZcQS9wurl30N+lsoxagC2ob7C9ko2jQBLfYGBN4TAOm3AHKGsv8WQXa/w/o8jLZM9vunuUnJUi8fIJLzDQdGPpszACOfhy+FX1hfLvN8eB6meXHNu9W+rjdcnroet42vM748XW9cDea1oLz4Os387v1wvfFtNEtIU68PG1jOZQCjrMdstNq/DGBUddnb6wKMbNcWqLMPAB0u/6nMZrh2yY9YquCvkxOIfoOoQQDFdCmYPIUCoyrbBkZ+Wuh7foQ2zuPXCPkmQXoNxrNMdQB0Rh5/BTMiKogmQdUynJkv+Sbj5VKM8XJQ1Xb2i8b4AlQwUw9MRFTK6ffUYcHbQkRCZuG63vQgoe6PrzO5vFPMA8rK6UDgsodQ9QTboLw0ABW+L3x024GRvQ0pZHiiFGCE41pJ6ToBIzuyD3vDRbCipzBHoAb7HeR8h8enYLUXxTSUNisHSZ7KajjKD4yqZNUCehEsECxg230O1n8JCqFqGOLOwQuH6+xwHWHKQl3pegCjq2XRcxVYfIy2nn9AQOHOhgZQEYxkFExjDVDR+y7yjK43Gcgi7Yi9JcqDwRlPFsE48p9BQR9ibm6Dm1mGkm5FLkHgF5koWXcGjJGn4DwRAsfyAWP0oTprN05eN2Bk0w7Bgi7Cm2QVFNck2Nea6XvSNJDaX7K06dLFA6NqxwH8t2dJQUL++DMCgvIp0PTnCD9SFioKs8rP7fUCxlikkM2mMn4IkYv+PDQOt8oeaQpWXUBUJNV3+vma6ZyGrUWkcCnpC4inFlmOv2TK6c/wx3m4B06GXlQfKlewiPu5uAeg3MXzJhUZTsHYZsAYHpW4ozw4lg8Y46pzX7uOwMiWUtZ3DCqssuIzJqG77fFnLw8Y2Q5Sj3ugJqpPANw5+8i49l0vYATF68cDoxtYfAx+u9TSU/5LO1nadxaWCs1fWOmJuUusnsbUVAxyoSqOwVLzjowE3wqvqUnY1X4A17ATUlgFFWbAmPhk8hko15TgWC5g9L1s+RodO8lf0OCmsMyt8NkVL+vzlxeu19EB76mgzPh6vTdbyibm021UrLTr7rAsyJUjOOd7VpcrYzTap7tnnIzuMjpRKzTxjFTEJT6ZUmFqvqiUFeXzX68dxcIrwpBjsA12+lFHDwJEr4r/OfNBLMKaYgfAGSQs0IadvRK7HZ5X6QtLA8i+ucj2X5byJRir4L+qs6rcwJg2nqNsRsoxDgNUypuM3sYDlL+8cL1GgYm7QZnx9foLidar23gbgVFZOfhHRF/hSDRAIcNfloIR4Douw81c5bJZemlxvaUFBC5RH9QMGNPPFAWMvCPPVvPAH0RCv5xqIpvKF4X8adlj1mUQQvLQ9y8MFLodvvz2+XiA8pcXrtcuNe44KDO+Xv/90Xp1G+86MPpHLbvCCPAEyQfw6PoGsUf5gk3DIWFRxgYofnzuIsWoRisPjknAqECRN5YMjKr2hG0YKDRIJNyWvxwPUP7ywvXmi0uxkwFjikHKZzHnFE9CtJulEkagEbETxwCOf4RXF21cxdK0WMQqnsWmuwyMJPgkOJYbGIvV/JkPMQxQfiAz7zH3M2A0R4N0hHsMr0rGaAMjW5hOIRPuV3akR4CxPvvhX/9V9yACi5wjYOw+AsYiFBiUNoWmuw6MHK+qcgNjIB0vTERuP7gMGDWQ3QVW2gfc9rygcYoeGftqdswR6ECUpuquKhj6nCPaPKLOww+/Ara6i4wRqrQ4CUOVAWMwQHm2OjxewRQ0v+5pWGlG10k70cP16aMMGPXrf9eAMYmtViNDX3La8SlLPnVez6Lbt2f2laY8KtSf3VOeb0EE+AeIBfAErqQLWKyK936mXz1C3SWlDBj1CDnAMZhqxQCjL7qOrk7v8SNGo2QasqqUAaN+ze8aMHKBpdOQbZ6aFeEtgZGRj+bxsu+dwM4Rf1E7x9I4F1WjfhrqzCVtHQbptGtkakbwk/6mNrlGedySGbR5/KJ7QNpCMt8OHBmSwDEDxvDztcDxcoBRNYHffoIk020FRjOiTtDT4H8dvvA6IAXP6VfxrgEje68/kTzyJ1KMXCTsb1jgnZ4hdB+sDC2Pq8fRX0ryFRR7ASlFoQ5gZENO4f3ENvU3tkEbPSztPJtAIQarUkabWoXgx486e0UTlDT0kprEch1TsH/cxL4rZcAYHRUDHC8XGEn+cwGovqZGsQX/X50Kn9zXTflC4GuFaUVfQyMmZ52kjhnFm4EfDuh6CAopA0b9xLk3UN8kqG0lyxiX+C1dAeX4Cu6R01jPmAuf1eZ8q+PuK+iabEJ8O5zlxd4Se1EWF9d1LkRFKnm5ZVfcw8eAHwmuc07bRhcFydrqEZBjDIGQKXt8AldL+mDPIorUjMVe3xVgNG0Y1fOLEwPmwDF4cBfNSqsGcUtTg16sgcKF6LmI1ASoAJN6MvPG7V83YGRbWzApR1vaxT8MjWJp1R6s9neEoBWLiIyDKOFw7ZrC2jA66ZfmLlKMHIfnCCTxBOPUC03rvSSSDaCwCY8QjuXvCNHGIMRNDoPwtJ5X+jkEewFA6WdiX/cex94Se1EWGQeMzHCc83ihBnoLkaDmt7bEP42Mi/YRBN8wfIT48TBrIxEyhLn4l6EHcimNv859EjNYk0ilDBjVSES3AMdgKC8TGNkMfu0YRPYFoqswWvUZnupkbu3baDPdZ64jMPZjdb8hGOM+Q+zH/3T/kfhmYARr8R7A5a1efskZ4Ydr8R5K9kZP47sKjM+wkuIXUBy86BmUQXoZzTwuYc06sYcgv0tYMmKZFJD0TwuPXhqXNVcdAVDoZ+LK4zoXX19yeWGActWgzy0jQv0C3hOu1teOOUXigsbfKrlqI3VJVpxU+dL+tniJKE1kr8P1uu5UpYa38f0N8sZSZOmrylfM8tLUm7/B2CmUYlS3SsoxDhhdXi/USvuULwwpxYdQRSPUmFQF31hGV/nD0H3RBvZzuK1TzIBNWkXopQ2woAweu4ylGn3pOgEj2eg+hM/qwyT8/9t7z+Y6jjzNt0jCgwDhDQEa0IkiZVrd2z1xZ2/EbuyX3hf3xe6NiZ7pHanVLUokRQsS3ntPt8+v6iSysirLAaAEkCeDYNUpkz6f+vuE1bmuaNxfCBzvDY6EbST24EHNU4Eo4gSo3dNugCZlt7L8HihZk/G02DGa+vWI0uvSfsbd+ogMChivd/eKaox2U4TCKZo39BmhuiJKKr3KjrqAzgIwQshsCtQ2tS4axIE8WdE+5Nrlkl7o1RpiC15fQu44cu5SqMD6sm9Ye0RvBk+1TfDMof1j1I+94nh69Cz7S8dZdahPFGEkogHtaAuQVYmI2KvaN3fNWPvq4gMq33Pxa78HMFK+fKttNZLmOlWB0TxPZ+Z1ECU2ikIY7exROP92bTV6OVgVq8nezCY4K5tV7a68DTZFaSXTaQJG6tYtDeIdOf5/LbctAPErQFEg2SkAOK+PRWfrheCeKCPSS7E03Qtz2uYgAkff5Aof1H/ul91cTR+z+vq0AWOLqt4nOfPVjm71x1Dwpcb9hj4kV7RRWH/7xeBiY4uzKNMtja6cE+vtA9FPHRhNf9DOVQEbgSb+Nv1C+5q/Cb4bvhKMql99ifWIPHdE22d8O3gl/FC3SU67p72PVmrWIpf00RrRB/6K8gBo2VwOIof5S4JiR8558F67bGrv9cmt1eDtlnbIVNnxlDUXeeYsAWNYX9OwkwLG8MuiLwpfNxQuvoSWmk5sbmwM/3oVgood/ka0aT0aODb+DjcA1wBBTa4rP0KHHcB+x8A8nXf2TVcbnn4z+0qUZ7LcTk2mdtW/R/VlcX8j8cDX+gMY74jVQVFgk2zPZFpxTa5dt3oGFUFlPrw1L9nZXkYA2k8FGFs1zlAhXaJGLmucRzu7gpsCRNjoewLHKxpztr6Nj1xSbmb7MTpj7sR7l6ufEzDS3kURDa+lXGlVpHc09n1SaBHKreWCjYrOc/HENr43tM4O3r8J5fxQgBPK46Kixg+1d0o52hlcEfXe29ohJVfEARoZMEblUI8HAsMViYV6N9qDwTa2C94L1t7sKXSa1rw06hAzPn+cswaMzKeQDj8pYGQg2KB7XfKQGVGBN3r7vaR+1teFTaG+ELB0NAtIevqCsaWB4KWE7k+XtEGUtiuYk11bdoovL/epkwbGNi122GjCRN3XzoQEXb0q9nBEC39Q8h8XGG1dMM79enhEwWffBF3T7cEP06+DpTcootz0qQBjCGKiPm7LLu9GT69MSwaCu71DGtvesJ96xTV0aqyzR87tl+hXEhY/P2A0vTKjdfZ+6X348UEkMXixQ+6DXUGL2GNfnzYybwWCUIQtF5qCHoEpG7MxBkOat13idDqb2oLWpkYBrihGmRWZzxCUI4n1zQd9U4C4KuUQ+xexv/uEzKseaqO5nyXPPLTPq1X0LAIjVW84SWAkwzf6esxpA/qnYh0BicsCjDaR9GUSrNKQNNj8XRPYsOPfE7GnvP9W2rp3stVaFztqNpyyefqmQnT3pIERihFgxEQCeel/v3k3uCmFAsBHjMEsYKQ2TfoaI48kAuGu2vFMoB9oh8N4+pSAEb5hTAvwbr82/RLb940+JPdFWRsFQiTFirc+Os8ezfSznxvFGO8BlCprAsgWiWrGREQAcLDQHDHj8SW4ObgzjMTxw2ajMij3AYk1mqE6RR36LSFtbnyeKOcNLDb+2/LCeSjZ53tRl1siYKYlIjP2lGcVGGntoQSXr7yRGdpuCII85YvvefZdeaqBatbgsJE8iokRKV66BSiAXJbQmDLjFCWsNrKlC/raIffo0vuhwkbC5GUNCBtJLUlpsyYwzkrHAcYkG90ntnBQdWBho0QYExX0jRb8LRnaDuhrXCbRdlhMph/AkASHTwEYh9RPA1JA9eivTwsONg1j5Nsy1UG+aICR/qoCgr7+/VyBkY9OXFY9q/XwaGk23CUTTxrki1ngaPq9V2w48xFWGZHP4VgI9PJVqXYkeH9Qc5/N53gfcVmvWPdxicIm5dO9oDW6KjzYEYiXTWDAUcfVB8RxTCmqQ7LcEBxPChgpfE0U0QPJQWalTXshymhqZFmUw3Aoh7uqxdEt5UTZCnc0N4kF6w+GOi8Ff5TNIJtGvVhe1N988Fhl/KoN6vcElnsa4GQ6SWDEy+VaZ2eobLknl6yvRAHd7OuXjKcjZEGSZef9XpUwmw2vZiV22H1rfV0/BWCk3SNtkc3iPX0U70uueK27R1RKW+ip0S6D+JNKR7VjjPr5EApKVye5cNwXi/MrO75RvjY/X7lxYOT5Fcn5/rE4F7oIIn+8joIrIcd16xv9atOHjJVjS/M9VXwNbfjN7oHQnvJPw9eCn+Ymg79Ovwx+FZEUaM3uHGrF8/M6TcBITQW2J0Mxkhnfjz0pTfYknF3UH0JazC5gIfcl/AUMLouSYLG0C/jyqMgwP32ZGpuF32ID+vWFui45ZL8oN8Lk4x7FsEKNYvqzpbK2VAZAeRLA2KJJ1h4qXRpEGXZIszqs/aCvhsAIawhlWyZhw/lef7hwzYuFfizPjqcC9WlNmt3aPi9lF07WR0XE6JHSe1EJx0rau6Vb/URqUiVG1U/3xEKjlIKq/lYfESiLE09HrPanAIy+viTaDmHJtsVeXxYh8auIh3aZS/VdvJgbMT1uruPLt+w1ZJmNWodS44SKIRw8dmW6hick2zhsIQ6LxVDw5XvagJE6NvhY46qstK+xABQGq89E6QFcs9KKPZEccqyvT2wWQvm+YFgDafaD9uWRvBbKMCVwxp8UVuCy2PUJmTO8lrfEtATCE6LGJh3vk2QOeb/5SNj7PdJEX1X+bOR0WzLF0OREtpiXL3XJ/Eh7JpdM+wLA15ocTxZng+eipMc1gV9DOao/1iSfOavAiAkYwDjAOAgAse+8pv4J2WdREYhSesS6HSWdBDWTLPdTBcZ4O1cll8dz6N8mnsqmcS/48+UxuQ0Oxh/5Tc5RDv3ryE0BdEsIjng07Wtd+jg8KnQagZF6Hcoc+UE6DjAaf2FDuWF6M6GtQhckG3wubXOfZHa3V4aC9SsyYZEsAiy6KqVLldQum8JrjVCQnaFJyJT8sh/LXos/voQAMXKOaskFxsv6Co4KBL8avBz8t1t3RTFeCynXVpk8NErpkkXBJctkZzjECw9mJ4L//eKJhNazwZz8glfl4QErdJaBsUN9PayPBB8Q2Oc/yIwJM6Ur+o244SjbpZr+i32jzKVjHT8HYDQd9FLKkQO5CO7I/G2w/VJwR+B40v1pyso6Iu+8K8P+NsfKDSUAAEAASURBVGm9F3c2ZXS+EdpIzotYsht/RW+fVmCkdg44HgcYTUcBjMDH25o0A8B8IyDA/mmzxkZC+bFj2qzCTo2K2hiUPI8gnRdFhbQrYEOexjestBYm2mEEzyh+zou9Yw+NTi3WfpkzEM5qXfkDTusConywjIAR85xemTLg5TJ6SUoXyTqxw4NFRHNeJAIw7YeNXpOAHGXUtID71epi8PPcVAiMz/RVX6gBdxwYsyL3kGcWEKu6R0rHZaW7RVH3q+/xg75+SYopfdxuayHckcJlJDQgrkYtou2clUExoev6ZV+HpcJJsXt00OcEjLR3WfNrWVxUl8xzCO22pTXQoXVSNqGBxlQHtpgxeae4ByTWGNYYAB+mQvi0x5OR+seBGOXbV5LRY/PM8+8kg9yUCMyk0wyM1PEQHE8KGMnUACPn8XQguduMFChbkkG+FGgAcH2iAAnO8K3keV+IhR0RSZ5lPB7Pi3PstUIPGw0a9l14XCwIlCbFtj6RacEzyfZe6nxVpkX+ZCnGfgHjfS3yLwaHQ0rorvIKWWhNMp83hj8/yZ/1dYSFfqQd4P4pipE6zGyLhZa71bY+EKQ4MPI7bZrE1d8PGJEdGy4gqkn0P6z0qDTQxAlEyXZflPUt2Xp2y6OiVRrLVgn4qyTksK/Xl4J/G38qY+Kd4M/a+6S3vV39XS2frDI/N2CMz6tl9eeqzHwgElCYxEHL9JdPfLEhIFsWCwzFt7K3Lbl4NGdbtMa6IT5EPPRovNF2s/7yEnqBbwZGw3UOJzGjtTleA8fTDoy0KwTHkwTGqLP8ncaCWxH1yJ8JMtErim9erEBox6jFgowO1zuUNiaIaRb1RFl8kZo0aMgBkXvx/uTGSvgbqvKC7lObabH325LJmIUvejN0YWyWG+Mlsers2vaVlAjfXI4UCVBDZRLmC+9Dbfk5BUSQjFVfx59mJwWM+puZCH5IbHAUn8B5+We1+begGA0w0lfNKrBFfxdkozmoPr4n39zv1EdfDcojSFQ1irKyicWIcoox2pFyblF+9A+k2fzb5ItgUxTOoD6Ub0SptB5+ssvmnH7ucwZGPqsYcdPfcG0YbkONJ1el+Y05z56eWxaY4sI7I3k42ytgLgcVST4tcjfskdE+NpSXNU57lw5CoGxRRCTyMXnFR4JrPZozHc2jynctGG57FVxS/hsaY58WPv5u1vlJm+tklRP24W8FjFmVILJKaw1A0ObekvKDP9wJcS3rkwa0SsIl8bKoSNKlZgCzL7ghG7BxKYZeSnkzrjLeiFNoapDMTFTKLYHibZmd3BQFhDb8qtj8odr7ZcrFrgwWenxFXjxSuDxbxptHShex0FO6Hk9nARjj9b2kBXGFxXCpU6KGHskXeyRT7A3dJUckeuiqqHDBpGNOH0IW4LgCH4xLDv1YVPbPksUS7GBHoIn/7nHT5wyMHdIU98lk6rqcL7C/7dA52uS8NK0xGRcn90Jj8lJ/8ygLiRwlFn1fwEoiD1hquLrLEn0QSwCC4prW14jmSDwxgnGw5N1+UZvXNH++2NkKpkSVzmrdl93TxuT9WwIjZTZkRdfxabFNJeNHo3yJrsW7JP6U/xztMN8djFjnRW7jIog2Fw30fQn43767LuqxIbTmLyLh4yW0ihq9KSNtNKaw7Jw/WpgOml49kxxFpgUamEtio/HA+X+u3Qr+37HboWKIwLQoXcqy0XyRYV1eynTi/3/5JPh+6pXcqFaCZVGQa1IMEUHFpLMGjNR7WCzUFzLNIaDGH6SUwpgbWVaDqHHMNTDQL5vwxAAYH0nc8VDKsx8lcvhFtnnj6j+W0jX9/y7WX2XzTT73OQMj/TgkjuuGQOiOLEJG9ZHv0u+8hFwRYPy3yWcamzlF61mUh8tWaLjdUgs6Yd7HTA99wphMhDBFW9RzcAI90hW0xmJq+lAAr5zrIjxW5G6IonYJcDQZlzj+1sBIlbwMzG8FjFTgUN6mz82UvlZvBZBvRT1gF7nFvheiMqDkkHN0KX4dX8JmURl5YGlYUgYMhQ8LuUFsIVQeMkq8eBBSj2gSIeu8Ixka5H/ZBAWEIgFxAF47T7TI/6HF/lgs9TPJa5KpXbKZw3Ymb8Z+m3rHLoWnFTDIebWK8gUWuk191C7ZUof6d0DAyIcFuSKy3HuSMcJSVUl7Euojg8UOlb6CUnwuCvspRvzqKwOM5LmnRcr4mNBYVcoxz37uwEg/XBIIjUm8dENKRAJRZCm3IlZaZmaav0RVfyhgfKwQaA/CoNPA7LlgS9oDX/pZlCUKGvIgQMyl5vbQ8Byb46x1iX4BYmVJrPqsymDX052SXEISGLPWia+uXCvPwruwngLH3xIYfY3ZEGs1sbaqsEjbwWMNWJ9YXzTHd2B9FcjipqgXFCXxL5UvH3ONwepWHnfFImJi8perYyGFQjxJNNxcwxOnbELGOCnAxkPn4by00Dq+Un0ZdGLcJRML9rQDI3Vu0GQfEFV4VQqxO6IWobZvhGxTr+SKHYUUSLLdLBzGkBBtP6ufWIDInZblIbQianFWioI489WgcarZkyezKvW7DoxwYYTPawlZXXz/8Z/OSihbsIl8tCzF4cJU8OuqPlg1MVAe+BigeinxFApWuCzM27YPdmW5oGjuGWKwtoZmySovBYsdmwJTxRQQ+JZJpjzzbF7dzDPx41GBkfnkgGN1YCzXwHhl44bW8evRub4m6vAdUZABf4G0zEtB8LW0zZjHbIldhZV9I8UKC/aivACaxAYXdRhAyh/vHCUhBwNkMdOZ0pcWYPxx+rUULq+D7+dmDs1zknlHCzZ5Nf07q/6/BcVIbXpFKbKHy5WurjDw7LdSuBBhGmPeKobcRlq4J2XLghYP8qtfJVP8z6nx4EeZM02KDds9ZJ3duaPuDYMZpHun+EodGG0foZlG5o71BusjKf8zT65rfT0VpfiTRBxP9QF7LisSZIBZc5H34kCFyOixxri9YSEM3YeIpatFYcwy1hjyyn7NsSG5lyJf1re4MMXL4+G8uvkyOw4wkt8hOJ4GYPQ1kGvTGoQmCTe3DvZC/+pnYmOhJrGxG8boWOYlVTsuqyzfdewlQyVCTdnyXOW/FIuImZCxW0y+dxaAsUcT9orsQjHcxiQHyvyqqEWoxwF95fMoj2R7+c3Ha1wyK9hnLAaw85xYXw5eSIY8LWoxCxjNJC7LUr/Tx3HXMYsqsdISFTZlJi7XfhbnV3Z8owxtfvnl+msTv+qWa/M1z7QIeDC5wdQG06r0E9GTG1pL4zKjQswxK6uBHaFo3hpKApUpb04fvOca307JNononpWwHEHbTd1apTQtSsny8urmy6t8P7s9FO/fEBxPMzDS8B0thBdiXWdljoM2GH9dfJ3XRq4F+7qHTLGKS5+vM7OuIV8k4MUPky+Dv756HpaPdnpZk2uzZgOWfDfewcl78d9ZA/5bUYwjEil8I3McAml8qz1GiKDEojJx/DDWL5tQuLB52P+ZHJdialwLbznc5wXl1K7ALDJ3Ijc3z/gkJgxW2YRhStTP5d8xecfLNNfssTi/suMb5Wnzyy/X1iDrzC3X5ht/nkDRnZLLI+PLkjfyPB/8KYk5Xm2uBosSB2EmnhYKRTkngSq6Gv1PIOpxjTvxBzD2zkrUhbiRuP0SkDcysPM/nSwva5343z66jNHtX1GOpxkY+e69k/d65GVDlOF3wbwGgOjDhsrYkqyDYJsoVwjeiVAYjXMU8NM/gbI61VyHdYcKWsLkQAOPGdDfpYn+RSzIc4E0UZjjiYBPuyEDkzbwjj8XP/cN+FFBkXyLlC8oXDr1xe7Ck0g+ryigoLy/GsKg+3IIjFUULoga9rUwNuUfjshjQd4YfLh+lKjhF5nmvJYCZqXmDWTb7Y7HUcCCHLCBHVO0H6hHwKAMJXJYB7cKh5ejk9yb4SN5TxhsV9eEWlzYVBRNW+qHLX0gqmhnExWLOQ7k1UDzT3a7bRrnPGAkb4gKxu21ZMBbh6KOZKkuK52+K6cHvbsp2fJt/cWjTPmepebsFJnnWnpagJH6H7LVvsaYa9ZcJ39gzPPxY5GMMf5s8hxg9CWUNlAmmwLGZ9ryFE02Ebhva18S9nDBZIAwZ3GXPxQppCQo+a5jnvNUsrLHMjv5ZW46DJNGQE/CwyeBkTxPOzBSx1YtmjHJoW7IlvOOlC03a+5+2JHC6lTR1pPfvjTRKKbY6+fJ8pxki3OhGdO8PlQr+rBsfgRgpFyoS2Sh/zIyFsaKBAQaCdL6G6RzGfPRFK3Io+HpW0Wi2hcohrsk6gM7qQ/sWxRQApJs2srkkj5aiqZ4/bGtQZlgLngnRaBtzc2SJSeBKnk//ntTH8q3ObFVzbNNYq+RT5oPibnOMVlecq3Gn/Wdl//Yuv1o+9fNtRAcfy9gtOW6FebXvhQjMwpmwZ+8SYN2UQ8YdIeeNpqUyKSgLAFIM1GyOjp5HdaAeJGY5vxzekKU0ETwpOZ+mDexszo4Wftkedz/GBSj8QQif5RJ17VVAXtDfy0W+k9y02PDr6qACLUIe7ynhQALHX48ZD+KN9APoqrnxar5kzsZsyax4Qb8eURXaQsU7nfDV0NtugmInPfOSdwro0AwYgE4D5RSGFK/1kccS4CGzfNiXzWD9NHIm0fJutp55fZh8jnzG3guKw6xog7ztj0mgcre8Z8xdtkwa9+hj3wtSZbnf8rmkzzLmlPJ55JiHdu/6SdzwdEClK856cziV45DMdpy4zlmn+MWOCFtW9PiQuhhQTgwDJbHpGBg+9chAQNmO3lpVYJljNCfixJ9JnB8quP4ipQKknOS8iZ0XgfHy/QN+McARsrEZpGd/tAQEg5/TIoWZIq3UGSJcqwKjNgsYpozpaAGkzJ0R9FC6DXs5FBMHRcY4/2Ue67FhfjkdjAYUq/scQJgnoYUBeA9JwLxvWx1RTnqYwGQs1dOv5QWj0VlP1Lf6ctdqrp2XpVvHx8wrCqKEnORwLi+lAQq3zPxa+SFNrqIlecd+sZwayaPZHm+dWKe9R0/BjBSTiY4WoAqPzCm4r8lMJoyP2hmvhA1MyuQe6pJ+Lx7Pgwi8UcpbS5ebSkER7w3/veLx/LzfS4AWAtZww0JqpEVnTVgvChKehBPCRkDQyHelxH3mNhp2FGC9OJiWSWx4Jb0kXi5uhD8Q5T0DzOvBIqrCqaxG2yIitxOsdAmd3fuFE1iQ3mZt31HckTZgJzxg4zGSRlrPLz3e/1HW9hP6UpHj/q9S/a0nWGEnGcSRZQBx6MAI21ll8Dkdqm+PsClD1Ofbnk7rYrbMikJVOa67wi58V6dP6x8EG2hKS9K1A1PKPN9SJZ3WoCRdnjB8fcARltmUff67isCOfIgLZad9wfB0tpBGM8OZ3pCoX0tTeyA77XYNbxxXsis4UfJGOf3LHtogDGudDGv2QlsrviPvgE/aYrReLj0SiGFNp84i1CJRC1nR0eiHVUxzYH62JNsl9ByKFugEHHt/IdY6AdSuDyteVLEWwzkWqVDNWCM51N0DoVShkopyudj30craza0wk3vn/MTKZm3rw52Xrl96Hs2fg2i5K3KIZYj5SXDisWfxe6X3QpvirKdkJwYk7QkUMWf950TkXVUwHhFfvYYeONZlZeQc25LgYc8lpQsz7dOcvMr3T3ug7Z/83L3gKMFKTfD/Gyiu0elGG2ZZUpJPmPDjsXvvNzeFsO1ELLXZb6kGJZvCgh8wEi+Ruliyijbwb4BP2lgpE4oXG534lOrQBoK3EFIMYJEYPgOKBL7skoCGDHgfiDjbQJ2IGOcFXVN4NJFaTl96bcARl+5p/0aIgy2RL0oK4EiCYCdV9XWH1Q5ERYPNI/5oK3Jh7lb4x5XSsb7qVOxBdjDGk+ZA3YR3LKjx3PAnN3hKHozfs3Ma1x6v5DIhm13uyU+yEoA44bqtC65676A+H1CuWXyy3o/eb2IC7HPu/1o+9c+kXV2SDm6AOVmmPVy/PppAkZTr+cybiXsEn7aRQlKia+tSYZiNL/jx7Id7BvwkwRGqEVSq1ij6/py32Ofm+FoC9Qv5RPNJu5VE8qEXVEeU2L/oBL/TcE6nominpHWNVuuGC/FnTvlJ3E8j0/vvCO071OwjtqY+Vpo55Xbh75n49fifbyjgCeEHkM+3Cy3vk7tweTLjQAiGP5DZeItM6cPHtHpTUoCI9fNNTOvCffHvkF3Jd8nuhU7TmYllHjsGkqwCkx+DFvN8ya/rHeT1+PtTd5zf7stt/3rPpX1KwTHTxEYTYNhM8poQRms9zUZ1lkAxiHJ3YivCGUIVYLiiUAR+EMTbagqMG5ogSxp4qLxD42DpZx6rFBvAKPfZtH0cPzoTsbykzieR/Y5Eka3hOxnT9sdxAB5MlW7cKu1MNnH2wIezKlmFWC5Q9ThJYGgL3UAjporJFhdgrG8RNkm54a8ZICsXwrO2xLVEJDkS8X4vNnVnyu2CfezlsH5tDyn0OKbjYlNfnllxu8l2xu/5567/Wj7130q71fDpwyMNDyyqXI7ytchoYmBTC7ypkbZDvYN+ElSjGhnrwoQ0T5/pXBibOVwRSw1iwFZEltuVkm7WhiEoCK2IuHE2FrzhYISrGqhhHKiGEWRna/bx+Unsc2xzEfMPn36zvLAGy2tT4fszim3D4tamOxj5i5Bg9kmBI+Vy7LSCDJ2rSAq1UXtxYQS5UCcFUo3on3vyEqDrRZ8ycxrKMa7siX+g5R9fxy8Eu4XM6otMvJqDzv9ShYO+NtjLwyNavLzleW7lmyv75nomlsTt4+z30reOWSrj/JNPo2sdLKBeV/r5LN5v8t2sG/AjwuMgCG2nESuadMEHlWwUb7Y9+Xd8o2UTV8rKncVZQuL+I1Mc7bF6uCvPruxESqjHknRQrzFHwWQc6Imyid3MpafxG4JjJXfuCR6jlKoOzaEsINEDdcresct38314/zCIIWETI+NpFC+5NUCYDwX5yV513nB+UHWuSmrj9c1nhjnY+50q2vgMAq4LzP6G0XKltjiA30A+Y050rje35em3TWRon4fFCT6gvzxu4KvZQHxVf9IcEuyxiEBcV7t+eitSt7ILpzjYbxTYjr6apR9Lau96Tfcmrh9nH4670oNHN0M814w984CMJq6HvdYtoM/BjBS99DIXSw0ASLG9MUmYnkYuVzsM1GZCSRaJQGMc5ubCrW2GIaFe6Fgp1AbC7IVnZVmevl3AMbS9ddCo65ElFnb3QsNno+lua4+9cOqIpslYcLyhQDiamdv+Lvsf+6cqlaJPKBYlGvtBVFozImv5RbKhll5e/JQMhthYThOAJfbYrVRuhFWjs25sPgAx5BfonwZ0CZoA9Jy886Qdjck7meW0sf0BTafa1L8jMse9rGCXcxp07vzGkcr4TdP+o957XXfcPvR7WP3yTK/BI5uhmVeqgNjupc+FjASOWdYC/C6bBbZt+UPUrgQa5GwVATudb/u6Xolr0QBItbDOIt4tvxNATWeKPAs3htbWghm/5jke/7f7twpP4nTuUEBlkmwf2jOf5CvOyB5QdtdsCueP+XRof43yl7FfRLqkbiJRNuuAo7uoi3Z8FrFivp4QSzyuqJYoXCZ0q6OC7JPvSw7y1DmmdE47EYxOcIOFvnhqhQnWCbMS265LasFKL9WmexcVT7X1d5u5Y0bYBiDM2fgAFVsGhcky8YxYwKZY81M7rQD4xu8mjL6K/PyWQPGalPPbbY7id178V8fAxgHsVcUtTjChBSFeEM2i1CLHPlqE92kbGKSrkprP6dFMyVgmZbNIt4tBIp4JtvFhxLgk5Ltde0Ww0di/7k9W7RoYy+mTqNy3fxSD9Uu0Ba0sc+WFYNQ8qsGyb9aveCYn1/Oms4o2uYH64kCA9DABe9Pw9cy3klfdt0QbZ7pJ9NXivrYzEMEIgsab8Qk3YrSff/gshwCenPNuagJXi7hPjGK6oPpFxGadt9FOmooR6hE5p4vMS7J1iD+gCt5qEDHPyng8WJt50Hzfv78OrnoOqa8skeAkVQJHM8aMLrKprJdEz2XBIqst82EjN8vK2Ns1Cp7k7D3IrpOs7wOrmkSomi5p61ioRhx/0OuiGcDX+0qCTtPYiz+u3b5e6RAvZjpzMsOFFu4NVEGJF97/WJ5nnaXQdGi5Q1fsmW6+fmePbwmMGL70ElRIf8pcOxQf3Sn+iM/v+MCI3Vhg6gLqgtU1GaBhtfUHVC1yflhL2ecFfVxch6uiHVFdoxceeftvqjb8rauKGb6xK1cEkiyZQkJKrFR8sas5GsNWun/nH0d/K9XvwZPtIneUiJSfvb8+v2BMWxzVmOT1+vAmOwRICI9JcoCI7kZYAQM22Sr2KytHFr1N6gvNAqXby+Phnto4wJYReES+tdK1sT+4NtvZNgu+SKBNH6Yeq3tCuaC12KXVmI2nRak0m1MX3HbXLRo0+9HV2yZbn5Zz5vrLFXsVldqVEgYMssJeJGfny3X5Fh0tPkl28riXhMwxu1js3JzGXybZ9bz8evJcuP3OPfNw3V9EJ9K7LD//o1sHZvFMveEHjPRB7YhVxyDYgYFE39HScg5+YA9kVz4gSjGH2UFMR4GiSmXW1F7bS5uP1YfW5sTZ4ZiNFdLUY51YDTdZY++CVkFGG1O2vdDfsLRtqfd2pK2V3uA9Iid7gllRezlXFXhQixKIpfDOuMSyT4uCMOn1tfle66QYjVgrD6Z3MlYfhLHWxunUt383Kfyf0X0TPKZ/PyO096stiY10MkapX/n1zH5fFa55jnfPOQerPU7KUIw7n4omXLThcehDes34kLYVhWTr4+VJmQv+fe5ieAn7U1DsI0kxZhXblF77btuP1YfW5sTZ0lg5FohOH5OwFiW3fJNyKMCIwoVttC8J5tFwol9N3I99Inu0NeeLzgbGPnKY/B8icjlmHI81MT8WX7iBIr4pxbHvNgrktFrV59M7mQsP4ndWtpy3fzcp/J/oVlFvOCm/Pxsue5b2b9sfnltvSCKv7xSzOaZXa69k1cuT+XNC+O3vCkq+5nMZ9gWYV4fRlJXU5s+vJ2FWubw4Yr/bb6JKMb/NfFU4Dgrzyq2YPB/ypJZF7XXPu/2Y/WxtTlx5gNGrueC46cBjG5H0ujjJN+ETK3TnAKQM3YqUvlFGd+i5Rzo0N7QsjNjQyuMum/LN7rKplYUtSPB97oohAUpVmYEjOMy4IZaZH+QZ/KLNsDIsxgKV59Mbh+Wn8SUaJMt183PPnHUs/z8bLll87f5HbWtZUvKeq6oXN88NHkZYOQ3n0TGn61GAHH2mMYxYmynX5tdsauktjyWppoP8VFSGDRXH2TsZbFlRJ79/ewrBUBeVJSsdUUKL6eXLmqvrZtbz+pja3PiLAsYuZcJjnVgpHtsypqMecDoU7i0SKjdL2E3WxQQHAKH/TFpoE04saoBIjDNmZcWOowoJLkiCpcZTco1yeTWxF4vOPK4OjDaEc06s4uv/ILNyuto14vKzZqLlBYHxnjpyGbndralIJkM5mTL+kXPYHBfRtxEhb9wqS8MAxd/vuw5wSSmZfYzLuXYY2KhSs44rpB/U7KVPMvASPu94PgpAWM5gj5/KmRNxjxgJEejcAEk8dMknBh+0FclU2QfbmwW72jHNmwWsTMrmwiSgR84rmL4Qr+SucQjCb2x/ftJHi4vREX6UvWvrAUK8itatL4yuWbLdfPLer789fz8bLllc7T5HbWtZUvKeq6o3Ky5SH5ZwGjKQsO+KBZ7USC5Kc0xHkZ4xrCfzFXcT2XLGCrzxAZDZdreMDlER4y6D/Qu1OKcuJWJDZmFiUvBXOeROJUpfZTJp0wqaq/Nw61N9bG1OeVRi/YpDziefWC0nZjnJx3vhLzzrClSBIzxPIfaWoNrmnwoWsYkDB/r7Q0n45BAsU9uXhclX6yS2BjpOQF99ZWeXJPdopz5kTO+kv3ibOjUn86tTd2SZzqRfsP2I/fKT2I3JzuJ3fzcp47yKz8/W27ZvG1+R21r2ZKynisqN2sukl8RMJoyMc2ZlQdUo+xd3wm/CFDx89JM0Cf2mg80G9OF9o7SVDfIcsLIU0ObTmWCJnpXH2UMxWGjVxUebVlgizxzUtTipwKMYZ+aTuP42wNjNCHzy43X0D1P2zHaCX5agJEa90rOc1+bf31z+Zp8oUfDUFEYcZf9usZbjcIFLfS/K2I5pjkEoZ2X0HtRE964tMWf5xyg+LSAMdlC93cdGN3+SP7CdY/9l5bkrdIgrqNVop6Lsm3Eq6ZXcnBsIglMQQAT5JOkd+JU8HYhUC32sXjQLMolcEt2slzb0/0DcTRl3QKLPgRRne16jn7HuRBzpfyxLMVocjxkq/MBKl1Jk0EaoMydomOUZ3652Xmky7V1PE3ASAuwF7skV79BOegPyxfaeLeYr3J2KzHHUPRksUAY1C4LBOe25Fcs7fM/ZyaDX5cUTkxf/rWan68vn+MABfmVm8Tpkm25dlzST538FVtu2bxt/Y7a1rIlZT1XVO5JUIzxsongTUDFLbyb2TGwFoXnoqjBoeZtabNbQoUhNrdmnxk+5HgDwYKjkZ4RtUj0cFJe/eLlcl7UVvu8HRdzrfrYmjdVruuaZG/knIXgmA9Q6Uqa/NIAZe4UHaM888vNziNdrq3jaQNGWvGhpglkYyHiS1ZJBC9F2P1M258+mtd2sXLFmlYUnSUpXDZERe7VgfGwO6svHjtvyi/aw+JO5KSo3DzgKctKxytq8vOVy/7V2CTuyPynSY4J57XQbMSjaHdB/MkPBKgbAkmSyS9eRta5r0z/s3ZczP3qY2vePBow8nZDPkClK2mKTAOUuVN0jPLMLzc7j3S5to6nERhxB4TtwNRmSV/bdclohiS3yYpkEgKozB/COIqaqOz291gyIfbP/ocMa78XQOZRiqbnqk8m24/kUX4imxKjoy3Xzc99KuPXEV4xOdlyzZWioy3sqG2lBJtLUXnp+0Xl5gHPUYGxqMw1zT3+fClZZl79ku8XlWufT/do9bG1uR2FYjRvH7LV5oI9pitp7qUBytwpOkZ5nlZgzJrqVZQv8R4AGElLCpSAmcMFsSlESLmjPV6y0q4oRSI5TxIYVLaKyBcByCn5Er+S8uVTBcbQ77icgjPVddUXj53b5RdtqtiYFj59r+hKUbl5wJMEqaKyuE9+RWXm5ZMsM69+yXzKl2vHxeRRfWzNm0enGMmBcjPAMV1JU+RZA8YaPpnqVz4eFxgpcAKbw0WZToht+UJbGfzx8lUZeqf9Vg+IsyiNH9Fyvp9+Gfww/VoguSoZz762QFUoqowverxR1SeTO9blJ3K81Lig3M3Pfcr/67DM6q8eAaBsIYfl+quVe7V6P0fZvVfxReXmAU8SpHIrWbtZB8YyvWSfMWPrAUc7eezj0dlZA0bTyGQ7yv4+CWA0ZW2ItUbD90reK4Tbuq3YqJ3NbaFnAhpotj+dl/H2a1GMz3X/wfyk/FLng+dix5OLBYtInwihenvdsS5atKYtyaMt180v+Zzvt1NmRcrRluvL2XfN1s8p1/dozrV4uRWrHO4rnZN1aqzjz9aBMd4b2efHYaXjY5sARzt5kkXXgTHZI/7fhpX23d2WoBtPlv8z8TzcnvIr7RCIJhsD7v9UOLFxgeKMtNFz2jWRAKErAs0kMJLvJwmMNCx7+nHXSdU5gijz44AiFYgvHlNhKXFLJR7DXjAr+cbaPFsHRtMT+ceTAkZKiYFj9sysA2P+gJi7ecDIM7uiHiflWtXSMKl1pbBQMrhtU0Sen2ZfB399zRaoi8GklDbLFTWB7oI1tck7umN9VMCw5br55ZVs7nnLzMYN89oRjx8PGAG0skB9XuYkTbAjHguDOjBGQ2vnVPWhPklgpPQaOGZP7jowlhukImAkl30tCvbtJSFfXJTihRD/eLs8UzDaCajFmqlP3mIJM6j9V30yuWPtBal4ARnntlw3v4zHDy/nllctq8M880+iTHPLzc8gvGvby09b0cjNzv7Oyyoyp04/mzfWdYoxr0ftvZMGxl2NscAxPVimyM8NGMtSAKZ/zLEMMPIsRrSLYpUJRDotYPzn3ExIdRAxZUssN3ZmpLzFEj5Q+89dsPE7WefuWB8VMGy5bn5ZpZrrxeVVy8/km32M8isuNzsH7tj28sutY7u8SBq1j01RIuoNwYx75Co6XzOejnJz84vnUwfGeG9kn38MYKS0GFvtFv65AaPb+vK/ygIjObJ51Ru5We0KBNcFhqSDxNqoA2PYLSfw38kCY4vArR1PJ4Fhp1zrWgR0bCPwlbYoZa+VotSkuI/XLvUGfxm6GlyWH/y2AJK/VdmyrhJSLCGLrANjUY9G9z8WMJK7FxzrwFhuYKoAoy/HOjCaXkl8IczlIx9PFhipBsA4JtfPLxV782Z3X9AvV9A+uYQOaQ9nAooUJULR/eXyWLhB1aKCNOAQMK1tDB7I4+mB3EHZsMskA4zE6o5CFJs72Uc+qsehkE2ZpoSyH2meL19uepxdqtyUXu74MYGRGqTAsQ6M5QamDozl+ql44aQXTLmcs546WWCEYuwThTik6ElsL/CXy9cDthoAEKEYy+6ZjVXCbb3P37ZEK/My3WLvbdKWKMfzMuOCktySL71JdWA0PZE+fmxgpEQHHOvAmB4E35U6MPp6JX3tLAMjVFuvWOgBAhMr3NxtBYe9pSjtd3uHtVVub7hNabLFKNuTUG8U8PHrUJHD57sOX+9rv6jwc4vBS/nQTws02UN8vaaYO3wo46ROMWZ0TMZlH6WK8sWXDsGxDoy+7klfqwNjuk98V44EjAm5my/f7GsnSzF2SKY4ou1xb4mF/tPw1eDPl8e0CVq3otVI3qhtLnzJt8R813iX7U9xJR0Sq/6d5JA/i73+q8LQ/XNuKjin4LHr2jq3KNWBsaiH3PtVgJE3w1H+VIGxitzE7Ub/rzow+vslefVIwJjMpNLvkwXGNtkiXmmP5IsoXL4buhLcU8T2KtHai6pvtj/luTbtBAh7vis30TA0mBR3O3IXnRb7nZXqwJjVM+nrPlDkqSyK0eRA9P4jpujF3zqIRFZDk42oA2PUI8VAley56Lft52oTpLi8nPwq21LZvIrL9bfTXKW92Cx2Sas8IEXLXe2t8l+v3Aj+KKpxpKMnuChW+GMmNlX7L8PXFWS2NSxmbW9P4ejkVy+rhqTssQ6M5UfCzmP3nSJg5Gk/f+Dm4/kVTco6MHq6xnOprpWmUyyQeboovFT8RPxN+/RJACM5Nwsc++XvfkMyxnt9w2Knr4emOvFSP9Y5rRkWG98p5Q9BjdnFb//9G21jYIPKUvZZBMYsgCrbl0dVvmSVWwYYqdsRwDGalHVgLDe0dWCknyyQZfUaRCOxLMslm99JAWNU7jlRiZeCP2gri6/l9z7c0VmqOkRb2sVWUWzxjrYNeKvoSbSE/bWbay6ibDnQKvbZ1jzKOqnEQVlzS1Trf9m9Kkr2vDwNp4MFabJJdWCM+qzM/8cGRg1URXCMhvasAWOx/4K/uz9PGWNy+bp9Q6A1a5EX3csHqPz8yCFrIke5Z/+fX272e+aOW+654ILg51pnd/DnkbHg6/7LhyyueZ5jEsy4tintMraLRFbCPRSQlK2/dpzUviwtLcGAdpwc0B7R/W1BCJC8k5eudvYG50fPhwGRMfn5WeB4HGBM2jBSNvmVTeX72c3T7d+ypdnnfjeKsdaMCuAYvXHWgLHCHLCjorOzAYzuZKQB5Sey09ygTVROq+RtPdLGdmujJTw6trTIV7Xwt+TeuC3qCGXBaQHGo46rabW7cKN+HNLGUiPSIN/q7g+3yzXPxo+mx+mLHVGLq3uwwNqnWX8A2ZJAcvvgTRiarPn8hXC/IPYOGrrYKQ+Znoh11i5/DecbwiaY/OJldKseeOAs726JkpWRuTZRe6EI8lmh6uLvJs/rwBj1SGlWOjYgJcExeuOsAeNJxmNMTrq8378NKx0bxVpljgqMAAWmK9ekob3V0x/cF0vZrV3oJrXH8RNFMJ/WNp5ThFETGMRTfnnp+sXf5dwFqOTdnN9HZQVqWbrlngsu6UPQK1nfLdkvAkaX9HEoSosCwl8Vb/PF6oLC0GmvZoWaW1NQ433trwKbTWiyC2EUngtBq1hqAJK+vaso8De7tD1vV1/4Acoqh+1R+2RjicvhHcUBbVIk+FntGJi3Z1AyrzowRj1yFGDkzRLgWAfG5KTL+30WgRHZ1mhbpwLwStalKOX/beyOWMFL4aZeyMCa5huDbcnS4uD4uwFjXueXuJcERl6BWh6TDeMdGXpD4QFMeQnWekJg9cPMq+CnhengiTxdnm1tKnDIBwH+uSD+tvGZHhO1OC0AXRWAAp5sfzoodjsvdeqdqwLHhZ2NYE9a62X5YfvCnfnyqANj1CtHBUbeLgDHzwcYUQbAKh0nnTVgvKYIMbjFXRa1dL2rV+A4GHzZPySqpr9m06ftO8VavxFbzQJ9qUhCsNWfEjAy3h1NjaGs8UYPPtOdQZP2cfYl9gXflYvfrCjpRzLafrg0GzxiV0gB49va1HnjET0AVJMHe9ojejncza9FlOolmezwCiDZLNfCaKW5pbYLtC/DjksGOasymkTJl0l1YIx66TjASA454Pj5AKOZcG+PAY6nFRhbtOz2wmVoWhkdey6cD65LBvYv8hW+Jzb6uigU9tTuk+LgoigWUq/Ovx28Ik3s23Brh86GpWBOcSizk2+Ju0+7lJt772P+cst169kmEELWCKsLKys9s7cq2/pQvFxbDCO3/2NW+4azjUUMGH0vxYFqXFTjW8XuxAAcZc3e24Pgi96h4IpMh3w+2k2SSxLggo8Xckizh7SvHHMtXp65Vle+mJ5IH339ZZ7KAMfPDxiZeHypj5JOKzDSljgwdkkI2y6WsVPRx/tbO4KvB2TLN3JdADgaLsC2JjyKbWrU8yxMotAQaOGG9rdplPxrWdSTYRft0y7g2Ov2zAUoe92cVVnE5p0yR7fcdD1howdFoV3p6BZF1xaa4PjyRQEzLurv4cJsGLX9lYBxJ4fZ8C08KMgW9WOHxBWNUth0t7RLztntK05xIiULJfKPALJT4Mg+0nnJV16VPs3nCOIlu/Vw+zf+XLnz31srnVVLDzhGDf9clC+mY1okNIdy+lJ/j2t2ZeZe3vE0A2O83gDjHVEoV7u6QkrlisDuprSytxQlZlBtTgJj/N0BAcd3kkW+kf0eMraHon4ACpvcxWKv27MyC6i8naPNt+jMLddfzyaBFKDY3doWIGPFPtGXdiV3xTj7mWSMk9vrwWZOcAgfUJk8VyQ7fCkWGa+bLyTKeBdG4kmz8s2iHFEO9Uj0cVHz87yX+Y5y9ZVXB0bT4+mjr7+STyXA8VxwVFAk4/SHzU4y36ZQpjLuBDZX08eswT6qVjpeQoe0lURb+bJ/MJyCj0oA5FkBRtp5WeziPbXtK1GJXw+OCBQHtejawwAIDZKB5SWCLdwR+4dx88bBbvBCe2lbmx47xll5HHd8s/Ituu6Wm13PRokYLjYriK2AyMfemnIOJHvFXGdcypi53b3I3MsjiilaeNvKZ1pb8HZLfIGGO+ujAPsNVQtAYkDekAHavvKy1oppS/xYpxjjvWHPY+D4aQIjk6SIHaE7OmSse7d/ODTBGCIai/aLRgi+srcdRmteiQUj5fnTDoxQit2iNi5pAUZmJH3B/YHRUCNN+K0RaWez4YIW2tQg8MDukf1uYAUtBVOcgwtQNs+PfeaWm1/P8xKptAh8irTUb96/DTZkbzi7o33IM/YQ9wFVsq17AtRZUd5Du9uyAjgIPmAxnpMITAF168NGX3l1YMzuTF9/+Z6mD2vg+GkCI41mQp07l08Z8Vy3fGq/ldvYFSkp1vd2gyVRCE8UofmH6dfBY22deiA7v63agjjtwBi2R8B4Qxro74avBH/QH0J/hPs9Yh1RuOTDBTnYtCfbvVXtn72kPtgQSxixgcU5uABl8/OfFefnfy991S23OF8CTiBfLUpYM7CD5EJti4vk82UXnnlvSwqZA/VtUWrWh4kPFH4t8eQrrw6M8R5yz3395T4R/TJ9KHD8dIGRpr6T+cW+Ix/zdYeCDqCk4K9me0a0Zmz93uur/kEyIdga9pKel8byQo2V2hVDZDrSn6u96i5Ye91/5i4CninL+vSLuutvbZVyoSukhP/1ys3gL6NjoU0dbFrZhC3eG4HA5pu9YFpU9EsZO7+WImFV1M7bAkqHMo7SXuinD+fyqaii+rvllm9vmb4J6+dho6lT2YXn1l/1K1HFczImT3aLr7yyc5E6lJ1PyQq6/eu2psyv06p8MXWP92HDpy5jxC6NLVDxf60Sjw/B/PWeXlFJt4Ohzs7gpbwgJiRrmxRQTMjObUJ7gMQ70nSuz8Wr2oRKr5YyExn3v5vYxIldHqvZLN5U5GpYaExyyix+0waAETe4FysLCuW/EExKQ4sB8+zmRigr28hgKc37x22vyafq0S033Y9Z+cmfJfyIZt031xnvC6IwMfTGntEkH1CZe1lH8sI6okmeSUXpjajVuJmZrzzfXMzKt8x8it51+9Dt36zcs6+fJWCkFcUjk9HWs6J82RIbOCHf1OHORRk69wWXZBJRNnUTY2+0PbgjRcarlWXZtc0GD+dngsa5SVFP74MZsd9JRVPyd7UJ5U5G6ll2Io/I3Y8YhH+QXeJXQyMKtYV5ziWxY8UihXh/0C58el+tLgZ/mxoP/mPyRTCuj8K6qO8dsYA7AsY8Y/mjtveDml6BsI1XOTx3y033Y+qF2gX6ly1z96QkoV2w2FmpQXK/DgHaFYklXmrsST6gynrfXG+RjPOSzKaIG8nWrlCGeWlPH3gsBQh74SuvDozZvefrL9/TyT5kXhwJHM8KMNIJy6Lwflboeb7zyBKhqjCNQLmAHCfZKfGOixbKudAWraE3kvvgzcCEHhLLPSubvwXF28MlbF72a0nbP3fBxnP2nacXSB4whv7ANYULhstXZSv3pewW7/ZdDu70DZTaES9ei02JEdCcLkiLOi1zlRcCx59k6PxIhs7PJG9MslcnSSHntTNex6xzt5/T/Zj1nimXD8KO5H9bGkM0w8wVXy7I/pDbjslgHN9pxjxu0JRVTvw6861L4pvrUvphhI8Pe94cBLC3NDb7Am8o3GTKezf5rGlv8nr6t9t6t3/TTxddOWsUo+mnyuB4loCRQZuUYmVP1M/Uxkowq0X/rZQT12XfN9x5Kdw9rrEkZYUd4KhY1i597e8pdD6BB54vLcggeCYMzvCW7TVjYe3jE8oX5sudUO5k5J4ZIPc5+2tQ1AsKl/vSsN+XaQ4eLr1auHhSdEm5VCUBDq9FHf48PylPGAVSWFUgBcxVJI5YCNuUrt9JUchF7SxqR7yf/ZDmzyFe7oGosk19ONcU2AGtPDsF+shYPor08z3ZJu7rndkV+ToLvEzK2krVXAfIKLdDc4kgFwShGJKMuyGDckS8ATCu7u/IbfEgpHBNWRzrwBjvDff8OBSjyakSOJ41YCTs2JJYkiXZLE6Lgnzz7r1kN++lcd2TCcV+sNt5ILCT9raxJSgCSYIz4M3AH+mu9hTBe6RVE513icayL/ncgsq7WJvssGuhL7Lpbe8xDTzxhWteMW6AHK+2tQV35LWC6RGxB/9FfwB32cRypm7vtfiQZ81KnvhQvsLfz7ySa9xc8FTgOHEI9On6JctxASp5N/nb5pdsZwxnki95f7vl2ny9D8cuJsvdVx9A/S/sbmg8G4PGFnEVHva6FYpP4IiSakPzZ0HKqZeaVyZlUZFcN8AIxT0sGfCtbrZpHVSMR8mDM9wVDzSXViXiWNBHijn7zuJwHRhNp3uOJwGMZFsaHM8aMIZRlGNsyIbYkvGa4/68FAsvVxZl66eAC/IQIc4eto1V5JF03rDYq2/ejoaeDkRzuaetNWcFxAsyeVmSZntaC46vf3ZKL2hY+Texept3WwS4d2HF5NlyTbJTqMYbooBv4OGisqskqJEFiQQQC0yrviia0EY/DylG/f4dgJH6e/Aos1n6VsVSuh9jN53TJDByE6Udlggz6g+o7p7aB9B5UT8IPYajAB40+/KWwTe6RZT2U413XGGSfM8A47AMum8qmO63CqT7lUQghDDrEVudJefckx/7rDxxsBJYxkpAH3dSnWJM9rD9fVLASI6lwPGsASMUo08+My3Z2YYW/nOB2CVpowG3rwZGItc4gWdTw0BosmO7Ov8M8x72Mh4SBfmNFCFzWlxPFKXlp9mJ0EbyYOV9MCGA9Kf0gmbhZqlPBsQuE536X6/eEsU4FIxqkfVKdkr4fTSoVdK8APGXxengl/np4MH8VOjxsqZ+wYaPwLZRStcvWYZLuSXvJn/b/HwAlXy6/G+bb9E7WeXCss5J1jolS4TLF7tS7KvJF3Z7qF0yZ4372w/SIOvDd0Eufm8+TAXPJHv2JQOM3Lsl6v47eSj9SaKdL3uGwmg7ebVny4WJ0F1xQZ45m8G+yqwDo6+Xo2snCYzkWAiOZxEYk91HQCiosX2x1PtvZaYiSiEQUK7XKCSE6+v6TYj7EYEOCg7Mfho18fMSE7tJC6anlb+2oP/iRVEXjaEL2kW5IxKPr29tVezXVrAqbe+2wCdK7pKIL1oTKKJDgNdXU7ggRxyVwuVPI1dDmSmBIADGsgluDI3nllgzWOjHi/Nin6dD4/YHYqOfpwDcrZ+vnE8FGGnbpiJ3TyuSN8oYQrfRV8gesxJzA+odX+vzougxIO+TudOG2G0S8wka75zIWyQszKNB3DclirmvD9wtySyJ5VjUyxtS+EwKHF+Ksp8T5fimhH1pWAH9F59T5pr/6Nai2rimczyrypd0SwrA8VMARhrtY1O5vipwRAGxInewRwqogLLlmhbHv1yRHE/bcrJdZpWECxrvE1CAmIj3RZWOi0p9LKUNm7X/KuoEpiiesibxgBbgPZnmAIRjYp+v63hV7D9BIjrFilVJGMLDOv9jThStwJDFhsIF90g0rm5y6+fei35VW0A2v6y2+soovmbzLXq2qNxVyQ9fCIQwe/pSAAYlyYctL8EO35PMt6/9YsgeYwPKx3VdHxrYdNjsJllDdLdclNijQw4F2iqhtVNKs4tipbUNgj58RQlwnCAau8brtRRG8SC6ee8Wtde+6/ZhtXG1uZizTwkYaVMmafSpAKMZON9xQ5TchgTqCNVxCeyWHdsdySFJGE7f6j2vaDWiBOV+aFhXdzq5uXKP4AX8XRVIjvUo1NeqwFILgSg2mGUsi3rbFVjxF5/ERuFCjgOSTd3R+4QSI1DEfWnHCZefFznHrUn0C3knVNCSWDK06v8x8SL4WYqX12KrX6se6ZTXuujpagvI5hdva7rcj3elTLlrosjWBD6tMu5/LasGtoXAnxkZY1YgCvywWyUDRtt8Sx/Cdflcz8mCAQp0U2MN290ic7HLemZMHzZCxOVRo6YHoDp5d0lzkm0qphgr1Y2UF0nTvF+mvdGzdmz4XW1cTWn2+KkBIy3zguPnAIxmWON+0qsyz5gQBfB3yQyRWRL8tF9ffVwKw6+/ALNNVGGZhEKIHeewpITJapXx8F3thYxcEmUNVNu0omtPH0ior2d6xI4PiDUflRwUBRGhxNi2APYN+WIVYITyWdxCy7kRyqxei3p9Lk36Y5kbvdLitQqXeEvcxRK/Y86rLSCbX9kFK1w40VRUblJ+t7K3FzxVH/219YVY7b3gvsaL4L95Cc8jvKnYgrVZ3i5Ed8JmEpCDncYaAgDNUrok84bifCZvrJ8WJmU9MBHM6MNWNhW11+Zjx4Zr1cbV5mLOPkVgpG0pcPxcgdEM9LKoyb/LCwZbv2FNatjaW/KQ+Vos8vmB8wEaxzJBCsL8tHC6xH59M3RFQDcs9n1LLO2SFuBc6GkTzAeiEtZDs5FhURaEFPuvV28HXysABjIpZFtQrkWyT1N3jlCn82Lfn4RyxRmx0pMCxblgSewemzPthbED429w7i6W5F1+V1tANr/yC9ZX6tGvFZWbBEZK2tXHkViV7NeCRh8ZZBE4mhrCWXRK001UcUykSHi+wHVkxYc078aP2Mr+LGD8ny8eBY8VN3IuNMCPP+E/L2qvfcuODdeqjavNxZx9qsBI+xxw/D2AsaKi1YxJeDzO9qlxitFkGmoWBS7YKvL3VKwNFMS2zt8JNNFOriqEGbaORLYJoznnCO6ZhthANkoHjWYbpQ2h0dpEJeKhgznK8GZHyLIju0KG9UcpXe73j5RiwUy9AUTY9k2xdmG8QSkHAOBHiib0T2mkH8lPOju5i8X3XLUFZPMrv2DFMqoNUFsnkYrK9QEj5a5pfLel+MAo/GJzY0jFM26YaQF6eR/FcKw1mfOeyWvbgeYXxt7PBYg/a9x+kdXDr+IuyqSi9to87Nhwrdq42lzM2acMjLTxEBzrwOhOHDMBZmTDhnnZhiiv1/LRHpVMkija7AqHGc8VbX5UJWFDR6BZBP7sW4LLGpQhNpa4po0qtFgZ2VS8TCIIvV4XKyalz2OF8GcPZTaZx8NlTgsuO/nbHH++2gKy+ZVfsFFp8wL3A8VL/ICT9TFSUblZwGiKJPDskhQ0z/SBaXr9NDTA/uPw1eAbcQ69FRV0Js8yRz5qf5sZD36Ul9IDfdAWxeKXSUXttXm4/VptXG0u5uxTB0ba2ZAGRS7bjswborId7JuQp41ipNW+NCeqcU2a3WmBDRGw2Q3uhljtpf6tkNJpb1QYe1GEZROUJJQIpjhotJExsYF7i9h12+vlcoNixF98ht3wFuaCf594HsqppgXoRM4xZkH+3IpLKzu+Uf42v/IL1tZsFLmdzKLOJWNz2UcKz4rK9c3DeKbGTm5HFOS4qLZNyYMX1ZckfKD5iGFXmqWkiedV5RwZ5Qtt3PUfCvTxt9nXwYzEL2uH9qbZORW1175px4Zr1cbV5mLOPgdgpK2HlKNpeB0YbU+YMz4Q70TV7Oy+DVlrWCDcDwEmFCwoTJBNIXzvkpyqjNIG9quxwFzElJ88Uj4BIigbO7gJeVA8l6wMhctrXd/U4k4uHDdQhLtYkvnzu9oCsvkly03m3aOPQ5dY1TZ9EJCntl3QucQMKKHYT4Ud946SisotC4ym7E19XPbFLSA37JIMkI8aHjQjMvhHHtyrsa4iCzb5ckQ8A7UfRplXGVOyPf1Jxvi/ipUmFsByRjDdeB5F7bXP2rHhWrVxtbmYs88GGNVtiZloO/JzpxjNZOBoJhSmFLBc2xvax1mG3c+lVfz7zOvQ/vArBX/4UjLDm2KZr4q6qBI/MV5WmXPknr8sTGlBTYfaVWwp0X6HYcVETfoWjh1PO8ZZZZn2Zt13r9v8fOW6z0rGqo/HgOSrvbL/62tvD8OqYRWADSeiiiZR0FVTUblVgdGUj080plc/yTYUW1hiW8Je35MWO5A1AVroo6RN7cODudArfdR+kXwRhdmERCFTu5uiGI2jQHbORe21b9qx4Vq1cbW5mLPPCRhpcwwcbUfahWS6xR7LdrBvQp4VVtq2Nj2hjI1iuKeMNInNotwIDLCvrz1hpTi+FZVJFPEWvGWksT4JoITa2JVcbkVlIrT/UQbdP81OacEu1ozLo1rnLxw7xvE2xs/Ljm/0js3PlEsg2IvSNDWFmtrzIQtKH7RKAdUnI/thiRTwBUcUMdDWGdqD3pKYYkjG7a0Z0XDi9YPttqUWe4L45mE8P8NKx6/Fz9cFVutirZclA9xQ/xOwg60N2PtlTWDeJVkx9UGVRFmY7Oifk/SKxCdRkA9Cwy3KhGtK4IjlAnanaMinNK51O0an28IfReNj3kiOs5mP5n7ZoymP/GrgaEezDoy2G8sAxb5m/oy02h9ExWG/iOEu0cKJwk1gCNwRqypYbA3sGdroBzLL+X76VfCrqI1xUR2TG2KrpaE2KX9C2DE2zyePZdpr37H5xctuUpKvAAASUklEQVQFGIcEGGzsxR+eJAOisNjkC408mn4ABdkd7DSKKKhIjK7LJFjZ8/rK4k0eL9f3bnLBJJ8xCyF53fd7RR++ZoHkhw+zCgaxETxYmg7BHoN/fK2JzoRhOHLTKE6oIh+FW2xg1K14kRo/Iv8YVnpNFOmK5s2sZNlLOq8DY7rXy45PcpyL5kW6pOiKKc/kJ3C0k7wOjLbbqgDFiqjFFXkyPJe8b1Z/bMsAdXCg6+xsNyCfa1wLbU/bcsqe7UsxNCnvDTb8+nlpVnaLu8FqTGifPyGKS67S3viciZfLjofXBIAj8goBCDGCH5WMDl9iggz3yr8Ykxg8R0LyCpKKlCS1oqve//H6wY6waHsPM8F9mZhF4LuXdY38lqH6JFY5r3FolzdVq+SQBDDp0wegR/v2YADervB3TTUW6R3m/wJItPDYTSKznBXrvC5f7gO1geDI500fZBVcux7v5/xH3bGuNq7pnD83Vjo+bw7Z6jow2olRbULZyQgV+VKUwPmVc2HYfXbqQ1kyKnlaGEVH1FOnFhBuaVXt4RoEKIMCnXsKdQUlOqNQVoRGWxA1Mh8DSdsKc2brZ64kj1Xb24syRRRSS2NDGBX9oihA/MnR6KKsiChElFMKxiGQpO3DYpvDILLxwiuAonmNMGtropYBnawUn+DJZ44KjOSzY7pS47xDn/Mn0BvRX4/GgWC4iA/YRhWLJOw2sSjAHRDKcZaxkgY8Xr9iCWMxhWzbaCoYXak2rjYXc/Y5AyN9EIJjHRjNdEjLGO0d35k7Gfm6Q9lMCrRWxSo9kSypS6zlbQnvv5HXyxe9Q2EACUKccb2KLBLw+dPwtdClkfh+hBt7qD+Mhecld/Qnt36+Z6otoHNBm6iiAYEgVGCf5IZ9MkliO1t8v3GxxCOoQ9RTs4CzQVQzWl5Y6OYjaqFNnSPPnygkHOHF9jIUF3HgMe+a43GAMY9yWxdVjwVBo8Yc+ard11sAeR5wZAMvAao04Hn1M/WMH/PKjT8Xp+a5Xm1c3Zz49bkDI33QUAdGuiFK1SaUCzxmEsMq7Wix4GETJgHlksLvo1DBno14kkR1JkoLUYAAvTJUJM8gn+OPLR7Cjd5FpZyToeoH5T0hVt4E1t3WItzJJqxqrc1eQCgV2M0QcMP1LVIqnQ86JFND04xSBTlib5v8hkXNEuaLwK1cS1GHh6VVO4kCMETKFzaXWpA2/skKXj8zweTmSkiZJ3PMA56PBYzUYUv9v0WQsgQZmCwzr37JtvDbzCnfPfeaOxerzWM3J37VgTHqk0O2OtlFZTvYN+A1kUsyy1K/P4ZLYJmCy7Y3ysudjEWTeE5s4COZa7CB1cvlpdAInBBktxRYAmC5rFiNVZQ2ANCNnr6gsUEG5R2dYUALArUik5wWVTUtIPFH3YlqX9TWLlF7vbV4lJFSRVRiqFBpD6PL9Ihq7ESpIrBEzsbvXgH9SQEjtWQ3QPqLDwmKixfri6KWtV+PAJKtcW1QXjMi7phEV6P/kyAVv5d1buZ10dhmvZ8s0+SX9Xzyevly3XYXjW2ynOTvOjDaHvGCY9kO9g14HRht55ozjLJ/lWYZz5W2hgUJ8FvFaveHvtD7CoUPI3ZVLonuNDdv+48YnV+STI+9SDBGf72xHO4W+GBuWp7c50Wlvg0WPbLIorFlV8MR5Y0nUJ/c5fp1xAaRCEGwz8QibGsQtSu5o0lQl9VikZs3/Ue2B4BSxPNnRgbSGLo/lfnSA2npH8oagP6MJ988NPeTIGWu5x1NfuUBys0tWabJz30q+1f5ct0ZUzS22SVGd+rA6PaQneG162U72DfgdWB0OzceoxFXPqghhPirYq9J5yW4hzKa29gIRru65X3RHSpdiPxdJoVBLQRmRO9BOUJqkUlJtyi5QbG/0wq/Nitj9WmVQWAHM7aYWXeK6msTW47GFddFlAkX9S6+39gh4ueN/LBbckXcHQniOyjbzTIigLAiBf/B9bMHC4oKtgPgSKg19hmHYlxUvZf0MeGIn/ikjKTHZREQB8YoHK32c8koKwlSGY85l828Lg9QzusSQbi/TX7u1exf5ct1CzJjm51z/p06MKb7xwHHsh3sG/A6MKY71+fbTB+/lXCe3RC3ZLf4cnUxZE3Zhe6b4dHgf9y4G3RqP5qy8f9MqVCR9xTNhz1Q7mnv6gkFoiA24fezE8GBglEs1gCZ59sEiEMoU8QKA8TICqEKryioRr8MswnVBeDC6qMlb0U7LROck/QphmJeVB8sSgwwt2M2+ooCza7KIJpo2jsygcGEaVcflG0BaJKV3s+htZMgZfop72jmdXmAcnNLlmnyc5/K/lW+3DowZvdi9h0zPmXH5RAcPydgLNtW283uZCw/iW0OnJlyUdUsa9HzFwggSL2i3qCc+sXKomxhHxsMniOtbxSJ3K1F+Nrhf1CR3RdaQ7DD8JyIP93KCy3qW4ELEaW3VF6zqFW0ytgfAsi48OEvfLM7MlqHXa8i/zysgOfEKFXeyZQFz5IP+ijAEO/IVpBAvDMAo1hntmyYkMyU3Q+fKPIR/VLUx3kT3CwCT5UyL5n8isrNyiBZpskv6/nk9fLlurPAzKlkfmV/1ynG7J4KwbFsB/sG/LRQjL66+Zpdtq32XXcylp/ENgfObLlufuYpAOGZTHL+vxePg1dyKxsWYMHOsjf2qOSRAFlZahJww8Tmjvy8eee6lDewqMR7RD5IRCBsJjubm8VKR54sgCI2iY0Cz5NKsMpr8iNek7Z+VXESV2CRdeScbQk2VJ91ueWtKazain6zPWodGPN63507dk7lvZN973MCxrL4EO+thrId7Mv8qMB4HI00lU8GqvXVLd5Ic162reb5pO3YxwJGU95LmeNM7j4Lvpff9A2xuXekBPlSRt8YESPr65I8sCxAhvuXiHoc7OgI/vxuLIwbifsaxtOYAxE9CG03CWc8QLNs3qa+eUeoYPZUCZUqolpRqoxLhAB1OKt2wiqz8deBXOtEVIYy0Tf4H7vrP1VE3lgnqbfUy54LJr+icj2vhpeSZZr8sp5PXi9frtsx1eeyW/JpBkZfH5bvJ7edjI8vP/cp/69Dttp/O7rqy7wOjHk9Zu/ZSexObvuEPYPdxlZxQlTU3rtFAYbAQzZ+bOa+JjncgLxMuiVbxBOlQwCXB2YYmBMEolHA1yIMJGo51CEs7kmZ3GCYzeb2u+9Qpkg+WDvflhcIkYMIyMEfMREx3J4Q+/xM2uaskFxFC8A3D03vJUHKXM87mvyKys3KI1mmyS/r+eT18uW6c8fOqWSO5X7/HsCY7Kusmvr6sHw/ubkeBxjJKRccfRXlpTow0gvFyU5id3IXvxkEC1JYXMBsRZHCZ0V5PZTx86g2hSe8102Z77ClAkqTKgnqU2EbqryS+yxgOC8fcsBvXm59yBAnZVIExbghdhljeBQrUJG7b96GUW2yQnIVLYCsuUgFyy68eGNMfkXlxt+JnyfLNPnFn8k7L1+uO3fsnMrLPfveSQLjbo5CLF6DZF/F78XPfX1Yvp/iOUVzwpef+1T2L8rNBMesjOvAmN2h8Tt2EruTO/5M1nk4IUSVsUsgf/2y+RsQUF6T8mJZcQV3FLigSSzxFz1D4a6EeN9AKcIaF5VWdD9ZJ+MfjCoFShEW/J0oWkAbQCQu4YzAG6UK20hgj/hMNp2E+iqbihZAXqvKLrx4XUx+ReXG34mfJ8s0+cWfyTsvX647WnZO5eXuv3dUUCQ3X7mfOjDSbi84Zg12HRjpsuJkJ5M7uYvf9LuMYcx9gLxQsrkdUWB4jMwIjH7uno4iU9ei4LDHyUnZIZq6Ek1mXUqVUHEiVpmyCbuFQsUcUawQZ3JZCpep7e06MJrO8xzLAWN63tg55cm04FIdGAs6KHY7Pj4pcKwDY9RT8U6K9V3hqZ3E6Qle9HJemTtCxglpeecFRONSbjwQmz0sQ+0v+oaCbxXU4q6CWgCMJ7kJFIFZiYKDlwoU4vT6mhQqC8G4KMQl1YUtTN9CUYaKlSjAwr7Oy6a89pJH1lzkXpJ641pRMvkVlZuVT7JMk1/W8/Hr5ctMzxs7p+I5ljuvA2O5fuKp5Bg54Jg12HWKsVwH20mcnuBFOSQHxn3+XKTN1cVtsasrsKx41oha29f5e0JiCcgIbEHcxB5RkK3ymCmzxwksOXEn8d7BMHtPMkJsI7eUPwA4H4ZG2xQLjTvfevBSEYF+FTjjqWLbS22rtTm/vXVgNOPv9rG5Wu5YB8Zy/cRTvvl4CI51YIw60tdJZbrYTuJqIJE1MLbM7PwIdvtCwSZge6ONtlaCu/1Dsm8cCqPk4AJYlLBFXJJ7XqhUCU1vRCmKZZ/Xta39g3AjMUAXF79wawCB5lkExqOOK/1XpxiD4HOQMSbXSgiOdWCMuuWoC+j3AMaoxh+COVGM/M3KgBpD6nWx3TsypSER6qtD9ozNcgG8IPIfLxUSIciIMYi5zZyowWmB4TRbLigU2MuV5eCp7BFf6vqq3vcl217uZoO3792iPs6ai+SVBClf/slr5FdUZvKd+O9kmXn1i7/Hefly033o9nEy5/zfdYoxv3/id/PGSGOfHhherrPS8S7MPreT2N+P2W8WLZ78/Gy5UQnYDrYJ0Nj2meAN02J98bKJNrNqD5rlH41dJHaUW9I0r0jBsy7PlXBPk9pxBTZ6a0uxITdOHBjzJqHpo6y5yP0kSJl38o51YMzrnfS95Jziic+RYox65nCDLbej6sDo9kfWLzuZ8oHM934+WOTnZ8t1c14mwo1Mfl4JGJvkZdMjg/HrRPvp7AldBZtEQcIiswEYUW5w7dvXTnpvRSGiSGFvlj39rZ0wxZjf1qgNdWCM+iFrbN2R9v+qU4z+fvFdzZ+T0fo7lDmaDOrAaHoi/2gncT6Q+XIpMzC+97hmy00/sSNg4y9Mcrd5LTZ7Q0EeVnXsIKqOwBFvlglpnX+SFrpKcsst3+b8tkY1qANj1A9uH1cZHXEh2gr3qMlX7udMMZp+dMCxDoymW/KPdjJVn5D5YJGfny03v3727rlo208ZbYdyR2SNAs8VySirJLfc/DrG881va/RkHRijfnD7ON6Lxed1YCzuI/NE/px05/YhONaB0XRf/tFOYrcj89+K7lYZmGR+ttzknazfUf2WxCKzjetRk1tu+TbntzWqTR0Yo35w+7jaSNWBsXx/5c/J9NwOwbEOjOU62E7idEfm5ZA/KLyZn58tN6+U+L0ov+Jy4++kz91y8+sYf7tMuXVgjHrM7eN4Lxaf14GxuI/ME/lz0j+3z9eB0XRf/tFOYn9HZr2dPyi8lZ+fLTerhOT1KL/icpPvub/dcvPrGH+zTLl1YIx6zO3jeC8Wn9eBsbiPzBP5czJ7bh+y1SajMsd6PMYyvVRkqkMe2QPD3eqLpw6M9FuVlDQRygPuZL75iy7+dHqcq4+tza8OjLYv8s6Kxyc9LiY/xqdy/Ko6MJruyz8eZ2DIufriqQNj/oik79aB8dO1YzzO+jNrrxI41oExvcB8V44zMORnBseXt/9aHRj9/ZJ9tQ6MdWD0zY742ivNVteB0deV6Wt1YEz3SR6rmgSp9NvpK+RX3M/p98yVZJl59TPvmGP5ctMsW3zhmfzKHs8aK12+n9I9wPhUGZN4DsXlpsfFvJ8cn1KUYx0YTfflH48zMOScHJz80rhbpxiL+8h9og6MH59iLF4H7pjEf50WYKROhZRjHRjjQ5d9Xjwhsr9Y5FoNGG1exeVm1zldrs03/60yyqb8r38SpIrK436dYizTS9EzWfPpY3u+HGc+niZgpBdzKcc6MJabjMUTIh90siayv3SbV3G5/hzMVbdcm6+5n3UsU24eW1QHxqyeda8flZV2x9XmWQdG2xfmLKuvuJ9JOdaB0XRf/jEfKIoBJ29w0iXb/PLLTb+ZvOKWa/NNPpf8XabcOjBW5QSSvXx0X2l3XG2+dWC0fWHOsvrK3PeC4+cJjOUBwnRePlAU51c0OKac6Gjzyy/Xfcv3yy3X5ut7Nn6tTLl1YKwDY3zOFJ2fNlY6Xt8UONaBMd492ef5QFEMOC5AZZcT3bH55ZdblE9y4dp8i94sU+5pAkYf655Xv2T7y7Q3OTb8rjauyVLrFGO6R/xX8scnf16XHSMHHM8GMKYbnt9R/s7latRJ6fyy34ju5JdXnF/ZwYlKs/nll1tUa9Ne85zN11zJOpYpNw94fECVVZa5Tn5lyjXPx4++8vLqF3+X8/Llun1YbVyTpdaBMd0j/iv54+OOSTKHKmP0fwH7NAMqzdyZHQAAAABJRU5ErkJggg==;fontColor=#000000;fontStyle=1" vertex="1" parent="BQA1cjj0MLRr8krq4X8K-30">
          <mxGeometry x="392.36" y="605" width="72.78" height="71" as="geometry" />
        </mxCell>
        <mxCell id="BQA1cjj0MLRr8krq4X8K-1" value="AWS Step Functions&lt;br&gt;New Document Processing Workflow" style="sketch=0;points=[[0,0,0],[0.25,0,0],[0.5,0,0],[0.75,0,0],[1,0,0],[0,1,0],[0.25,1,0],[0.5,1,0],[0.75,1,0],[1,1,0],[0,0.25,0],[0,0.5,0],[0,0.75,0],[1,0.25,0],[1,0.5,0],[1,0.75,0]];outlineConnect=0;fontColor=#232F3E;fillColor=#E7157B;strokeColor=#ffffff;dashed=0;verticalLabelPosition=middle;verticalAlign=middle;align=left;html=1;fontSize=12;fontStyle=1;aspect=fixed;shape=mxgraph.aws4.resourceIcon;resIcon=mxgraph.aws4.step_functions;labelPosition=right;spacingRight=0;spacingLeft=5;" parent="1" vertex="1">
          <mxGeometry x="167" y="82" width="60" height="60" as="geometry" />
        </mxCell>
        <mxCell id="BQA1cjj0MLRr8krq4X8K-18" style="edgeStyle=orthogonalEdgeStyle;rounded=0;orthogonalLoop=1;jettySize=auto;html=1;entryX=0;entryY=0.5;entryDx=0;entryDy=0;strokeColor=#000000;" parent="1" source="BQA1cjj0MLRr8krq4X8K-2" target="BQA1cjj0MLRr8krq4X8K-11" edge="1">
          <mxGeometry relative="1" as="geometry" />
        </mxCell>
        <mxCell id="BQA1cjj0MLRr8krq4X8K-2" value="AWS Lambda&lt;br&gt;Orchestration" style="sketch=0;points=[[0,0,0],[0.25,0,0],[0.5,0,0],[0.75,0,0],[1,0,0],[0,1,0],[0.25,1,0],[0.5,1,0],[0.75,1,0],[1,1,0],[0,0.25,0],[0,0.5,0],[0,0.75,0],[1,0.25,0],[1,0.5,0],[1,0.75,0]];outlineConnect=0;fontColor=#232F3E;fillColor=#ED7100;strokeColor=#ffffff;dashed=0;verticalLabelPosition=bottom;verticalAlign=top;align=center;html=1;fontSize=12;fontStyle=1;aspect=fixed;shape=mxgraph.aws4.resourceIcon;resIcon=mxgraph.aws4.lambda;" parent="1" vertex="1">
          <mxGeometry x="411" y="217" width="78" height="78" as="geometry" />
        </mxCell>
        <mxCell id="BQA1cjj0MLRr8krq4X8K-3" value="Amazon Rekognition Custom Labels&lt;br&gt;Classify risk score from image" style="sketch=0;points=[[0,0,0],[0.25,0,0],[0.5,0,0],[0.75,0,0],[1,0,0],[0,1,0],[0.25,1,0],[0.5,1,0],[0.75,1,0],[1,1,0],[0,0.25,0],[0,0.5,0],[0,0.75,0],[1,0.25,0],[1,0.5,0],[1,0.75,0]];outlineConnect=0;fontColor=#232F3E;fillColor=#01A88D;strokeColor=#ffffff;dashed=0;verticalLabelPosition=middle;verticalAlign=middle;align=left;html=1;fontSize=12;fontStyle=1;aspect=fixed;shape=mxgraph.aws4.resourceIcon;resIcon=mxgraph.aws4.rekognition_2;labelPosition=right;spacingLeft=3;" parent="1" vertex="1">
          <mxGeometry x="571" y="217" width="78" height="78" as="geometry" />
        </mxCell>
        <mxCell id="BQA1cjj0MLRr8krq4X8K-16" style="edgeStyle=orthogonalEdgeStyle;rounded=0;orthogonalLoop=1;jettySize=auto;html=1;strokeColor=#000000;" parent="1" source="BQA1cjj0MLRr8krq4X8K-4" target="BQA1cjj0MLRr8krq4X8K-2" edge="1">
          <mxGeometry relative="1" as="geometry" />
        </mxCell>
        <mxCell id="BQA1cjj0MLRr8krq4X8K-4" value="Amazon S3&lt;br&gt;Documents&lt;br&gt;Repository" style="sketch=0;points=[[0,0,0],[0.25,0,0],[0.5,0,0],[0.75,0,0],[1,0,0],[0,1,0],[0.25,1,0],[0.5,1,0],[0.75,1,0],[1,1,0],[0,0.25,0],[0,0.5,0],[0,0.75,0],[1,0.25,0],[1,0.5,0],[1,0.75,0]];outlineConnect=0;fontColor=#232F3E;fillColor=#7AA116;strokeColor=#ffffff;dashed=0;verticalLabelPosition=bottom;verticalAlign=top;align=center;html=1;fontSize=12;fontStyle=1;aspect=fixed;shape=mxgraph.aws4.resourceIcon;resIcon=mxgraph.aws4.s3;" parent="1" vertex="1">
          <mxGeometry x="251" y="217" width="78" height="78" as="geometry" />
        </mxCell>
        <mxCell id="BQA1cjj0MLRr8krq4X8K-9" value="AWS Marketplace&lt;br&gt;Embeddings DB&lt;br&gt;(e.g. Pinecone)" style="sketch=0;points=[[0,0,0],[0.25,0,0],[0.5,0,0],[0.75,0,0],[1,0,0],[0,1,0],[0.25,1,0],[0.5,1,0],[0.75,1,0],[1,1,0],[0,0.25,0],[0,0.5,0],[0,0.75,0],[1,0.25,0],[1,0.5,0],[1,0.75,0]];gradientDirection=north;outlineConnect=0;fontColor=#232F3E;gradientColor=none;fillColor=#1E262E;strokeColor=#ffffff;dashed=0;verticalLabelPosition=bottom;verticalAlign=top;align=center;html=1;fontSize=12;fontStyle=1;aspect=fixed;shape=mxgraph.aws4.resourceIcon;resIcon=mxgraph.aws4.marketplace;" parent="1" vertex="1">
          <mxGeometry x="732" y="315.25" width="58.5" height="58.5" as="geometry" />
        </mxCell>
        <mxCell id="BQA1cjj0MLRr8krq4X8K-11" value="Amazon Bedrock&#xa;Extract embeddings from docs&#xa;and extract key values" style="shape=image;verticalLabelPosition=bottom;labelBackgroundColor=none;verticalAlign=top;aspect=fixed;imageAspect=0;image=data:image/png,iVBORw0KGgoAAAANSUhEUgAAAUcAAAE/CAYAAADVOAHHAAABYWlDQ1BJQ0MgUHJvZmlsZQAAKJFjYGDiSSwoyGFhYGDIzSspCnJ3UoiIjFJgf87AzcDLwMkgycCfmFxc4BgQ4ANUwgCjUcG3awyMIPqyLsis55YaqnNE5B92TTqbtYvfbiWmehTAlZJanAyk/wCxSXJBUQkDA6MBkB1QXlIAYjcA2SJFQEcB2VNA7HQIewWInQRh7wGrCQlyBrIvANkCyRmJKUD2AyBbJwlJPB2JnZtTmgx1A8j1PKl5ocFAWgKIZRhcGFwZfIBQgSGUwYjBHIiNQGI49JiA9Tgz5DMUMFQyFDFkMqQzZDCUAHU7AkUKGHIYUoFsT4Y8hmQGPQYdINuIwQCIjUFhjR6GCLH8JQwMFt8YGJgnIsSSgGGwvQ3ozFsIMZV5DAz8LQwM2w4VJBYlwkOW8RtLcZqxEYTNY8/AwHr3///PGgwM7BMZGP5O/P//9+L///8uBpp/m4HhQCUAIMVjvPIp2HIAAABWZVhJZk1NACoAAAAIAAGHaQAEAAAAAQAAABoAAAAAAAOShgAHAAAAEgAAAESgAgAEAAAAAQAAAUegAwAEAAAAAQAAAT8AAAAAQVNDSUkAAABTY3JlZW5zaG90/5II3gAAAdZpVFh0WE1MOmNvbS5hZG9iZS54bXAAAAAAADx4OnhtcG1ldGEgeG1sbnM6eD0iYWRvYmU6bnM6bWV0YS8iIHg6eG1wdGs9IlhNUCBDb3JlIDYuMC4wIj4KICAgPHJkZjpSREYgeG1sbnM6cmRmPSJodHRwOi8vd3d3LnczLm9yZy8xOTk5LzAyLzIyLXJkZi1zeW50YXgtbnMjIj4KICAgICAgPHJkZjpEZXNjcmlwdGlvbiByZGY6YWJvdXQ9IiIKICAgICAgICAgICAgeG1sbnM6ZXhpZj0iaHR0cDovL25zLmFkb2JlLmNvbS9leGlmLzEuMC8iPgogICAgICAgICA8ZXhpZjpQaXhlbFlEaW1lbnNpb24+MzE5PC9leGlmOlBpeGVsWURpbWVuc2lvbj4KICAgICAgICAgPGV4aWY6UGl4ZWxYRGltZW5zaW9uPjMyNzwvZXhpZjpQaXhlbFhEaW1lbnNpb24+CiAgICAgICAgIDxleGlmOlVzZXJDb21tZW50PlNjcmVlbnNob3Q8L2V4aWY6VXNlckNvbW1lbnQ+CiAgICAgIDwvcmRmOkRlc2NyaXB0aW9uPgogICA8L3JkZjpSREY+CjwveDp4bXBtZXRhPgorCE+rAABAAElEQVR4Aey955LlOJolCA/XWmsV7qEjI2VVV1X3WPfO7I81mxfYJ12bH2u2az09PVtTnZU6Q4dHuNZay/A9B7y4AEGA5BWuCbfrVCAUwcNPo6Lx//yv5wLpvIL/5T/u5FOFdT7Ipy7r/PcqZDG5C8H5z/oyzgcH94xzp7nc94JKVKH57WfrfKV1rDLa+dR5u1x/PnWH2rraL4T/fqNTuSLsvKrfFdYYn+Vvze/IEipDhxVC5wsqUOWoclXLj3PlV4WehxCnnrGrcpw/c5xzjb0rH9th5/Xlc9XN++384bFgjiDZ+Xj22NH2Gsc5NR+De4Ly+L9e72IkOe6hByGvHuFUg/Uc1W2u/OqauQ33KVqHmdfet+eCfd3sm30tXK99Ne44OgfjctvXovXqPh/amY3jap3NOBvdVe+DfeXePftMumO+v1XMmgGjOWDB0wgDuxsYbfBVpWTAqEYiCnTqSgaMaiRSvv257BkwqnHT24sARpZelQGjHmR+cW1Q5FUb7HguA0aOQjhlFGN4PFxHYQoqA0bXGPHcVVKMqk0gOqMPKOAk9Pm7wkpnwKimRbC1wY5nfWyjndeXL6MY1Rjr90udidtmFGN0dC6KYlQ1RTjyDBjV0GQUox6JYM8HeBkw2iMVPc4oRv0xuK4yRvupSZmjOlk4MOoOh6mu4LxSFijFC+tJy47aL5xqo4vFdZXrz6dKUtuMlVYjobausc+AUY2O3vrGROcI9jJg1DhxU4CRTy4Pjhkw6intAta0oK4+CDbJr9kiPVFYo/3i6HxBe1Q5qlzVyovQSrtAkfX5QMDO78uXsdLqqYWfvTrr29pzIZrPX154XkXv9J+5e1pp31hIcMyAUQ/PbQPG9MDkftF8gJcBo54zvr0wQLnH13dvBozRkVGEgn2lFHMduyzzOPfu6AeXrHzReTNWWg+louzsB6gnuR433mW/ODpfUKYqR5WraiLFaNsw8prLjjEDxmDUjo2hv/l2jEZn1KQwtuF5ZVxI3M0oRnuIQDnqwc6AMTw85WGl9fiq0sMTODopM2B0s/I3z8A7+uzVHPBt7Y9kOF98eeF5Fb4z/ig6B+Pzh69G69XtvEkyxnCvoB9RJzJgVCMRbDNgDI8HjzJWOjom9hkNFBog7Dy+4wwYoyOjCAX7ykWx0mY9UuaYAaM5JOk16orltR9gMMmjL4d+cVhf9GutylHlqlZlrHR0LMvpEkh3QKbyuQRG2xvU4P+fAWN0bNT7YF+5DGBknTkPGVW9fqjaV1qfy2SMapwIoMG+/QAzYNRjpPZspU74I6FypWOl3aDIMvQ8LUTGmAGjHv9C9qLPUI//RbHSxYIi++VStCb1N2/KY06uDBjDw2YPbAaM4fHhUXrlT/ReGzxVDlvGmAGjGplgGwWo8HX/UZRr8eeNXonWe/uAkb3OgaPuXBpgVODAAjIDb44CqR7+1+PII6bwRIpOSkV5mmPK+246K+0CvPBYsJduapHnM2CMziWOi0qusVTX4rfRORifP3w1Wq9u522hGFWP89pqDYq8pDtss9LmS5wBYzCMGTCq6aTGQ88fdSX6UmXAqMYmuo2On5nHNZbmdf9+8cDorlO387YBI0UzknLMgDE6nW4LK91XWyda6+tFTWWVdN08+fxZHBwfic2jI7FxZn7e9BiUopXOKEY9jr69m6Z8uYvAyGdXlQFjdArfFmBsASAOtbWLkY4u0VxXL6oqK8XRyYmY31wXs5sb4mx/V2yfnYUGIAPG0HA4DzRYaMrJmdFxslhg1HU6Ck08lVGMiUOUy2Aq85wKmYyV1kOpxAhKNqiuJLPSwYtjvwyqHFWuKq8cMsZKgF8LfnUAxcbqGtHb0iIe9vSLsa5e0dbQJKor74FqPBFdzS2ipaFRdG9vifWDPbEFKvIzKEqadJGy5O8Mv33VOGvrUr5kFKM1SI5Dey6Es/iBNgPG8EjFHdmETVxe+5oJjLwWUchkwKiHTAGYAjR15ToCI8FpANThcFuHGAalONbVIwbaO0V/S5vobGoRDTW1YKvviePPJ2J7f0is7e2KjX0AI36bAMjN/X2xcbArVne2xTJ+iwf7Yv/0RHU5v72rwBgGKD+Q5QfK2smA0RoQHNrvFXNctrmOapUNjDyfV8jw4DYBo+8LcvGeL5dPMRIYW6uqxAiA8cXgqPhmZEz8YfShGO3sEnVVNVLWSKry/PxccKUftvDz+ZnYPz4WO4eHAModMbuxJqbXV8Sn1SXxfmVJVOG4GudXkEel2waMLmpX9dXcZsDI0dAfhNuofDGfd9Db3BoyPLgJwKgouXBHovEY7wIwEuQ7wDo31tWJDrDIAwDGJ70D4knfoPhiYFg86ukTjVDG+FOlqAVwtoPd7sCvBUqbNpTTASqzp7VNLGxsivX9HVCVoCDBdh+BiiQluXt0KHYAmFvYj9KVtulSULsPhK7SXMfXJnu8MmDkiNw9YGSvJVt9lcDoouRc4JYBIx+XTk2QK/ZAdvi0f1B8OXhfPO7tF4NtnaIXwEbAqwdwpk0NNTWir7lNtNQ1iFGw5AfHYwBAgODhAdhusNq7O2JxZ0ssbG2IGVKY+J2Aqtw6DWu7w0AS1O4DoQwYNeDYz8k1jnYe/3GmfPGPTfiKi5U2Wf2qDBj1gCkANgeIV6+DjJEfEX7JasEed0C22NPcKkY6u8W3I+Pinx48FQ97+0RnQzNkNvlYIrpjCXu8h1SmTWmSDd8G2728uyVmwHJPrq2ItvoG5KsVrQDKNcgrd0hVfj6TEUxOybbjd3L+WRxjmwGjb+BvFjDGsdHsYSmLYRUxXfOD6iKi8hcTdpKAkbfnFDLcrcj7C/PIpAlc1B3z2I2zzUCYh8nOx3OuMt35mNtOd4+VrsUsGoeC5VF3nxiCLLGvpV0M4fh+Z4/8FQuM9siaxxWUZYLdhr0XWPAq0dHYLM2CXoCSXIdCRypyqO3Gb/vgAJrvXbGysyNWAZrLDmUOy84oxgwY1Ry7zsDINubAMQNGDsZ1pBjZLqY+sMov+ofEPz95IZ73D0MT3QFKsUnUgn3mR4lAdhGJlGAdNN39VdWit6lVfO4bEJ/PYEhO+SPY7g0A4zzZ7fVVMQXq8sPKoqjE/jnAcwXG5mbKgNH/jK4jK31XKUY1ZwGOGTByMK4CGF3Ru9kWaoVbAEatYF9bwMZ2QlEyBFngt6Pj4qvhUfGwu1/KFZk3bToDyB3DAJyppro6EpvRVw5BtxIXqe3GvyAbZg1Z8C5Qkj0AQCp02tHGThx3NDWLQVC0q7vbUpmzC7b8ELJJst77J8diTypzTuE7Tr25K2kAMVmfpAjecdF1fOy9XXsYoHQ77Hy+49tkrnPXgZHPmBxTPmWsdDAUpcgYzfFUA+sy8I4DRt7X29gkHoCFHu/uFY9BrY1jXylcmqE4KTQRGKl9Jkj2QpFTCU11ORIp125ouCmHHGztEF+Aqt0+PhC7YLM3D/cl+027ySXILWfhmUOFTgWoymUAZTTpyZgBY3R0omcuRvmSAWMw0nmZ410ERpta5JC4gNFFUdhUAssqBRjrQKFVgzKru1cpugGMj+HZ8sXQCMxyRqTt4ji8XGpB8aVNUjECL5dDUmtQmqyBklva2RTwg8HxoRhp75Is+WeAJRNlwFTlkFIshEUnS08Dc/66GmVR8h8tKmlDuQqtNgGRLDcpzCbka95aF60AyC1cP4D7IoqAIgcvOu5hezgXFWWZUYx6TMN7GTCGx8N/ZH5oVS7Xu6+uqa0ExwwYg+G4SmDsAyD2QwM9Cg30KLxbRqlowZZKl2H8CgVGghJ9qCdh1D0FcFqFKQ6VJhXwkukG5djX2ipNd+qpea4F697UJLXd1EaT7S41cfK1QKteXQV7yspqqeXuh5kRQX8Fbdukdw4oy23YUVIjvkn5JQBzCTLM2ZysMgNG31PIgNE3MvZ5GxjTgCLLoAa+KgPGYDivChhZew8AiQD4AlTin8efiBegGLuh/CCrWg9Kq7JAtd42gGZybVn8Pjct/vbxvfhlblK6C56AKqtGWU2QFxIEOwHIPbBvHIQB+Vh3jyB1OtzWJW0lfZYHwWil/18DYCQYdzQ1ioco/xTULJU5pF5pYB6w22tiZm1NfFijZ86KqKDGG9eZ1GS25YaZjDH9M1A5wxyQOhuIMq4jK+2yXlGtTrMtBRhZfp6tdpnWMIPdQN9LY+fjva4y3fmY204XY66jXjaztssERipbmsg+w4ibLCYBiprn8c5e8WxwGK5/98UjGHQTVNKmE7CmxwCcg9Nj6SM9BWB8tzQvXs3Pit/np8XPcAcMgQuottbtTdEJgOyFPHB1bxs2i3AVxP5s25o0E+pobITrYbW0m2Rb6mEoXo/jmuqqPGClaR/ni1TmUK2Tm22tvBFU8vHZiejZaRFdYLepeW9rRHtwfhlU7gaAU9pQQixAm0l651ChswvlznZOmeNa8yXUz5gGhoFCyzpjbgldssUqoYsYIV8K1+vL5Tt/dyhGF074RsV1vlRgZJlyurpAjBftBmbAyFEJEkG2GBkjQ/0TlEZAKT4ECI539YkRBokA9dbX2i6NuwsBRrZm9+hAzG2si/fL8/gtimkYa0/DnGYeMsYlyBpdgLHFUGWgzgisBKLp9TVQmjOI1tOQcylslNRlu6QuW0HZdokBtK+7uRnUZ/6bmhuN4jbsZxe02/TmobfPE2jht9AXeuZsUqEDEF+Fh84K+jAHc6FPNBfCvkAcygwY04+5G5CTKcZSjLvZugIZnnyHbNzJX0i5Uw5gZFXQVru/cnYDM2DUT6ZYYGwD5dUPMBgCpfgMWt3vEBziOahFstQ0gylEEcLWkEVdh0H27OaapBR/nJ4AwM2K6c1VsQz53Q6AzwWMKoDEHqgw/gTAiIl5a/FrB0XbDuPv7sZANkmXQhp806/6ENRpL1jxRuSh0iVQ6OgPhYsyl4V7/tVDa84fzYJUokadbPcGgHEeFO4klDnvYD/J8flccS4aEEFo5wTmQPDEUcnVT3XN3IaBwj33zfz2/s2nGHWf41jpuw6MfO5OEiADRg5NMInsl6EYYGyHgmMQ7OIQfJ8fwDRnHK5+4139UuEyiGC07QYwsOakdAzQW4CyhdThFKjEScjqqA3mPoPYUqmxnwCMdh0KXI4ATIsAJsnGMmrPEUKZgYKbR7lk1em2SOqxpbYRGuoa/CC/BDtMf+7W2nqptbbLLvSYH2Iqc+rAwlPm2gIZKe09myGDJYi+BVC+g+jg+CQAR9X2pHpuHjC652BSP9X1cH95NgNGNTbm1vchiIBjBox6EpUDGFnaAADl66HRIJwYDLmfInJOO/ygqzB771UEocQKoRppr/jz7Cfxw9SEeLc4Lz4CKEgpHoAKPAc1dQSK0gUYimI0Jwb37bx8qegfvQGQ3IWcbwGyyCqYGNUD5JsAUASq9noEywUVTDfG+9CwM37kMMB/ANRxVbH8lNWwSrDvpKgJuoxJyeAY/aiPFCvZ7A3Ybtptt4rIH4aBQoNEPkPCjj0Xwtn95YXrDd8VfxSUGV+vv4RovbqNGcWox80HjMwRAscMGDkk7kmZlmKkmKIFMrRGUFX8kaJ6iPBhXw/fF89pszgwKrXBrCltOgAFt4soOUcAqi3I4j7CPOeHqQ8AyCkxsbIsPkKBYSYXYBQCjCyLSpBjxHyEr6AsWpYJeaDYhS4FQMngFzRUX2oNlDnrYIGXwAIPtG1I6q4WIFkJsyHabtZgnwqoKvhn+8QzZvvVvspbCVDuq24VzaBS2Q+y2CzX1U91r7kNA4UGCTNP3H48QPnLC9cbraEW49PA8cGvGv06zwuxgzIZmb0Cz4FWBsenZ2IP3MChIUqIlhicidar25gBox61OGBkrjw4ZsDI4Qgmkf0ypAVGltAAABiFcmW0q1suUTAOuz5SVL1gn6l8YMxEX6LhNpNNRVKm+H5pQXwi+wzWmfaL/C1B3rgKZYqZXIBRKDCa5XHfLnOHgAk55RFe1E2A9vzOhniD9inzoPZ6sNgN9Qha0SD7PNjSIQbw62xGKLUSPHNo2tQPpVAbqNZK2E+mSWGg0CCR5l7msedC+D5/eeF6w3epIwJjP+xLe0AdUynFjwGjtVcAJEkdU/b6+Yya+mNYFEC0AauCw5woQZVhb6P16jZmwKhHKwkYmVOCYwaMHIrSgZEugUNYloDufl8iIvefYLP4BRQulCkqKog1+ZINiszHGIpvFufEj9Mfxa+zkxKE5qCxpWzQTjaI8Xq5gVHVuQZgXKMihz+sRUMtfB1e7DZQy20IwNuNPtOonTaUj6CR34WXzshZl1y2gcqcYlMbFEWUdaYZzzBQaJBIW/dFAWMzqOiWWrhd4uMxCiuAYQC+XACtAitEAhg5D/ihPMMYcy0fehrNbq9LarkekY+2j8BBOFaODPeXvdR9zoBRP/U0wMjciOeoB5AnfJPOzse8Lk23Ox9zmymoMxxLMmo6pO5w1cNrdl3kSkjl2SmY5OHz4YkUXLNfhjQUYzMoxXb4OtPQmVTNfRg6ExwfgJVmjMUuyMpciZPfBYbMSy303MaqjHDDKDfvFubFh9VFadhts9Cq7MsERl90HbJ8VOZsQgzAABP0fFkHZcswZhPry1jwq030YDworySlRBmmjEAOSpMsc011pZRtup6h6iflkAQQ0FfqlHPrer7OjJ6T9lwIZ/PXHa43uKsabe0AoPdDkdULCwCaR3HOMKAIjf1p61pfTWN/Uo5B3+jmSUuAs8/nsBCA++denzSYX4P4YgsfJMbSnMdHaRYilTXYgEbr1W3MgFE/vbTAyDvybDUPSgFGG6hYHhMBK5yCE7cBGDmRO/D1JxB+N/oAEXPuS/c/ep1Q1kh/Y1/yASPzn0CxQkrxv/32g6QUtwAw23Cp27VCgKmyrwMwqrZwy5d6E9QNFUQrUBS9h8KIBuTUNrcCFMh+U+vMDwrtJx900M6zXRqCN0GWGX3RdemkpPhhIXj4Uvj+yAT03ZY/X05gZKHN+AgMYCXI7yBv/hq/UZhu8SPRhr7SVZNATy8oFab4nKw1PjRM/C9BEseUO27BemAVH5tP+Hh+P/NRHM+ciE1L5pxRjHLoIv8KAUbenAdHFzD6AS884fz57PbdfGBswpvXBLlZM8xL6I/MFf4eY+2WP489El8OjYn+traCvFvsEeLxZ7wIjJH408yk+BXmOiq5ntF1A0a2lfF2jiGXpGzyuAJh0nBC+UnXAQS6oX3uxtjRXnIFclOuhDh+0COe4iMzjg9K4FGjem1vCY72OX18XYCR1GIzTJG68CGgtcID+Mr/AfPjGyjlyErzA1Fc6hDbrQeS2uRH4uTzqWiBHJrG8tsnR2Lv5CwvcskoRj3ChQIjPzASHF0vnR/w7i4wVsEAuQcmOM8QdJaLWQ12YulThOmidwtjGJISKtS7RT8+vceX/xgyJbKmKrme0XUERpNqUZ4KChjZlyOwiStgvamB3QF1SS+el5CpjkGBdXb2NeRvXVJ7q/pdyPa6ACPb3AEqeQig+BxeUH8YgksovH8GIVagq2QzZLKlJMbSpJyyGiIdelq9X10Qvy7MitdwE51HaLiVA6z/E0NZpwUKn3ijWEstH6akHQs1n1R+X/vUdbVN21+VX81hmNqFwY4ZfJ2wZX/+fLqaYO/mU4wN4HnaQPGMgQL40/gj8ZcHT2SMRRUggv3kl7xsCWUp1tH1jG4iMKrJfIJhWmEYNYgJjnbOBYNIPIEZ0GMYxp/kTIcKHcdrBYxglYdbWuEO2Sf+Ai+o//3BMxkijn2iFrrURFEVrR4ounkG0H2Keppr+AkK3jM6AHCFSFdKCxTqWdll3BVgZL/zbLUaBD/gBQOfnE/lUNvgvpsoY2Qk4E4qWxjOi650YJkfgmL8IyY8KUdSjeaCVnFyRDUaabefQWHxd9uAkaDOuI0yYUNgpJ/0CpQMDJxBI/ZC03UCxhZScwDGr/qGxHdgo78GG02NvUo+0FHX02ztMmgqRnado0rZ5QHYa7pX7lljmQFj0uiGMS4Ejhkw6sFj9O4uUIoPEMqLMsWnA2Slh+TiVl0AStrxmcCo7yzPHm3dXOXfZIrRbrsCRo5YMxQ21TAuLzRdJ2DsAMVI3/nHMF0ixfjPY4/xAW3DB06pWgrtXfr8z3oHYVca2NAuwx5yG5TjKqwFNnKUeAaMSWMZBsYTHObB8S4Ao0sLya+w0qhzAtXCBo3eHS2QCzFa9jOA4vPBIBr3U8gaadicNtGI9xRhuWjSwhX6yHW3IxQYXQddFKFZrosKtcGF+S/KjtFnrmO2MdjXk0rJhEwZo6Jy7LabwCj7AYqHJjqFpOsEjPR26QWr+xCulASq53AR5fxRSbHTajzM8zTX+QxvpFMYfPOP2mmKsPinXEw5H+w5Y5ZJl80RUKhfoN5JaLK5bk8VghwfQ9mloqqrOn1bu20q311ipdlnAiOTBMfrCIyuNvHdsR+gBrzwi2W/ODpf0HH+Z1nm+0i3P4YNC2wV+2VE7uH2btGPKDpUujAYQiFpHzK1eYQSe7UwLQPPcoL/I2SV//zoiwSNbLQWG1yY47YAo9lbusylSWFaLOVNRsGu+aAv+8sLzyt9RwuoxhGwt38cHBPfDt6H6U6bvhizR2BkRHT+GKZtDywxrRXoKdMAqwhqtVsx77hEbiWMxJMSzYT+M9YxZ0Djiok3Yv5wD8q9nBgj5mb7vVJZ7yowsv8RI/D8oOBFNpMLrHjdBJcgf3BfKTJGV10XDYw0u+gHADLQ7J8fPBZ/Gnsi14NuAgXJRaQKDaZAQ+6FrTUA44z4t3evxL+9fyXZxjbES/xHeM7QnzZtuivAiNmUbkhCUzN0kOr+cgIjTXZovN1OTgPgSGDkErq05zSTD3zokz4Ls61FaO0XYK/IpSyolKLskMBILyMG3Bg4b8PSuC0h4sBVZhe4kr+MPEREoxoZuu53aLL3z8JL5Jrt4r6rHJ6/y8DI/js/RVeplb4sYKwHCdACmzp+Yemp0APlynBHl3jY1yftFR8DJAsJJUYWmpTiPlhohv+fBzBOIPDsOwSgpdvfK9gr9qCuA5ivkL1Om64zMCo2mn0xaWr1stltt1lpcwzOrY+xec2/f7XAyHbVAEFa4QrYCS+fPukl1SZdJ/1tppnWCTxc9sUCNPSMvTkF33mu0LgOrxdGOz8lOJJyxPxkRHaC4n2w6OPgYvqg7CFoxgUc5od3AIA6xDmNKEbHWNBsFwoaV9AK9azs9t51YOR4RMDxLgAjqdBWANUAhOUMH/akf0TcR5zFkQ4EiABbTTOJJihjCkmMmMPw/u8RQuzl/LT4CJuzWQDi/PaGmESQCKY6aDKrUgZMkDc4AOO6sNLlBEYbRGXfE/9dPTCyibWV92DRUA9gbIbXD5aoBcVmJ8oGTRCiS+UPCDn32+KsjDA0jfnBZWzp/SODTSA/vWYogyXH0gYq9GFHt/gCCkHKFL8eGIa9pA4ObJcv24W5Rtb+MUzPaGI2iXl4aJn3mG0y25wBYzAaIXC8zcAYCLPp3cKlTxtlyP8x2Id9NTKOcGJjMELulaHECmGflYfC5h6pAIAgQolxqYFfZj7JsGLzoAY2AJoqMSZiVQlLDGTAqEay8G05WWmz9lo8U65/M4iPKqMuuVxGTRCiRwtXg/wV4pbvwVG8x5z5AKWJnUKyza1NCZ5UslBZQ8qxBStGKtGMWb4qpwaKxV74bY8DVLcRam5pfwckq56Lrnt4bwaMagQNyvE2AyO7y2Whhlvpy9uJlfb6EBxiUG5HoF2kEoZrKhcCjCyTC1J9WGEosWXxCSy0jMQNTSGDw3JpVBMYmT+tsoF57ZQBoz0i6Y8vChjZAkYrJ4XGlRvJyhKUXImgSIpxDhHVf56fEr8vzWK1xWUxjVBkdgoBo7xYgQATu5jB85hDWCcc3jcUzVA7zfBtCiTNcrjKZBfscykHncOHm1YYKmXAGIyE0kqrcbG3csRuOzByMnTDLpEuXF+PjiFABH6gGMlGU3ZDVsZlOmMPlnnMALQfESnnrx/eiN/mpsRbxDOcBXu0jQgpnMAMUqpScWyjuhvA7mCvedUuN/pSBWXY+VTJhZrrXD0rrVqefnuRwMhWMIgvV0xk8AzKHGs8tpoMGsFlLX6enxE/zU2Lt6vL4j38yu0UfYaB+GAXcsifQEFyVlE8Q2N5hjR7DjbeBY5VYPc7wHpLihZBPmpzCsAMGIMRTwJG5oossOVSiDAj5XThFJy47lrpbmgR+yHEHoXs5cvhUQmMzyFjHMexMrL2gY/ZXwrRGYVbRsgBBbBEn+BZLHsKFpqBaD9CqL4Lty2ZMmDMe76YY6j2fWAdxKBRuUrfXjQwsoUMktEB6m0Aio82cB++oBlc5ZF+5G+hoOOyFksWxViDD/gZfPfDqUJQG47PrVBBJGah3W5bW5GyTbLNlCm6Epff4PISMvoPtiQCMmAMRioNMDKnprVxcNuAkZNhCCwz/aAZTuwRWGmy0YyxqIAxGK7k/wTG30EhUuHygcufrq+IRWgbGVGG2ukDCNPt5AcBO6f72EMwZhSje7hCZy8DGFkhP6yMUE4TLYZk8yWa5ywj1NgHzJtZgOS+FazWBYwsywRGHh+cItYnFH8M+PsY4qETx7xjPpoXsT2MndkIhZFPZHS7ZYwRii5v4M0xSkp5cLyNwEhql2HFvh4ZE//08Dki53RgIqeLiEJWm1Z3ZLdJLb5F5BhSib/NTomXULq8g2yRa3ow2Z4LPOcDxrRyRx+bb5cbZcNYu7/+681Kp7RzDLro/X9ZwMgGVIJCY6BaBuv1UWbMR7vXDXhJyQC1UOCZXivRZ6hfakUxsgwm+kvPwgyosXpTlnd6Fv0oM59qC1dupAadRuV2yoDRHpHwsQTH2wqM7CqXDh2EbHG0qwtugQ4zC4+8kTaLSxCec92Wj4jGTZvFSbAzpBi5lnIxwOgDvPAj8R/dbmD097uQK5cJjGxXBUCHMj9GNo9L5wBHer+s0WNFSg6D3IUAoyr/APevQQO9B0uIMy6CFpNoDF4DGaX9Ac+AMWbQcpdiPGTsm2+GjJFfTFM+Wgu3rta6Ricw2j1Ux1S2EBh/hS3av759KU1zGNGak3EPy4EykCuTPeF4zgYwnmNy5Q2upPtvlxt9qYJy7Hyq9HJSjK464gy8XflVu8JbNxUUzuM/umxglPQZXotKKD98bKtqLXt2Ck5jD+Y4KkWfoZ9iVPdwyxgAB2DLWR4tKOMS550d+CIDxrgR09fybLU+dXOVLzYwsk9kJ2ohn/ElRc0dIVwW7RVXEdGES4zSgPsV2Gd6t/wKylFRiqocF9j5QMCVV5WTZmuXG32pglLsfDxrgyLPcTGsaNLn4rTSrjrKAYxsknoW0bYln7kKYFStKiSOZ2UOzKLPUI+/zUqrerhV0XUYwYguhlynMCmpuKDMlwFj0mgF1znOEXA0qa4gW/DQrrtW2gWMDDvGlGbyLmGxor99fCe9WwiMK9vb0uNlESv9lRcY9UsQjG/8fxuMoi9VcL+dj2dvCjCG+xSVjcWPEKn1uBz+i+F648qwrwVlsl4CD+V+x6DiXCY16k72qhbsbVNNtdiE5UM46TamAUbe2w0lC2WJZOvjEu0rz8DpsJ0ZMMaNlL4WfIByyySo07cSGGEeQa+CpLQBv1Z6tjBIxDQ8GJYQfNUFOC4q0JWP9dl5C/UftvP7XmZX/TcRGM/TaquMh3mVwMhmcG4dgcWljLoGniu+dA+sdyPk372wOdyC2IaimWB53cKAsRkUYzu00AMw42H4PNozxqX94xNxBL/qNASCqxyfPsKV13XO5EJ4XSmKXHnNc4pCNs/59/UYqjxpzXVUfrVVwMjj/MjeRmDkmi9p0wHC9nON6E+gGi8CGF0AlrZtzHfbgTGQ36V/XhyTqwBG1mnWy2jtVLRswzdaUmmeDzHZYEbYeQBTslGsRFgjQU2/1D7QqAecmEDB+4bhifOoqwf2u+2C7ouuRH9rasi3jw/FPpZ2TUMg2OXcZWDkWEhwvOvAyIGgHdoOqMVVLP7kAjKbCuQ9rnw8b+f15WNeV7IJqLsAjK5xiDtnj1E4rwad8Hn/R8bOFz2mkXb0LAFoB5GYVsF57GLLoLWuVA1PmiEGo0Ug3AeIsNMM8x+V4lhp+91sgoJxDNGjXqCcUUTdqTLcAlV53DKyzzbm8jq8cHYOjyRQmteT9u86MHJ8uEyKlYIT11nGqL6ydtuVjLEQilF1npPpCCyIC8hssOM9rnw8b+f15WPeNOkuAWMxbHV0DCMTOp/FN5b5DN4dNzAyu/SZhrcLoy9xud46KP+q8/yYLpAUHn2wn/cMgAU/RsiyA3F4tizmsc9E8xw7kWI0zX46AYz3AYiPQTXSFbYX5dV6ojwRtGWsSLRrDV419PBKmzJgDEbKUsjcRmD0vyz2ZKlwSKxtsOM9PsCz8/ry2fX6jp1KZU/9N1HGSFbaTBUFiEHM+/R+uDx9vvwUoyqbJjVLWA71A6LrMGI3/azrrbeKeasYQgzeWrWVNRIGD3EfTYCq4Uo4BYrTTiYrzWsDkDM+hasgF9L6qn9YrmzYUQ93RcecZX4qiZbRrol1ADA8ctjONCkDRj1KxmMsPzAqyk5ReqpazZ6EJ3P4yx79WqtyVLmqPB/FeOpDF3WjsaXWzw7AYYMds/sAz87ry5e6SeGhybfUVe5tAEZ2sDTK0TNgKDc8r/JDmWInOgftmw5gtzgH0y8CIxfTenzaj3BiUS8szg8ue9DQViNOwXofwF6WiRTeHgKYrEJpwkQZo5rfimpsBbA+BCtOYOTvKZaw7YNCJi4dIgAKo/Ew8g+dFhjuLCllwBgeoRw4VsCvOnyBR67BsgFE3WXnVQ9YAZrKdx2BUbXN3Npgx2suYOJ5O68vXyl2fL76bwswsn/FU46OycsCkS4SGFn+PkBtGpQZjcDvI3YitdYiWASQl52pBxrrpz198FyplIFsxwF8awe7UqtM4DzNLclL059GsOmMMj7a2SUedfZKeWMH7k9Kh3BYICh+QPSfaWx3E8DRfn+Tyrev32SttN0XdQxwzIBRDYba2mDH8z7As/P68qWJ/KPqd21d5d4mYHT1Od25qwNGtm+Hijz4Op8hJNkzRGbawP5Ye3zL6dLHqFDdCIDCZVxXEPtzCfa0K2CDt6AUZAQfBkbuQER6xmPkGjIMcNuEZRNo20ivr6S0wdiR2+uIAbAiFqCYiUsZMLpHB+6D0Quuwcooxug4ZcAYHRP7TJhyc0w2+4aCjv3lhestpNBkVtpV2jwoxlm4nL5fW5DL+jKcGBU0rsR5I1lssNm9WFphBEoWarspG9xGcAq1wBaXQrgPzbS5JIKrPPPcDoBwEVF7Xq/MY22a9QwYzcHBfiDL9c8bM7shcwxO32VgrFCyAGOEXBQbL98UYGScQMquTLbHXB2HYg9XH+kSiMBuAubDxmgEu678kUxyjMyz6SakeUf8vr+8ywZG1c4ZUGr/OvFWriD4j/cfwdxmSF2K3XJphS7MvXpEFT88aYVM8hzz6x6OGRfAfFqxxciLk5sr4l8/vkVA3SmER1uNvcH1rsfeYF005xQv2SI0K3v+0FY25S84d6LPuRwG3s6qrJMhcHQN1k2nGNPK+RzWF07Q4PhdFjDaHjKsu1BWulhgbMBUv77A6HpaHJ2LlzEGtUT/E5DnsU7LKYKVHMIovBMU4VALlzHwe82YpdRXVUPLHWWX0wIOyyJL/mZ5QfyPT+/Ej1i8az1nJmTWo/Zd77q6lmZ724GRY5AHR9dg3XRgLEXO56OOLgsYDeel/FwtFBh5o5rEo6BABiHIb0RkdCZ6dkADIvf5j8+aNOL28QFMQHbFMjyG7OQbEztfmHLTddj57OPStNVXC4zsyzpd9U53AHJr4j9mPsqAs4+xtswgQLIlgQIsBATtcTuC5ptU6ysAIxftmuA6RjFyRte7bpcZd6zmlMqTtu03hWJU/ZLg6Bqs6wiMLuNul7lOKaDIgfGBQMnAaICRegBpt6UAI+voR9DfP2DtnEF4aTCWyxGE/maiMTED/NKv/Hv4mNvg6BsTswzuFwuMvLd4bbVdL0tLm4qTMarSw/1FMFqY5swjstP/mprAR2ZH/HlkTPxv409lkGV7/qgySt2uI0bk/5z6IP598p14B7OgNShjfMn1rvvyus7fFWAk6+6M55gBY3Ra2BPbBxY+YPblj9YUPVMqMFJq1YaYlk/gnfG8bwggVAHWTy/TSVc8yr1oOFwL1u4dAvuaKW3bw0CRnmKUdRWY3WxfuF7zStJ+eYGRUjemJRh174Ca24RfMyP1dObWmO5qbJKKmFponO35lNRSdZ0fsDNE2jmCdpzrXO9CEfQKKxn+NDcpfpqfFjOIO8rFuFzpJgJjsfJF9r8Q5Ys5XqrOPFutLpYHGKMzPTyBo5NSkea2ToQG3pdFMZpsphoPbu2J7AOL1MAYHR6zutB+OYCRBXI9kfsIevCif0iy0Lsm2wWwbIJmlS6Um9Ca0mREJV9f1XW11c+3gM7lbta2r6q09Ftdb/p7gpzROVhICdF6db9pOHNIcxyY9bwEq8twYZNgdR+BxR6HveJwS2dEFslAEUzqPZAHjn+fAYizWIVwdmsdvw0xh99HeMG8RszRRVCMGTAGg1YqMLKUEDjeRmCMD1Bgzj49uc2zVwmMLrAuNlAtw/j3wLWNtnVMXCkPPilyn89dvZTdWJiexsdMGTDKYYj8SwJGdcMODK/fba2JVRh4T0JcsQJ2W0XIqansldS6yqvGXx27tvSmWYCZzluslf5yaR4yxjmAIpYEBrUYRAanHDl6ZykUo81Gs/Q0bWW+UmSMinpjOYWmcgAj68yD420ExrQvt2/wyw2Mfh1rtAXnDj/jYoGRk/keluasM7ShQd+ibxINlLkyY9qx00ARLSvaq/AZm2IMoDqcx3dUvPj2YilGs70MJnEADxq6BnKN6WqM6zEAc2ELANe6gJUxO2Dk3SWXDraXMjDL4b3TsFnkkq6kQPn7BOPuj+tr4i2oyCNcl8nxCDJgNEfSv+8CYwmOGTBGB63cwKhBJFpX0hk3KPIu/TaYX3jTMo7ASKBjsFPKqJLSKeRZyJoq6T7pdqS6EZlsYOR9aUtJmy/alssDRrNuUjIbR8fiLb1VQD02QKNcBxvGh3A3/K9PvxL/R+MLaLj9S3mcQr74G0xz/q/XP0PhsiTjR5JSZNDcPDCaFeb2M2B0DIrjlAsYmQ0hy9xTzR5YJQu0SepgkkfL0C8Oq4lOSlWOKpe5mMohY7Spnmjrgrp8/0sBRrtu1hEeC1+t7vPlAEZVMoX5SSlFFlmE7lOho+sGxqR2lX49OgcLKVP3V92l+x3nnKdYS+lmiLXPBX+5tAS3wS+wlrpcXjXPw6mrekvKcR6mOt9D6fIOboZpkv3+prlH5TE/tOqcel/VsW+r+uu7Hj6vx5DnfSAVvsd9VC5W2izd+UjsgVUAZg/QTQBGmq0Ukq4TMPoN2HWfzInsohgL6XvavBoodDvS3uuiGPW9hQge9F3Je8UDo+6rWYvudxpgNO809/cROecEFgJp0gmo/ssIO2bOJ9Uu+71X5+3tbQJGEnSR2XibgNEGOvthJh27qEDe49JKu/ImvVhx9SOAmueyfjHNiXzzgVH3y9PxIk9fT2BkZ2ph5pO0BozqNDm8Gs+SCCoPt/b7a15L2jfnk8p7V4GR/Q+9gfbA3mSKsWBgtN5NF9hxwEoBRpc7IMtMn3QjzYmcBIz0ky5H0mBfeIHxFGNQHpZCK0czjTKuLzCykfQISivGYH5ziVUe28l+f+3rccfmfFL57jIwcgzy4GgP7J0CRjUbctuLAEZfmVbVMYcakMyJfFuAkR13MDIx45F06XoDI4HHI+73dixORGS/v95CHBfM+aQu33Vg5DhImaM9sMUDY/AC21SCGmhVrnoAF6F8KZhiVI3JbX0gVgrFaJepYc6qPHeY/2LlL+s7zImcFhgZRKKUdNEUo2pb+SjH6w+Mqs+FAqS6z9za7695LWnfnE8qr3pf1bFve9tkjHY/I+6DCsDsAUpWvlxjYEw5A31sb7mAkQbp1ZAz1SO6c1ziIk1cXySgFDSwmRP5MoBRgyJbq9sR13bzmv2RNK8VU174ft/RzQFGXw8KOZ8BY7rRiteEu+d2iEi5jcDoA7x0Q1qajNGmGFlnYG8Yb1Jzxog5Mot+aHcBGEtnqzNgTDuvzfmk7rEJInXe3t52ilH1N2/KcxuB0QVOquNptuWiGFVddP9aQaSWd4jSPIAwVlxv5BjmHCrVwIOFASDmEG5/Dfno68xkTuTLoBjDLpcaoFU7k7ZFU4yFV2U05eYBY0qGxuij3s0oRj0WcXvFUIyqPAmOGTCq4dDbcgMjS2aYsAmElPrv717Bt7kRawmfyXWPVa3VcPFjFJd1BH+YgKsYgxeUCxjP1UNWlfm2IYAKHfjuCJ0vFhgR+LqEdPOA0bOiaqoxyIAx1TAlGJUnz214yAQV2ST1TZYxXjeKkSPM6DoEu0lQhfemEBIfUXAYeuqzYctBW7ZKAOQ+As1y/Y9DrESnUikUY3HjkTx5VNvUtlhgDMs2VWlptxcDjHHG3WxZWtbSfq94bwaMHIV0KRjnwudiKRSjeraScrQfYAaM4QfnAhfXC+3Kx5JU2LEDsMlL29twF8OC7jDopfzxnPLFXKqoqBRcx4a+tBtH++Io5wt9+cCoWpR+mwFjdKzs94o5SgHGgm1/jCaZHIg67WqfumZuFViY5/z7YSCLByl/KbxylcDI+qvsAbrLwOhy13MBXjHAyME+ARCuYp2PLcgaSbEbuIirwaTi+RNoY7h2MX8ZMHLkXImRg1znk8+5np8a/+tKMar2JfcumuOmAaMG48IfcDwYx5en6w3GMK+Q4WEpwKjYc/PRuOwYXcsa8B6XjI/nbXDy2THa+XivTCVIvV1lul4sVz7WrSjGoCHB+DIAgcgpWtR5c+KbEzkDRj1C9p4rpJudx3Xsen5q/K8vMLp6ku6cOZ/UHTZBpM7bWxss7Ovh4zDwxINU+E7zSNcZLs/M49uPrzO+PF2vLj0Pji5gDE+koHD7a82Bvq7A6ANS3X3/ngvwwuMR3OvKxys2MJYzug7LVy6BLgNvX5t4XzmTPRfCZfsno2sc5b0qLmG4oOiRI9ZlNFP0jLveoJ0ZMIbHywUW4RzmUfhZx4OUeV94X9cZLi+cy30UX2d8ebrecNkSHDNgDA+KC1xcL5YrH0vKgNE/GV3jmB/90lTW+WJcO+56g3beBWC8GGqRIx1+1vEg5XoywTkNUOHy/HfoK/F1xpen69Xlqb17GTCqoQi2LsBzvViufCwhA0b/ZHSNY3j0L+bIXW/QzgwY9ZjHAYXOZe6Fn3U8SJn3hfd1veHywrncR/F1xpen63WXDcoxXEB4IgXXbPbptrLSLm1geDyCQbxoYFRfebueW8lKu+dl2c66np+a8xkw6mFOAgqdU+2FcSMepNQ90a2uN1xeNGf0THyd8eXpeqPlqjN5mSNPhCfSzQdGG1xUp93b6GCGxyO4y1dmuSjGDBjdT6eYs67nV05gVM/KbltJ5jp2YQUc28oXX/vsItMARfie8LsSD1LhO80jXW+4PDOPbz++zvjydL2+0oPzeXAMT6Sg8JtMMfpALH44gqvhsdB3+Mq8CcBYUaQSQ/XengvqfLD1T0bfWIbvzx2lVcg4bw6fdNcbtDOOYkz74viAJwPG8HPwHelx9s8d372XAYysW4JjeCLdLGB0aaR9IOYbbPN8eCz0FV+ZNwEYfX3SvYvfuxRgZBPKpJCJ9le/gBkw6metAUqfi9/T48h88SDlL0nXGy7Pf4e+El9nfHm6Xl1e3N698EQKCrdfBn4lr6O5TrmB0Te0GTD6ppBvxGwRje/+4s5zoTD6pbtSeD4zh27jdQNG+tqfGu6jrv4knctYaTVC+jmrM+a2UGDkvDHc/YPCbxswurxezEFT++FINOps1AhdXbl5FKPxqFUnErb2XAhn90/GKECF7yz16DPYb67IZ6dovbqN1w0Y2fZT2QHtPmr3J+k4A0Y1Qvo5qzPmthhg5P05mePtBEZ63dB/OW2Cp3Mo6+2hGAsbBw7CpQMjv07h4Q89C31wTzTV1In+plYxv38g6hAUuBnBgaOOUPqFicKoWZrej9/T5Zn5ovWaV937BwhTtw4vqcHGFtFYXQeuzF22++7gbAaManTix65YYGTpAMegcPtluKmsNAGRrIpyRzwF65JuvWawOAarRmCsxtjQz9lMN49iDJ7v54jLotkraz92vvkvRik3q1zvYa5Mf9H5O6lY6m9uF38cvC96m5qx8HqlqKnK6xVz+VIUxJwps+Urt3aKwDRZQhCq7kz0NbeK4dY2zNXCqPoMGNWDiH+ApQAjZZtyVt0WYOSQmcDI4yrER3TJJnnNTIyIw0g5TIpivApgdLkDmm2SDYz5FwYoPXnupVjWM6bY3CVdnp03XK99Ne44KPM8JT7cA5AMtraLfxi5Lx7u9yLKDT5iIRWxbmN5KEZ3231iGHfu8NkzRFs6RTi6lrp6MdzWKSzBfzizdZQBoxoQ/ZzVGXNbKjCyrKrbBIyyQ7nPOVmVRy1tog8vUi0ibCel+upq+SUfbGgS0wd7keylUIx2AAkWrgBYVUQD74sCxubKKtGA/lWFQETVnHbrn4ylAqM9B+NaxOfa0dgoHnf1C7KnxNSKAimvuPLTXCuWYlRlk5OhuKcOz6SrsRlsdbovgw3IPnMiVY/algIULCNeQ6xqiW51vf65E70rOBNfZ3x5ul5f6fZ5XZ5Zb4gfuamstOqqYqV5/LS9U3w1MCKe9A6Ipro6lcW7bUbw2Qe9fWJxd0vcW5oXk3u7+bw3GRgpGhhqahJt9Y1Y3Cv0uPP9S97Rk8fOe5nAyLo5R9tBcdVX1YjPuXiXaZVudtuv6vhzbn3uSkB7LZ5JKpmj9QgyYHQ/vXIBI0vPvy03GRgJinWgiviS1IF9HGhuEV8NjojvhsfFw+5+0Yh1WZISWZyHoEb2Do8ke123sihWsFwBWWvqdBh4dhca0kKi61wVxUhArMF4tAPwKZcb6+gSo/iRekxK1juI7NEzqozLBkZVb01lNZaTSO6Lyn/jt5YdXQaM7idaLDCa1KJZsgTHmwyM7Ay/vF31DWKsvUs87OkTD7p7AQjdYrizB6xym9Rump127beAsnrePyRaUc4DlDG7sSpmtzbEzMaamMd2DgteHZ8cu27FOQ0gSiZ0VcDIBnbW1or7oJwJig+7esSjzj58JHpFB0QGSakyRMnoftn3XRUw2u24C8c1WDqDIhEpQjDmWlzfiwUKVaYPMNR131bX6587vnvj64wvT9frK90+H5QXV6eMBG59mGQpVx2o1qVEseV0bCgppEEA2igE23+8Py7+8+MvwEoPSjayrroGrCRXf44fWJZDtrqhq1eMoJyD0yMscrUvF8P6YeaTeDk/Q8GW2N3gui62mF+XfR2AkfLF0bYO8c3AsPiqf1h8DdHC4+4+uaoh+5mUqNUmpWwCvn1PBoz2iFzsMZU3wVpDeq7F1VgsUKgy4wBD5XFtdb3p2qnKSK4vvjxdryoxaRuUl1RvfoEts7jrDoxtMN0gy0hKqBtsY08LTCJANX4N845nvcNiqL3D7E7qfQJyJVjPWvxaQUnW5lg32tVxtUAKz+e2N8TawYFYwVIHJoBcJTA2grJoB7XYg7EYhBKKVOJzfCCeQKQwDuqZy72qpGw5XR+M/eNjsQZZ6xHWuPGlDBh9I3Nx55d3dsT24aE4Cb5asRUVCxSq0CTAUPnsra43Hsjs+5Lriy9P12uX7DtOB4y8Oy9z5AFBkanKClJwmUsbJFGMlC+219aL530D4uuh+2Ch+8RgW7vogc1YF2SN7XWNsg+l/iN4dDc3ie9qxsUIWPTHvf3i/fKieLM0J36ZnxaHKytCLnmAiq4SGAnQbTCCfgAW+o8jY6AYRyX129XYJNrx8WgEaJqJ/VIAaZ7fPjoUn7Ac7DSo412ApCtdNTCy3S5Qd7X1tpxbgILw/fqSWN7jOuY21xLuZbFAoUpJBiqVM7zV9cYDWfiuNFrw+PJ0vXbJvuP0wMgS8uB4nYFRKVxaQQF1goUehjztm+Ex8eexRwCtATHU0i5qUigb1JCZ4BD3slHo39nAX5PoAdXYjV8zFDf8gFMCtIIJuwNzkv3TUyyzCh0kLlCBo8q0xQDlNNepQi0t6HNnQ4Ps/xc9g+IvIw/FHzEupKZVG1Sfza19bRuLfn0AML5cnBXvsK72DoDSTlcNjGyPajdB4gTL2porN9rtvbHHkHFRxkhTn8W9TTyPZfE7nss8OJajGEP+YoFCjVMGjGok9FaC43UARsoObU8WBS5DAMQhyNFGQB2NQy44CiUD2UUedze1FASM7DpfMvrmEuSccgU9Pvk9KmyG2+F5A5leJ6gyKm8WoKhZ2NoUCzubYgbrTM/Kr3twi2o7j6g93gU1Xi47xkZo5EcpSoB8dBxj8BDU88POXvEop3RRIJJvvGeHH4lZtHtifVn8MjcjflmYER/XVkClaDMm3nodgFF1gXNkAUDB9b93AOq0UKCXzHVI5y7hfRENq4PjAvs5j7n1cnlevFtbwjrmG+LAI+7IgDFpkAujGFVpVdcBGMlK+4CxHdTRKOSJ347cF19CpvjV0Cg0sL2iDlQkv66F2riR4jg8ORVHpwHr2FBdG5LJqYGxt5z37ZA7ttbXi6dgsfePjsUUNNpvwWa/XJyD4qdSRopZOtgXB9bN5QRGFt0HSvYpAPGrwVHxNZQuL/qGpFiBGk2TKraaETlc398Vr/Hy/Tg7LX6Y+Sh+hX3nFNpvpusEjGwXn/ksQOOvUxMSJKugcKsuo1kPpmKRqegbg/qM26sB9vh0i8WdbfFqeUG8w8dgPQNGOU7FfgiKoYwl5XidZIzNAJl2UGnNkJVRg0xly6OefvElDbr7BkEdGZrXFDOZYLEDYfbW4b5YhTnOOqi7A8jUTsCi0EOhDyz5AGSWbbUNUhHjezNIjUmFTc6bobW+Sjyp6gcleU/a3NFNsQWy0PmdLbEB+8h1sKb8baP+UinGWvSztaZaGj8z4MIIxApfQOHyHKD4BNTiALyAVIqjGjkWhxAD7KJdK6AOP6wuiV+hiX+1PAe51koEGOtQr+1CqeqJ3wZveiGeL/Hl6avngI2V/W3xdmVBfFpfhetgJTygAumQ7UGi7wrvecconaNKuLByHBnAKClhuLISHNdgMfHBAka6MyihR7FAoZpcDGDwXl2v0XBVaMw2ub748nS9MZWELgXlJdcbuil/UHWdgJGtonzvGZQt43jpH3b1idHObgBkm6TaqJ2uhXlOIekEX9wZSeHNi9/BNk4AEAgOZMU6IJt7BpChJw3tAYdAoRaSqNUebuuCkTmMrQFQz3uHxEcIzz+sLIkJsKdvIcc79Sg36DIGo5nE6ki5NVTBsB1t/aofhu1UQoGF7m9tlWPVBpGDKxEIbRA4xQdhGdTIT/NT4ue5KbSVtpybYKO3xSo08GZivdcNGNm+cyDgNto6BXHAr5DH1WJsmuEemuI7meue+wVMf785Stgv+sagnCig46nJMs/FPgKhbFlyxgwYrfF3HupnXCwwsti8QoYHV6GVJlV0BFaJqQ8vOuVmX4NdfAEPly+xvQ/ZYg2osrSJoPAZxZHKOz47gQxtWbyCQPuX2Unxd9gs/r60IM1w+ELdB1V6IE1yoEgBu03Wvr+1Q9YXxAsMqMW4uknd8tePsu5D/teLLb1taGMpdYuofw0AGXjWVEilDRUzaYCxHrx8J8rug1yVMlYC47+MPxVjnV3SfS6uXSYwUoGxh36ugmp+B8+f/5j6KP4/sKWTkJlu4vxhbvxVeVfFGFz1UwAAQABJREFUSqdbyuEzFGAnYhUigQ0Cx/GZWPMa56seBVtzTMwrkEYUlT6XCIzKykFV7mufuq62xVJQ6v5iAUPXq8FHlRm3Ta4vvjxdb1wt6pouK7ledY97mwfHiwBGUylhVm+a6zAW3xN4sYzihR8BlfgA8kSa54zgeDAHVOa9SftkG8k+z21BQQLK6BPYxY/LS+ITqEeyYbRPpK/0GijKauSrBFjyHub7pXVK1klFxwAUQLRrJNClSVKzjYAI56JHBrroQZ/GAGhTKHdxexM+2zuyXfOQ6cVpHVVdow3UQrdBCdQhKUWOC+0Wh0Ch0q84bdpEfdNQXkyi/6Sa+bF4C8p2GsC4CAraTlfFSheCM+dQpqlgt2lfHB/wZMBozwD3sR5nDT7unOGz8QCVXJauN1yu+0iXF1+v+27zLOuV4FgIMLoAzwQ7VYErH6+ZeVsp84N9IhUL//L4qVS40F6RbGo9QLOywJlLCmkNbON7yKP+BsqI1CLd/1YhA9w+OhJ7AEQziMQuQPEjQHRhd1v6HdMHm+DzDdrzp/sPxRPIOhkYgOxzmnQPsqJuBDDtgK3lAwD9DspZBii+g1D957lp8WZlXpysrohdUD1xqb26StwHQNPL5UX/sPgSP1KOgc2ingBxZfAaKWEqjX6Ym4Q2Gqw05IsfAYp7MD0idW2nq2KlC6VUGYWHyqe0L04GjMGTLhYwgnFOP+/UvIqvL7m8tM83qE+XF1+vap1/q+qtukxgpIlCC9jZVihbqHTpAgtK6vBLsNBfD41B1jgktb7+ZkevMHDoztG+VIIsQxkyD1nUe1BIP89MSvuw2d3dvMufCYwsifpq3r+NnyB7DSXFWk5bS6dD2v+td+0CMDtFKyhIyjvjwn5J4AcJxDwEVBph90KBQg8VAn1jXQ38vGtFKwB7iTaSx1CO5GRKLRibZpTflaMYn/QMiBcAx+fYPgbF2ICPRZqktPFUQs1sr0POOg2j9RmIE+bFb5CD7uMD4kqFApQuI5iUxSpfiqlXOoSmJDUzYAyeVLGAcVeBkaOWZ6v1ZMdJx8RzUYImFajud+XjNeYlpUhPDtoIPoTxNlnXAWiLGXOxF2wozWEKTWv7OwDCT+I3eK3MgG2m+cMKQHIVQLcCDbXyhbaB0RddZwvywTfwhFk92BVvVxfEI0TqeQLTnccAKZoQ+RQgvnbXgAocRj8bAW6j9LRBeTS0fkuwWpwXk6AsaSbUCU33g64uKVckIFIj3QNgJWtfD021nVwKF+bZg4kRKdSfQCm+RT/IUtMOc2F37wYAYzrhX1SJYY9OcHw3gVFTUGpUMmBUIxG/VRSjmj0RcLwIYKQvdBsVC6AUCYz/9PAZqKIR6enSiZe/0ER50zFYZFJ27yAz/H7yg/gbfpQrzoOFPrCoo7TASPNwUlbvEOyWv5mtLbEC8FoHAB9C6M9pR++cZsSHpIzR9XGw+8IXVCltSCXLjwHGoQlgyWCt1VVBqLV+iBO+7BsW/zz2WLL17fVNsVSq/eIfnZyIraMDaYxOYPzvH96I1xAv0O5y8xSUsScVQ7kFRZWbYix8nRtPl+Rpe3xUXhDwRaWboXy5XsCooqhqginaPvUwKnNKwcI4EF1esR8AVb8NjDwfAsdyA2MvWEhqb2mHx2g3UuGCcGC0WyRl1Aa2s5DE4KYrAKpFmJ/MQ1Y4CTbxI6kwUGAExllQi0rzrcotBBh5j6lBXIXCogFsOl0DCcSf1lbFcEcHRAGdAHpEGYd5TXtDc2qWl+x2Xwtc++Atcw/7TWDV1yTlCFdAaOo5RmShSS36Xm7VL7WlWGARtnAzGA96t3yEtws/GO/hVTGN8ThwCBexHBVECucAd1VKodvgxsImsq4jWm9QXqEG/brE8J5v7DJgDI+T76hcrHQDOMFuEEV0+62tDBZBU884wMJzKRenQnSDtrfHh/LY167weT15LwIYWVceHMsNjKSqCIxfQ272Bc1y4NlCORopRRpOV8J/tNC0cbgHG8JF8QoyNCoYfp2dQpScLdiDnWJNDvo2h0tMB4x6kE1gVDrqNcjudk9WxQcEZKidmZQa5GcAd9pHPu0Duw0w669slZRkuHb3EfvdiwAZrXUN4inKOT0NZICVNCaHPLYRv0ISxQq/w0PnV8gWf8J4vMHHYgV2gCcA9DO3ePFaAiP7bD2+QoYhnzcDxmAoigWMcgFjGwkBiIpGwS2RK2qEPJ22vUpmT08nKgzPIHPfAjDOQvQjaNUB7uck/zR9O/qdLbafqmQXxaiuSYQqJzA2YFDIQvcDAJ7Co+UbROP+YhAaVwBkN2RohaRjsIp7J9AyQ462CRkgzXPorvdmcUH8Dhnj36EF1iS7LtkGRV5xyxj1ILuAkfeRzd45zz0uKG0W4bVA+0mG9eIXbw8yyvW9QD7YAtdCKk4qMQl8iR+NSrDkZMtbhIJgX+7oeU6oU2ibWT8DX7zFGPwIbfTvC7PiN8gxP+Y14bpvdilRys3O4TsOyiw3xcjaPDjua4jzfAaMwbAUCxjFAiOF5t1wqmiETqEVINgCa5NWYEAXOMNB6BR6YadLSxA596nPwI/gyEAttDDZBiDSlpe/TYiztvCeMfjJJkRZ/IXtcPW8LrafavLEASPzwENGV6ZucgGOS77mykcS+hsA4TcwWCY4Mqr2MJQwZD8LTYtQrNA27wNkZxOgGOfA4q7RNQ+gQBMZV/3lBEa+bHYd9BqZAbVKymwJ7XsD32QuQUAqkFTkSEen6IC88KLSGYzVZ8FG/7Y4I326J2FHOY1x4VitgPUPUvSZqvZcR2CMWluq1qbfZsAYjFWxgFEsMLK+DhBEw+AIn8Jz6yGUjn1SkYh1i8AdEShroZRkpCGCImcmWWuCIzkFbkls7AMEtwGKG5CRkxuaBRX5EorF3/DeL+BakPS8LrafuYIsMzBdrrrObYS3tcGAmdICI/NS0fAYQPEvj5/LbTcoyNoCjJZZBtMKbA9pr/gr2OcfpxEUAaz0FDTRx2CfmVztvGhgZL30bqHHy9o6DKs3N/GFXBb3YZqzC2Ci/I+UXVUXTJZSGo+zzDSJ5e5j8pBafA3q+X9MvBV/hx3nHEBxDee1Esr9oFlHBoxpRhpUrINgSHdnkMvkQnjGB9x2mWFKxr5qH0efc7GAUSwwcj51g1KUnm0dPVhLfFR81z8i7rd2wdIC0bKKsD6hJ9cS3Fk/4KNPFlzGFgXHuIV3S5mhFdtPNYLhcY6Oo8oXAkcX4BQCjMzLQADdkDEwtJjLV5lfCiYlmFUNIXm9BZKakai5Zgs9SyYAjvRTppxxCiBwnLvXbCfDgZGauyxgNINI7EFesocvHZnoSkwEPsgZmM68XuqEOyHYiZYWGQPSFdTCZ4rjOr8GVnkJMpkpyD0nN+CzDROdlwBIuv8tYTLpFDxopXDR50sDxmLZaNYfBWQ9GTOKUT+h8Aurz7v39Biq68UCRrHAyGhZBMVRzPNHAMaH+D0HUfQA2x44QrhwQ7U1bkv2e6CyTX5QuEoj7YsngAWf8F7N0UwPSpsViJSKTeFxjo6jWW4eHE3AURlcHXTlY36Vl1pYBoRlnMVC0g5sEqdhp/gjbBZ/mv0kpqF5XcJgkMym/68LGFn+VQGj2TdSkvsA8GnE3GuurZHsBLXx30IJxcjc9G7pqy5M3qrKJ8vxCWPxywKDRUxLY+55sBw7kMce5AzIg7z6QVMTbaYoQJlX4/YpVoi7Hn8tWq8uzAmMuY9ffKn6qo8iwxQsKmUUY7phYyCUIcgTH7bDLhfz+08IJcgF3VprGkQ9KEmFBelKi+aqBQtOzzkGmP4Gy568hpLx36ffix8QOKYCIEm5ZJolI+ySCwFG3ivB0QV4rg668rEQMy/3a2G0bK5bwjwqKYqRbCIVLrv4EqzDi4WRjj8CYAiOPxIcYa6zkZc1BHe76r8KilH1hVu2iV4uuwiAsAKQFHs8uyaegf2lwJlSAK7Nsod+djfSW4ZukXytNVDwDpV4ntTjCVTNOxBUT+KD8fPCFLTz8HSB0uU/MEbR5C6L+aIAFb3bfeaSgZGNKIiddfc5A0b307TPFksxUvkyWt8o5Ysv4MjxbT9cXHuGIGd3R4ey601zTIyoz1ltkJJkLIF9xF+lRQoTrVM+QWFTSCoUGFl2lQtwTLBTDXDl4zU77zknOGxq2I04fxdqXF+BNaTWeQqUEW0XF8E6kqVehLzxpgCjGh97Ow/xwD2Y1zASzvu1RShrGK27RypthmDPGBeBnMDISEI/zH2CSGFZBsWYAbVIijGa3CDBfDcKGNFef0+ivXadyYDRNSrRc8UAIw3MGuHMQbvFx2Cd/4LlOP40MCZX/STre5GJ5f+hb0SaA1XAPWoTRMMu8CMte10MMLI/ebZadc4GO55PC4zMp1T0NNimHM6XDtG5dzA9+X/e/IpFq+DJAe0z5Qmu5Kr/OlCMrraqc1vo39bGhvgApc3k5qrUtNOlkRHMB2D7FZdOIXxmMNf/++3v8HKhK2MwGWx2OQ5ObhwwloiMGTDGzSh9rRhglHeDYuwCMN6HKyyj0BMY/wh2+rISNeAEyU0oPud2sGQE3q9KaLUXwX3GpWKBkTLcEDiWCoxxjbSvfcZavKugED8iYOkvoBx9L/NFAGMLaBQVyJVsrKuOci2GhWWgEM15W9CDrwYRfrikwTk+HPhy2EOSP+YHZpMyWGjp3kHuaqdA4WKf1ce+sdQ5fHtXwEqjKeEJ7Gub/3wGjP6xMa8UC4wECrr39UIG+BUWcvuayx/D681OlHTb3zhpZUFbRfwOAGRHMEXj/CbW0OmhAYqdenjPMAqXfa+SnKvzZK8fd/aJteE9+S7dA+e5CBmkL4XnlSrFl1ufZ3+Z8uB4mcDIijloewgjtg67Rd/L7AKtJIpRa2r1YCjTCmqaa/EFlAn4RJ2Xq45yAWNQEf9XiEmw1+2wR2R/2fekdIQvI2WVruQ+G+T0jaWrnPC5qwfGQBgTblXSUQaMSSMUXC8FGFUNQwgOQ2rxG8QAoIdXmkTTnBWY5tDtl8vL7uKYsRFo1UJKsKcBFh1NWH/+HlwiHN5h+i0OahuDSKoe7H0T1n7iMhI/g4BwKWdKBUbWJsHxsoGRFfPrweARO5bShdeYXKCVBIy8L2A9KwQ9dZpAqTUhPBoj4jDiz2fI8g6lwekJDE6PEYI+EPDyPpUuAhhV2St7CIohTW/iwZHrh9Cf+9AZMMKeLqr0mydjDE9gfkLSqZkr8HJVYP5kwKiffdxeOYCxD0A2gHgCjyA3H0VsAaVYNetVM5Pv9iHeba7bNAM9wiwAbBHrbzOIyw483s6gk6iBuyxtgcku9++3iOGWIzEA8GWQlurcg1XlmXUQQMewNAk9aL5vRUDp1XoEiQkvCheeV65SzBL1vqIY1ZmqqwBGVblvWywwBuUFgzHQ0CiXLbiPoLNcvqAaQLkEhcYUtL9z0IyfIOIOfTrNdJHAaNZT/L7/Qd9kirHQ8aB30iHYs2JSZq6TbtRMoBiGec4jUGykHOn95QJGs9R1xEDgetsTG8sw5l4GOG6IDQAll7fgwnbknKrgYlsLgqUBYMcA0bSTfAwPmwfwsKFZUJ2xoqSLXSeIsj2PYE5UWQHwhSySy2aUCxjZnzxbrTrnAiZes0HUly9p4FQ9zHcPv2r8zOQqNw3FGJQRlMUQaQREujB+B1tDrklTi4fwBgogmglVzN9DdHB8bQxwvAxgZHgyOt+nSRyb8JiHx8ks4y4BI/tdCZasmLWqM2A0Z41/3wbGhwCrJ6AY+wFGdSm83eZBLX4//0n8vDQrF5mbwvEaxERcgoPzmokS90N85E7ALwwC6KZBsDCGKjm7FhyTilTJNfMZoZ/h/2iAfoyyt8GB7kKPoZPrLn3V3DP7a54PgaMLmJg5/JK6WV7mc/lp83xckqY/uQyu+tMAI+WMbfi6tYFM72psgmdOB6LmDOA3hOji/QDKnnw0EBn5G5F26Hmj0mUAo6qruK3/Qd81YCTr3QGu4ClWi+RnhuKSNGvqmPOsqGcQeQSRE85irW+/M89FnAzqTddGs/5zDCoptVPphXIPSpgmGaD6SWc/WN92gGMIMvK3khqkw4Jcaxs+0fSLfkPvNmiWd3LiKxlAAvl0Cto3ByKlEhYdbDMjdtEnmyDKwNI0CHcRXATpPiiIRmD5wTrrEPVeKhFk4en77QNGFpPvqQuYmOEigZHlq+SqPw0w8n4uv9Ajly4dFv8wOg6f7j4ZWZwsQDuWHVBhkhht/EXfZxmkoRlrzDBlwCiHoaB/UUDWkzEsqAgXG2Z5wtfSHvFF4cJjfx56AParW75EpCIuNOnu5aqJnHBXnzKb++bizxYLjKpGJfPmWHfA4HsULPVIS4eMYeqj2Bk4YnITrq0IFPMj4iC8ZsAYAxhV2XqrB4cANQG2+ASLvzHxeZKCfNqBhfawpnx1RfT5kiXvAjs+1NwuJhqXDU5Cl6vrcu/FASPvkLW6gIkXrysw1oE1pdK5BoLbztoG0QVgpJziDyNcuvQJlnfFwlgwEbATHeEH8aCHMeB0T+pFgNxVaMzxbcJHx/yi+alju8wwUKR/MHY50eP4ssL1Ru/2n7l6rbS/bclX+MJSiP81PDMY6orHhS7EllxLXI7456LuDABKHd2ArdEtEnfUKHOtHka9729qQ/ixRhl2zMcdHsGDhdGhfgMr/QZOD9OIhaAoxmjvdWUmQE1DWVmHMppr6qGUqYI7IutuFWAKI4k6hE5Qlv1490lpBgSQLjdyg3XCrNe6lD90esjwasnAiGjXaZKL3UmiGJsBfKNY1H68oxdg1y6DPPRjy8XuGezCBYyqLRzEPlCQXyLGJOMxfsDXagZatFMjUq7vY6HKUFsNUOkfirq3lK2ut9BSbjYwsrf8KHLhsodAH4pIAhC63PFPGvUbB4yODik7jjrI6psAUgxWKz9Cns4d4lnMAxDfUwGDkH5beLfcST8rF0BtACA/ba/K6F4PwBmoJXjtsqjRbkEw3U6EQmxG+wr5QLrqtcun/XOUXkWu0oFRD4BdaejYMdBJwNiDhzSIMGhf9o2Kv4xh+VTIFgdhkNqJF6YOJjtRM9RQjfKgHV/B54jkfQijVALkEmwPKRxmyoBRDkPkXxSQ9TMuDytNn/LkxEnbBIF9AxcdUyttpfwQJ5celyOdIi2uhJt4jU+Z1LlSpOinHu7NMd6j5f1tsNYbYoGBIcKXc0f6bh9A7UPjPIdYC63VsAlGOachGaUulG2iWQ9tJQngNmbpnOE9X70qF+eXShFwtCvxgYWPvM59ylX5BW1tYFTRuzvQ+Q4MQndjo5QljkAT/QU8Tb4cQOw4mOoQGAtJdaA8+dWhISu12GQfmHx9tcvWQKEH0s7jPS7hHdP1ekv3XLjeFKOakEmjqcK5cY5WOuRQns5npy9hBGREbyg6l6Bx3pDKHLtS/XTjAGoPYLgH+WUXCBYGpaHNZFxqgGKGZj8QtMVlk9fi6mUGNQ9VQSFwLBUY04KLqtzc+oCReQYhV6D2mWvQPO0bEGNgn7txrgXg5ov+Y5Zt7zNaDg3QjyD0pQ+4FEA7qFj7Ph5rgNIP25XPea6IW1Q5ul51Ju32ZgBjmt7YkzfNPVmeyxkBfrgkF+Z06tATPwmgVGu3YSzOpUCSvKZI3FRDw81F6+JSUr2uuZUHx1KAsRRQpKeDCYz1wG+uWsawXnQx6gELTGD8Zvi++Aqx40gtUplSSKLcggv5nGAxq+3jAxiCI3AmDFPXsJYzv1KQXKUqTgNUuvxmoeWNi2iWHLd/e4AxrpfZtasfARJ4ksiIUHr6XUkCqGJ6Qfbapbcwy0qq1wWMvF+CY7mBUQ+H2UR7H98aAqN1ugvuflTfc8UyLn/aD3niKJQsoxDOcs1oLltaSKL91RIExAz3NYPlDLjIPY+X4M7ENWC4Fs0JwDMp3SVg1H01R0U/1XLIGJ0TUldhVpzfV2x1/kS2c21GgIwXvV6aoSjRWmr9QJMAyu5IE3QL1EjTrjUunYLoIfd3ruTPVuakep3zMFdGxH3QRwW6ZIyuvCm506B69NvsOmWMA1S2wEzji/4hyBWHxRjki61Q2TOCRw0iEJOiLCRtQ6j7ATZXXJ3v57lJubzAKnycjzGoR9BQM5q2qal2la3BorC6WVYpFGNKZxpHk4unGHVfzWJ1vy8KGAuaN2bTsv1rMQL0/KJGuxuy/B28c6ZiNAmgzA40YiK04V3vgx6Bi3ORMoxLhzAhOpEyziiBk1RvHDCyzjxbzQMX2MlMjga68rpfLJbgShSq35MhiwTU949BEY51dIqnYKG/BChSC81focstnMDn9vDkFOGRsGTq/o6YXFsFIMKNCTEjf0MA2V9xzGS3X61FY7dU9yn+Idn3BXWEz5JSZkCJNEnmjbAoae68ecAIYiNV4mQm9bgL29QtGA3Ti4MslWN6pirvsjIlUT+X1Y5C6lGyPsr0GhEBpx4rCFZVwOmP4+0oiJ4s5Orug9s7AdExD2UKubYkgLKLaoYHzjCWWKHnCw3QXUSZuodSRq7bdAQzIgazMFNSve5e6BKq0Mk8ONpgobK5GufKq0FE3Rm/5YSm6xdd/v4TvhL/OP4IS7reF4yS3YOFqbpgv9SKwSk07WONa7LOr7DQPZdNnQYrTfkiI4LQZIfJ1X4V39GsT/fJNR3MnNF9Uow6fFpw/QhRdpK0b6ok5MTLnw5I1T38WhdLqeq+6tLMr/9FUYxpgVG1iso0Lk37O2L5yXB3AFb50qoMabfOR+o8mbbEdPlSfghchcnWedhHV/5SzgVLElTAEqRRug/SEJwRrgiCrq8Rl18dBqA97R4AV/ZZbK4hHCHmsEp12HHNIft8MzTPY4j686yrD7qFFulOqMowt9SOkwDiR5J6A5OOKAcwsi4Jji6wkBcdn2RXXveLZXYlul+Jr1AbBp6LT9HD5b88fiH+NPJAGvjaMtDo3dEzpBg3EEyCyywQFP/X5Afx09yUXGN6A76bvgW6oiWZGmleLfyFUQBlR+6WodM4uVIkGrkyEKgZHCP+ttsPjOw/X4IFBDL4aX5KfvS4oFvB7oPOR+o8GRnydLkitwUnSrlZgmopBbja5CsPugB8yGnbyDBlyhC7X7SKqjo3NUf/9mG4GD7vQtR6UI3L+7v4eO3mK3UBIy/a5+nL/bAT68Aj2ngf3AOV62++oNwOo/tswEOKy7hu0/UwpzcoBRhJLZrJ6yFTEsWY4uvIL80XiCjMztMk5ynMdApVtrAj27CtmoEb4BQc17lI1zzWopmDC9J7hEyaxf5SLvKOC9TNgVD7YaC3RktlitkqYLSz9GN5BMaha4Ovd0WC3JQfB9pgMgrKMmLV7YBtiE+3BBg1oeHtLilvUowT8Gx6v74iY/8VtC6685E6T0ba4KAVInku4kRQb7o2mvUziIQ/xZd3Qu8jzNOtI8ZKBBeTCxFHA/yqkKYgqIGG2CNYQoHp+PMJFpQ7FvfgRvgRAW5pu5iUuqF8GQPH+AKuv192DyLaDsz1wD3eIyvvSIzEswiF6uTWqgRi6hDKCYys0knGlAKMSWp11c8akM9fDo6Ix719OdljLR7BOei0+Iem7ueWpDUB8a9T78XfZz5iIao1mOfsIHbcgVyhjOQ903UAxud46M8hQyXgJVHGnJSMLvQYkWfIOrwD+PsB8pYAo3xSyf8oC9vFB48uaq/xcjDRSSBNcnOk6eZbKcDorjdNixUHm66NZonxdSaXdwRKjLDEyN2Mn0lXTTpO3G/tCsVaVHUybgEpPcon+R4zP0P0nUO89TsAMikRGL8DsfQPMNd7DtacAXV9VCPLYmCKOXAQH9ZWYHGyDeVqPAERhys2xajaGgHHUoAxLQhx8AgQDFjJX9qkwiLtglqkrGEFg/IOC1D9gBiNP2NN25nNLbFp+XSmbVM5KcZ6ssSYLLWw02yH4z5Nkb6ER88zUMe9La3er6EaB4oc+sHOvBgYhgcPVnwDUDJG3iqoyC3IVPfyE+GWAWPyOyuHiAL4HWMxtnXrmatxNLdqqQzzXNwLY+YrLJpQuBNJ1IxZj70f1Bsuz87jOo6vM7k8s78nYI3JVtN3+VFXr3ScaBb+d7YZHBKj+HB5BLLlNO9pBYWvAkuTXKFtM7XQ/BEHuqFzeIayX2B9midw8GCwiThgZJ9Z/izClE1srIjZg23jnYiOSNxz9gEjSwmB42UAY7Tp6c9wOVdG/vgE05w3ywviHX5UvszDZpHyRi7XaKarAEbWT1OEAXwJxwCKDIZBueoY3BwHEQ+vGxq9JPMETsQRTLB6yByfA1DXMEGpWPphdlL8DR+CPQbqvQPKF/NZmvv0hkgaQzN/BoxqNAoDRt7FGIwTEGPUVa5jLZgduX60Ks23pZL1GTglxjCgKGkBFP7KATg6rKJJ0xsqe+jgQUqUi3b1QufQhzXde0B5MlZnGq+3bXwcGSD3NcKkfUD7uACYKxULjCwrD46XCYxxDbY7SCqTGsojBImg1vm1XOt6Rkb0/mFhVkyDxeLCWXa6CmCkdroXlOIgqL5xgOE3YBG+BvV3HyDZA81bmqCs7Ae/ppS/8sf+046LH4UqUKNcB/v4dFlsgq2gfaat9LHHwT4OU8jqajB+tnBcXVVbk6JQ51xb1/MF3pctSYokZYEZMKphj74j6gq3Sc92HgBERdgCVtLsrGuCshCzHfPUlejrTOqPbPbDtm6xBa+0JQSkJRGzAyUKlSlcibMXJjvjAE9ueY+vPFUH4Y9YQK6RLDWXO3m9Fyh9XIEuXPNQlRVHMebzcOcygVFVnGa7CTZSerJAvrQAD5dZAMQMKMVpyOAmIGu4LsDI8O8DMDvqA8tMluIBgHEMa2GMg2ochpCabAPtxcxE0HM9PPs881A+y8hDfxwck6ZAT3qWAZK78kvOFd1oorSasH4v6772wOj++JvDVtB+BoxquNwgpq4mASPzMZjEJ7x7f52dwJrRx5Iy7AX4xSWCHcVm9QBSRtBpBkW5D59pAhzZ7bb6+iBeY0oLDtbFNeB/BYH094VJMQ2w9SXXu6XypgFG5q26GGCMfxiqkXFbmubMAgR/h0D31/kZ2C3Oyq/FAWRuu7i2C0XFdaEY2yBneQjlyVf9iBQE2SK9ewZg1lCHryNckCCvyRPo+S77Hp7vPAGSa15zbRx+KD5CjvNuZQEG7vNCwHRpH1/m/ZwCKl+JsXPtgZFtLX3a5Ht804BRA1Thg1CKjFHXmx865w4/7RMAx/NPb6XpDJdGTQJHVRDFRC0ISk1qU3mjkZGoRMCIQmxUyZK/xFz/bxO/i9+xDMNsjmpU9ait7x3i9bTAKPOqAtXWxY66XixXPlmGh9RW5fu2VLZQpkhfyV18XWY31sVLACJ/vwAcf4OHyxoAkcsaMClgNKN4e9sU3JL/H+5P4ZOxEW6MXDWtEeZIFEDTvuvFAIFxWDzvgxkCDFiTNNL5xqTcYXkNiFfJXw/YEK6vQbvJKgAw2UzKb1Yhm9yC98g2FBRyvY5c2eH+qgqDft8UVlq1Os02A0Y1SvFzOy0wqtLmKDM8W5Ef/SFwRKQEyT7Te4aRu32JraDdbvU9R0hv303GeWrLd8GaT4Bq/G0F2m8A4/cQsblSuYCRZYd65AIX14vlysfCzOg6PHYlso1MdicIjIuQI0zAPpFG3FOgjGbARs+DpZ6DQNcFjCxHLW/gaxPzmCncn/jJY96n9mnH2AehMd2b6PdNhcsIAmKQpe7FRKHCpdzAqOo2t1zOsoKaQLDzI1hQ7BPcIt+twq4M4oYpyGLmoNFnCvdXlRD0OwNGNR7JMjedU+2F50489abuiW41QIXLi+aMnomvM748XW+0XNcZrhJ4AgJmDVriCaxD/W+T72Uw2m/7RsTXCBxNj7aLSuuIEfn93KT4YXFK/ARiacFap1rVa2OKOs9tIRSjui8Pji5wcb1YrnwsLA0wMp+rA/swGA2AcVH8Bxa++n4KNovQzq5irdu1nCzNphhZlkq+NqnrahvuT/zkUfeYWwLjAGQoY5ArksX9dnhUfDsAl0dooatgckPbblf/zDLUPm00GT2ZX0UaNlM+w68rA2wkmTGwDFKQwzXtUts3DvnmWPuaaAdQkpVnWSdnq1gO0455xDuDfl9LYCxR5mhTjGmfRaFAocaQo8kUD1JBHtd/XW/hczG+zvjydL2uVrnO6fJ2QNxMg0PZX5iGrBsRrTB/28C11ELsQy1zuQkDlj8JIumvcx/Fv89+FFMw39sAB2mnuGddDDCyPAmOLnAJA0nQFFc+XkkLjGaHKFNcpKIF5PECPFkoR5sG2fwO7DM9HyhPOAJoMF0lMNZRXgJZSUd9nYw4ThObx929MvAut8M4pgFs2kTxwQ60bYsQJtOzh4udn8BVqxqseju9YqB4oUlDG4AuqVw+QK6X040fpy/t0Qiag2B5nmNcZ/CFn8ZvcmcHYyktzGQzFTAyduZBjpI325/25XFNSAxXkQk9AKgXmzJgVCMXP4Zpn60qzfwQKEDegOiL85apHTqBenyQuUTCIFYC7AHnxFU/k+auLj+8x/djH9TpJrTa64d7eE+2xW/Lc1jqdQHzGFzkJQEjW+V0HywFGNN6yBwjcs5rDOy/T7xFSLFFaKV3xDoAcROd3wO1qIJsXCYwuiLzEBiHW9vEEwAh1515AGNVaqRppM2V2RiFuJC0B9Mjigt+W5wR38OrZ2p9FbZfWPAcAEf3q68QzPcZjGEfdsE4FhMtbaILJm3LqB3fh9xxA2Gj3mBC/b8fXkIOOSEWochiUsDoKzfty1NOYPycB8XiSMcMGNXTvHhgVDVxuwoQe7m6AKDckwtrveiBMhI+0Y86hZRFmnnT7hMYafLDZV5fwsHj1RpAEe/LHEDSdvBgma55qOoqlmLk/fwQ5NlqnnCBIs+npRjVmi+8JymRXJ6F9utHyBJeg1pcBGjY9VwmMLK9jMxDgGTMyEawyT1QejDgLmWLVLRwOVCuldzd3BwrgDb7ThkrlUx05KcjPv29J+Bz+uv8LIInTIsPcHncAHvdAXCkeY5UTMEDhP6pD+Bf2ol1c2gTRqVL3ETgl7qmsh5+6vVC5DCVSpsNmPlsHh6JLsghd1DPPoCYH58DRPwxqcZSQJH9LZZi1MDIUuJfbuawUwaMakTixy7t81Wlmc9CUYz6WrAnKUjM6QVQeZsANYqKyBHuQ5yzg/e5A/OPIh4lNmLotmA5AxIUOuIUw/jR/Y/iNb4DM1jv+iO4SEZe+gXgOI057PLPjnsfSgVG9jAPjpcJjKyYLOAmSPNFgMV1AEa2iYnAOA7lCr1b7sOz5VF3DyjFLkkpMrYkWd84zVxQiv5PCngOK7K9xINmsIRZ7M/D7WmWdpvoO4GRaR2AVY1zBMdFmOXQLeoR6n8ISvVhZx/sHNt0oSn3uATtP48/BaveJhVbS/j6zoLdZlCO1/gwKfI87Yvjm4zlAUZ2qjDKMQNGNREuHxhVzdyu42Nen/OfpsUEzW26YNtLTxnKIRldqr4K4c7wkadpWwUcv2nrKANakI0Gt7gBJcv6IThHbDcBrKtQwswj4s4SRFBXAYzslwTHywZGVszYU1walQNx1RSjbE/uXzU0wDSV4brWZHFpnjMKbTQD8ypNu5k/bp8fgDV8CV+Dvf23j2+kzSZBkZF2tkHBmYkU6xK+nPOQt05S/roVGLsT0CgupEyyE7KcNMoaVS4NcL9FH15gUTJ6NryH2+Vv8EGnzPMDZJFM1wcY2Zr4l5w5fMkH3Hb+tP3V94Xb5KOidH73nq43XJ47d/hsfJ3x5el6w2X6j3R58fWGS6A1yTLm1HtwKLX4WjaB82qGLWQnqMcOEBTkaBgpvIYmPzlqku8HF7qjzTJli2Sdd0CBHuD8ofwhBoME0XBdcc+6HBSjqo1A7kw2YKlMtvKlEFZalcEtvxtnZO1AUpvpsllps27uU/xFY1WGDKPMLzDNCeSKcQ9FlUM3x02EeSILvQRAolLkNQy1f1uYEx/AKsxJv2iVW22hXcYuteFMa9RiQ1lFNoUBb48ApHSVGsLaOnS16kC72jHZaBieJpHS7YMoYBXaRcpJudwEgSjti+Prd/koxjS98Ofxtc++I21/9X3hl6MQsNBlmB+gcHlmHt9+fJ3x5ZXS3/h6o62VsmwA2SZ+1QC2dYAeY5H249desy8VhbQNroFPNSMGkdUm9cg4jPt4Z1YgI59FXrte2y0w7lmXExjZwzxbbXb3ooFR1VWBt4vmKypdNTCyHXxwXEWNKz1Kcxv4MIuYKCSq7Wq7RuE0BMm01eS6NW9XlsQyA3KCKtzFJIimYIIrYFTXGW6NboHb+Kp+ADXZ0/gRIcx64YUzAk05hN4wNOciZGnT7jFj7B1JFoby3nv30MHwd8lZlG8yGo/NeZ/vZFjG6MuV/ryvfXYJpQAFy7JfWrt837GuNx7IXPfH1xlfnq7XVbLrnC4vvl7XvfpcuF7EgwRIHoNYqEKgCJr5mB55nH4ESL5nXMspqd64Z11uYGSPIuBYOjDqQdZDFt1jLlJpFNgyXQdgJEBRRkjB8DKoLAZ54HolnTEGroo1OIL2fR1fv4+QK76EFv4VZIw/zk+JV5Ax+lPQdxsYmZ8eLhQ7iBygvgYlSRktgY0xHkl1052qHZGZa+ChQHaF8lLfBNpE27hUBH8H6B+KSUy+si4OGMlPpE++9tklhF9Y+6rrOHgu6krSS6vy2Vtdb7g8O5/rOL7O+PJ0va6SXed0efH1uu7V58L1BmXSpTXOrVXdnVRv3LMuFhiT6gyB42UBoxoQtb0uwMj2kMyntqxmDvEYIUCmdprxGH2JAmRGC6KyJVC4IIQajhk1ZGFXh4mP3h9MHhcwRvMGZ+YAbFUAXsoxJ6GwGcx56YxAYTQA5Qsj/1TREt1KDDzKcFM07XmzOi8WQcnS2yEu+SbjxQEjWxNtu7+NmuPw5zFZ2rhc5rVwG5JeIPNOc18DRbg8M49vP77O+PJ0vb7S7fO6vPh67fvCx+F6dZnhXO6jpHp9c5GlXRQwyrJVc8sJjPFRiFWNwZZ5lZ90+IrfhMjOF5abFvZgWJYJUJSBfoDR9Abc7xhN5Dss+nUMbxiXUes6gHEKnjykEv82PSF+BRvNNS32QEXuQU4YGF7breVx0EazXlcu+xwj7+zCLnJ6d1O8Asj1gKJ92tMvvhu4L456j6EJDJRJ5n2kbGmHRgBnYODXZPNBgQbaQjOn3vdNxosFRl1/8l4GjK4xCgOUK4d9Tr8rSQBl32keh+vVZZp5XPtp6vTNRZZ3kcAoy+e/cgIjyyskwfLJmd3XJjtzOYHRLJtuiwswqaGGl072jMnYiNXXuATkGlhuevSQQpwEWH1YW5LRcbicga2FZplh4/LCgdFcxRDm8WIdbDF/jApOApDC7S0A3hpYZ4ZKIxVJG8fPAEau0T2xHlC1c2jzHPLsgyX3Jd9kvD7AGMipTs7jw+KHX1hfb83z4XmY5sU171b7ut5weep63Da+zvjydL1xNZjXdHnx9Zr3RPfD9eoyoznDZ9LU6ZuLLOmigVHW4QOh9FppPSDK7izdd530k77XHDpfm8w83L8oYAzqqZAyPkYF4mJgXHDoMaz/qdT42/RHuTQDo3NzkZ8VaKbXZcQS9wurl30N+lsoxagC2ob7C9ko2jQBLfYGBN4TAOm3AHKGsv8WQXa/w/o8jLZM9vunuUnJUi8fIJLzDQdGPpszACOfhy+FX1hfLvN8eB6meXHNu9W+rjdcnroet42vM748XW9cDea1oLz4Os387v1wvfFtNEtIU68PG1jOZQCjrMdstNq/DGBUddnb6wKMbNcWqLMPAB0u/6nMZrh2yY9YquCvkxOIfoOoQQDFdCmYPIUCoyrbBkZ+Wuh7foQ2zuPXCPkmQXoNxrNMdQB0Rh5/BTMiKogmQdUynJkv+Sbj5VKM8XJQ1Xb2i8b4AlQwUw9MRFTK6ffUYcHbQkRCZuG63vQgoe6PrzO5vFPMA8rK6UDgsodQ9QTboLw0ABW+L3x024GRvQ0pZHiiFGCE41pJ6ToBIzuyD3vDRbCipzBHoAb7HeR8h8enYLUXxTSUNisHSZ7KajjKD4yqZNUCehEsECxg230O1n8JCqFqGOLOwQuH6+xwHWHKQl3pegCjq2XRcxVYfIy2nn9AQOHOhgZQEYxkFExjDVDR+y7yjK43Gcgi7Yi9JcqDwRlPFsE48p9BQR9ibm6Dm1mGkm5FLkHgF5koWXcGjJGn4DwRAsfyAWP0oTprN05eN2Bk0w7Bgi7Cm2QVFNck2Nea6XvSNJDaX7K06dLFA6NqxwH8t2dJQUL++DMCgvIp0PTnCD9SFioKs8rP7fUCxlikkM2mMn4IkYv+PDQOt8oeaQpWXUBUJNV3+vma6ZyGrUWkcCnpC4inFlmOv2TK6c/wx3m4B06GXlQfKlewiPu5uAeg3MXzJhUZTsHYZsAYHpW4ozw4lg8Y46pzX7uOwMiWUtZ3DCqssuIzJqG77fFnLw8Y2Q5Sj3ugJqpPANw5+8i49l0vYATF68cDoxtYfAx+u9TSU/5LO1nadxaWCs1fWOmJuUusnsbUVAxyoSqOwVLzjowE3wqvqUnY1X4A17ATUlgFFWbAmPhk8hko15TgWC5g9L1s+RodO8lf0OCmsMyt8NkVL+vzlxeu19EB76mgzPh6vTdbyibm021UrLTr7rAsyJUjOOd7VpcrYzTap7tnnIzuMjpRKzTxjFTEJT6ZUmFqvqiUFeXzX68dxcIrwpBjsA12+lFHDwJEr4r/OfNBLMKaYgfAGSQs0IadvRK7HZ5X6QtLA8i+ucj2X5byJRir4L+qs6rcwJg2nqNsRsoxDgNUypuM3sYDlL+8cL1GgYm7QZnx9foLidar23gbgVFZOfhHRF/hSDRAIcNfloIR4Douw81c5bJZemlxvaUFBC5RH9QMGNPPFAWMvCPPVvPAH0RCv5xqIpvKF4X8adlj1mUQQvLQ9y8MFLodvvz2+XiA8pcXrtcuNe44KDO+Xv/90Xp1G+86MPpHLbvCCPAEyQfw6PoGsUf5gk3DIWFRxgYofnzuIsWoRisPjknAqECRN5YMjKr2hG0YKDRIJNyWvxwPUP7ywvXmi0uxkwFjikHKZzHnFE9CtJulEkagEbETxwCOf4RXF21cxdK0WMQqnsWmuwyMJPgkOJYbGIvV/JkPMQxQfiAz7zH3M2A0R4N0hHsMr0rGaAMjW5hOIRPuV3akR4CxPvvhX/9V9yACi5wjYOw+AsYiFBiUNoWmuw6MHK+qcgNjIB0vTERuP7gMGDWQ3QVW2gfc9rygcYoeGftqdswR6ECUpuquKhj6nCPaPKLOww+/Ara6i4wRqrQ4CUOVAWMwQHm2OjxewRQ0v+5pWGlG10k70cP16aMMGPXrf9eAMYmtViNDX3La8SlLPnVez6Lbt2f2laY8KtSf3VOeb0EE+AeIBfAErqQLWKyK936mXz1C3SWlDBj1CDnAMZhqxQCjL7qOrk7v8SNGo2QasqqUAaN+ze8aMHKBpdOQbZ6aFeEtgZGRj+bxsu+dwM4Rf1E7x9I4F1WjfhrqzCVtHQbptGtkakbwk/6mNrlGedySGbR5/KJ7QNpCMt8OHBmSwDEDxvDztcDxcoBRNYHffoIk020FRjOiTtDT4H8dvvA6IAXP6VfxrgEje68/kTzyJ1KMXCTsb1jgnZ4hdB+sDC2Pq8fRX0ryFRR7ASlFoQ5gZENO4f3ENvU3tkEbPSztPJtAIQarUkabWoXgx486e0UTlDT0kprEch1TsH/cxL4rZcAYHRUDHC8XGEn+cwGovqZGsQX/X50Kn9zXTflC4GuFaUVfQyMmZ52kjhnFm4EfDuh6CAopA0b9xLk3UN8kqG0lyxiX+C1dAeX4Cu6R01jPmAuf1eZ8q+PuK+iabEJ8O5zlxd4Se1EWF9d1LkRFKnm5ZVfcw8eAHwmuc07bRhcFydrqEZBjDIGQKXt8AldL+mDPIorUjMVe3xVgNG0Y1fOLEwPmwDF4cBfNSqsGcUtTg16sgcKF6LmI1ASoAJN6MvPG7V83YGRbWzApR1vaxT8MjWJp1R6s9neEoBWLiIyDKOFw7ZrC2jA66ZfmLlKMHIfnCCTxBOPUC03rvSSSDaCwCY8QjuXvCNHGIMRNDoPwtJ5X+jkEewFA6WdiX/cex94Se1EWGQeMzHCc83ihBnoLkaDmt7bEP42Mi/YRBN8wfIT48TBrIxEyhLn4l6EHcimNv859EjNYk0ilDBjVSES3AMdgKC8TGNkMfu0YRPYFoqswWvUZnupkbu3baDPdZ64jMPZjdb8hGOM+Q+zH/3T/kfhmYARr8R7A5a1efskZ4Ydr8R5K9kZP47sKjM+wkuIXUBy86BmUQXoZzTwuYc06sYcgv0tYMmKZFJD0TwuPXhqXNVcdAVDoZ+LK4zoXX19yeWGActWgzy0jQv0C3hOu1teOOUXigsbfKrlqI3VJVpxU+dL+tniJKE1kr8P1uu5UpYa38f0N8sZSZOmrylfM8tLUm7/B2CmUYlS3SsoxDhhdXi/USvuULwwpxYdQRSPUmFQF31hGV/nD0H3RBvZzuK1TzIBNWkXopQ2woAweu4ylGn3pOgEj2eg+hM/qwyT8/9t7z+Y6jjzNt0jCgwDhDQEa0IkiZVrd2z1xZ2/EbuyX3hf3xe6NiZ7pHanVLUokRQsS3ntPt8+v6iSysirLAaAEkCeDYNUpkz6f+vuE1bmuaNxfCBzvDY6EbST24EHNU4Eo4gSo3dNugCZlt7L8HihZk/G02DGa+vWI0uvSfsbd+ogMChivd/eKaox2U4TCKZo39BmhuiJKKr3KjrqAzgIwQshsCtQ2tS4axIE8WdE+5Nrlkl7o1RpiC15fQu44cu5SqMD6sm9Ye0RvBk+1TfDMof1j1I+94nh69Cz7S8dZdahPFGEkogHtaAuQVYmI2KvaN3fNWPvq4gMq33Pxa78HMFK+fKttNZLmOlWB0TxPZ+Z1ECU2ikIY7exROP92bTV6OVgVq8nezCY4K5tV7a68DTZFaSXTaQJG6tYtDeIdOf5/LbctAPErQFEg2SkAOK+PRWfrheCeKCPSS7E03Qtz2uYgAkff5Aof1H/ul91cTR+z+vq0AWOLqt4nOfPVjm71x1Dwpcb9hj4kV7RRWH/7xeBiY4uzKNMtja6cE+vtA9FPHRhNf9DOVQEbgSb+Nv1C+5q/Cb4bvhKMql99ifWIPHdE22d8O3gl/FC3SU67p72PVmrWIpf00RrRB/6K8gBo2VwOIof5S4JiR8558F67bGrv9cmt1eDtlnbIVNnxlDUXeeYsAWNYX9OwkwLG8MuiLwpfNxQuvoSWmk5sbmwM/3oVgood/ka0aT0aODb+DjcA1wBBTa4rP0KHHcB+x8A8nXf2TVcbnn4z+0qUZ7LcTk2mdtW/R/VlcX8j8cDX+gMY74jVQVFgk2zPZFpxTa5dt3oGFUFlPrw1L9nZXkYA2k8FGFs1zlAhXaJGLmucRzu7gpsCRNjoewLHKxpztr6Nj1xSbmb7MTpj7sR7l6ufEzDS3kURDa+lXGlVpHc09n1SaBHKreWCjYrOc/HENr43tM4O3r8J5fxQgBPK46Kixg+1d0o52hlcEfXe29ohJVfEARoZMEblUI8HAsMViYV6N9qDwTa2C94L1t7sKXSa1rw06hAzPn+cswaMzKeQDj8pYGQg2KB7XfKQGVGBN3r7vaR+1teFTaG+ELB0NAtIevqCsaWB4KWE7k+XtEGUtiuYk11bdoovL/epkwbGNi122GjCRN3XzoQEXb0q9nBEC39Q8h8XGG1dMM79enhEwWffBF3T7cEP06+DpTcootz0qQBjCGKiPm7LLu9GT69MSwaCu71DGtvesJ96xTV0aqyzR87tl+hXEhY/P2A0vTKjdfZ+6X348UEkMXixQ+6DXUGL2GNfnzYybwWCUIQtF5qCHoEpG7MxBkOat13idDqb2oLWpkYBrihGmRWZzxCUI4n1zQd9U4C4KuUQ+xexv/uEzKseaqO5nyXPPLTPq1X0LAIjVW84SWAkwzf6esxpA/qnYh0BicsCjDaR9GUSrNKQNNj8XRPYsOPfE7GnvP9W2rp3stVaFztqNpyyefqmQnT3pIERihFgxEQCeel/v3k3uCmFAsBHjMEsYKQ2TfoaI48kAuGu2vFMoB9oh8N4+pSAEb5hTAvwbr82/RLb940+JPdFWRsFQiTFirc+Os8ezfSznxvFGO8BlCprAsgWiWrGREQAcLDQHDHj8SW4ObgzjMTxw2ajMij3AYk1mqE6RR36LSFtbnyeKOcNLDb+2/LCeSjZ53tRl1siYKYlIjP2lGcVGGntoQSXr7yRGdpuCII85YvvefZdeaqBatbgsJE8iokRKV66BSiAXJbQmDLjFCWsNrKlC/raIffo0vuhwkbC5GUNCBtJLUlpsyYwzkrHAcYkG90ntnBQdWBho0QYExX0jRb8LRnaDuhrXCbRdlhMph/AkASHTwEYh9RPA1JA9eivTwsONg1j5Nsy1UG+aICR/qoCgr7+/VyBkY9OXFY9q/XwaGk23CUTTxrki1ngaPq9V2w48xFWGZHP4VgI9PJVqXYkeH9Qc5/N53gfcVmvWPdxicIm5dO9oDW6KjzYEYiXTWDAUcfVB8RxTCmqQ7LcEBxPChgpfE0U0QPJQWalTXshymhqZFmUw3Aoh7uqxdEt5UTZCnc0N4kF6w+GOi8Ff5TNIJtGvVhe1N988Fhl/KoN6vcElnsa4GQ6SWDEy+VaZ2eobLknl6yvRAHd7OuXjKcjZEGSZef9XpUwmw2vZiV22H1rfV0/BWCk3SNtkc3iPX0U70uueK27R1RKW+ip0S6D+JNKR7VjjPr5EApKVye5cNwXi/MrO75RvjY/X7lxYOT5Fcn5/rE4F7oIIn+8joIrIcd16xv9atOHjJVjS/M9VXwNbfjN7oHQnvJPw9eCn+Ymg79Ovwx+FZEUaM3uHGrF8/M6TcBITQW2J0Mxkhnfjz0pTfYknF3UH0JazC5gIfcl/AUMLouSYLG0C/jyqMgwP32ZGpuF32ID+vWFui45ZL8oN8Lk4x7FsEKNYvqzpbK2VAZAeRLA2KJJ1h4qXRpEGXZIszqs/aCvhsAIawhlWyZhw/lef7hwzYuFfizPjqcC9WlNmt3aPi9lF07WR0XE6JHSe1EJx0rau6Vb/URqUiVG1U/3xEKjlIKq/lYfESiLE09HrPanAIy+viTaDmHJtsVeXxYh8auIh3aZS/VdvJgbMT1uruPLt+w1ZJmNWodS44SKIRw8dmW6hick2zhsIQ6LxVDw5XvagJE6NvhY46qstK+xABQGq89E6QFcs9KKPZEccqyvT2wWQvm+YFgDafaD9uWRvBbKMCVwxp8UVuCy2PUJmTO8lrfEtATCE6LGJh3vk2QOeb/5SNj7PdJEX1X+bOR0WzLF0OREtpiXL3XJ/Eh7JpdM+wLA15ocTxZng+eipMc1gV9DOao/1iSfOavAiAkYwDjAOAgAse+8pv4J2WdREYhSesS6HSWdBDWTLPdTBcZ4O1cll8dz6N8mnsqmcS/48+UxuQ0Oxh/5Tc5RDv3ryE0BdEsIjng07Wtd+jg8KnQagZF6Hcoc+UE6DjAaf2FDuWF6M6GtQhckG3wubXOfZHa3V4aC9SsyYZEsAiy6KqVLldQum8JrjVCQnaFJyJT8sh/LXos/voQAMXKOaskFxsv6Co4KBL8avBz8t1t3RTFeCynXVpk8NErpkkXBJctkZzjECw9mJ4L//eKJhNazwZz8glfl4QErdJaBsUN9PayPBB8Q2Oc/yIwJM6Ur+o244SjbpZr+i32jzKVjHT8HYDQd9FLKkQO5CO7I/G2w/VJwR+B40v1pyso6Iu+8K8P+NsfKDSUAAEAASURBVGm9F3c2ZXS+EdpIzotYsht/RW+fVmCkdg44HgcYTUcBjMDH25o0A8B8IyDA/mmzxkZC+bFj2qzCTo2K2hiUPI8gnRdFhbQrYEOexjestBYm2mEEzyh+zou9Yw+NTi3WfpkzEM5qXfkDTusConywjIAR85xemTLg5TJ6SUoXyTqxw4NFRHNeJAIw7YeNXpOAHGXUtID71epi8PPcVAiMz/RVX6gBdxwYsyL3kGcWEKu6R0rHZaW7RVH3q+/xg75+SYopfdxuayHckcJlJDQgrkYtou2clUExoev6ZV+HpcJJsXt00OcEjLR3WfNrWVxUl8xzCO22pTXQoXVSNqGBxlQHtpgxeae4ByTWGNYYAB+mQvi0x5OR+seBGOXbV5LRY/PM8+8kg9yUCMyk0wyM1PEQHE8KGMnUACPn8XQguduMFChbkkG+FGgAcH2iAAnO8K3keV+IhR0RSZ5lPB7Pi3PstUIPGw0a9l14XCwIlCbFtj6RacEzyfZe6nxVpkX+ZCnGfgHjfS3yLwaHQ0rorvIKWWhNMp83hj8/yZ/1dYSFfqQd4P4pipE6zGyLhZa71bY+EKQ4MPI7bZrE1d8PGJEdGy4gqkn0P6z0qDTQxAlEyXZflPUt2Xp2y6OiVRrLVgn4qyTksK/Xl4J/G38qY+Kd4M/a+6S3vV39XS2frDI/N2CMz6tl9eeqzHwgElCYxEHL9JdPfLEhIFsWCwzFt7K3Lbl4NGdbtMa6IT5EPPRovNF2s/7yEnqBbwZGw3UOJzGjtTleA8fTDoy0KwTHkwTGqLP8ncaCWxH1yJ8JMtErim9erEBox6jFgowO1zuUNiaIaRb1RFl8kZo0aMgBkXvx/uTGSvgbqvKC7lObabH325LJmIUvejN0YWyWG+Mlsers2vaVlAjfXI4UCVBDZRLmC+9Dbfk5BUSQjFVfx59mJwWM+puZCH5IbHAUn8B5+We1+begGA0w0lfNKrBFfxdkozmoPr4n39zv1EdfDcojSFQ1irKyicWIcoox2pFyblF+9A+k2fzb5ItgUxTOoD6Ub0SptB5+ssvmnH7ucwZGPqsYcdPfcG0YbkONJ1el+Y05z56eWxaY4sI7I3k42ytgLgcVST4tcjfskdE+NpSXNU57lw5CoGxRRCTyMXnFR4JrPZozHc2jynctGG57FVxS/hsaY58WPv5u1vlJm+tklRP24W8FjFmVILJKaw1A0ObekvKDP9wJcS3rkwa0SsIl8bKoSNKlZgCzL7ghG7BxKYZeSnkzrjLeiFNoapDMTFTKLYHibZmd3BQFhDb8qtj8odr7ZcrFrgwWenxFXjxSuDxbxptHShex0FO6Hk9nARjj9b2kBXGFxXCpU6KGHskXeyRT7A3dJUckeuiqqHDBpGNOH0IW4LgCH4xLDv1YVPbPksUS7GBHoIn/7nHT5wyMHdIU98lk6rqcL7C/7dA52uS8NK0xGRcn90Jj8lJ/8ygLiRwlFn1fwEoiD1hquLrLEn0QSwCC4prW14jmSDwxgnGw5N1+UZvXNH++2NkKpkSVzmrdl93TxuT9WwIjZTZkRdfxabFNJeNHo3yJrsW7JP6U/xztMN8djFjnRW7jIog2Fw30fQn43767LuqxIbTmLyLh4yW0ihq9KSNtNKaw7Jw/WpgOml49kxxFpgUamEtio/HA+X+u3Qr+37HboWKIwLQoXcqy0XyRYV1eynTi/3/5JPh+6pXcqFaCZVGQa1IMEUHFpLMGjNR7WCzUFzLNIaDGH6SUwpgbWVaDqHHMNTDQL5vwxAAYH0nc8VDKsx8lcvhFtnnj6j+W0jX9/y7WX2XzTT73OQMj/TgkjuuGQOiOLEJG9ZHv0u+8hFwRYPy3yWcamzlF61mUh8tWaLjdUgs6Yd7HTA99wphMhDBFW9RzcAI90hW0xmJq+lAAr5zrIjxW5G6IonYJcDQZlzj+1sBIlbwMzG8FjFTgUN6mz82UvlZvBZBvRT1gF7nFvheiMqDkkHN0KX4dX8JmURl5YGlYUgYMhQ8LuUFsIVQeMkq8eBBSj2gSIeu8Ixka5H/ZBAWEIgFxAF47T7TI/6HF/lgs9TPJa5KpXbKZw3Ymb8Z+m3rHLoWnFTDIebWK8gUWuk191C7ZUof6d0DAyIcFuSKy3HuSMcJSVUl7Euojg8UOlb6CUnwuCvspRvzqKwOM5LmnRcr4mNBYVcoxz37uwEg/XBIIjUm8dENKRAJRZCm3IlZaZmaav0RVfyhgfKwQaA/CoNPA7LlgS9oDX/pZlCUKGvIgQMyl5vbQ8Byb46x1iX4BYmVJrPqsymDX052SXEISGLPWia+uXCvPwruwngLH3xIYfY3ZEGs1sbaqsEjbwWMNWJ9YXzTHd2B9FcjipqgXFCXxL5UvH3ONwepWHnfFImJi8perYyGFQjxJNNxcwxOnbELGOCnAxkPn4by00Dq+Un0ZdGLcJRML9rQDI3Vu0GQfEFV4VQqxO6IWobZvhGxTr+SKHYUUSLLdLBzGkBBtP6ufWIDInZblIbQianFWioI489WgcarZkyezKvW7DoxwYYTPawlZXXz/8Z/OSihbsIl8tCzF4cJU8OuqPlg1MVAe+BigeinxFApWuCzM27YPdmW5oGjuGWKwtoZmySovBYsdmwJTxRQQ+JZJpjzzbF7dzDPx41GBkfnkgGN1YCzXwHhl44bW8evRub4m6vAdUZABf4G0zEtB8LW0zZjHbIldhZV9I8UKC/aivACaxAYXdRhAyh/vHCUhBwNkMdOZ0pcWYPxx+rUULq+D7+dmDs1zknlHCzZ5Nf07q/6/BcVIbXpFKbKHy5WurjDw7LdSuBBhGmPeKobcRlq4J2XLghYP8qtfJVP8z6nx4EeZM02KDds9ZJ3duaPuDYMZpHun+EodGG0foZlG5o71BusjKf8zT65rfT0VpfiTRBxP9QF7LisSZIBZc5H34kCFyOixxri9YSEM3YeIpatFYcwy1hjyyn7NsSG5lyJf1re4MMXL4+G8uvkyOw4wkt8hOJ4GYPQ1kGvTGoQmCTe3DvZC/+pnYmOhJrGxG8boWOYlVTsuqyzfdewlQyVCTdnyXOW/FIuImZCxW0y+dxaAsUcT9orsQjHcxiQHyvyqqEWoxwF95fMoj2R7+c3Ha1wyK9hnLAaw85xYXw5eSIY8LWoxCxjNJC7LUr/Tx3HXMYsqsdISFTZlJi7XfhbnV3Z8owxtfvnl+msTv+qWa/M1z7QIeDC5wdQG06r0E9GTG1pL4zKjQswxK6uBHaFo3hpKApUpb04fvOca307JNononpWwHEHbTd1apTQtSsny8urmy6t8P7s9FO/fEBxPMzDS8B0thBdiXWdljoM2GH9dfJ3XRq4F+7qHTLGKS5+vM7OuIV8k4MUPky+Dv756HpaPdnpZk2uzZgOWfDfewcl78d9ZA/5bUYwjEil8I3McAml8qz1GiKDEojJx/DDWL5tQuLB52P+ZHJdialwLbznc5wXl1K7ALDJ3Ijc3z/gkJgxW2YRhStTP5d8xecfLNNfssTi/suMb5Wnzyy/X1iDrzC3X5ht/nkDRnZLLI+PLkjfyPB/8KYk5Xm2uBosSB2EmnhYKRTkngSq6Gv1PIOpxjTvxBzD2zkrUhbiRuP0SkDcysPM/nSwva5343z66jNHtX1GOpxkY+e69k/d65GVDlOF3wbwGgOjDhsrYkqyDYJsoVwjeiVAYjXMU8NM/gbI61VyHdYcKWsLkQAOPGdDfpYn+RSzIc4E0UZjjiYBPuyEDkzbwjj8XP/cN+FFBkXyLlC8oXDr1xe7Ck0g+ryigoLy/GsKg+3IIjFUULoga9rUwNuUfjshjQd4YfLh+lKjhF5nmvJYCZqXmDWTb7Y7HUcCCHLCBHVO0H6hHwKAMJXJYB7cKh5ejk9yb4SN5TxhsV9eEWlzYVBRNW+qHLX0gqmhnExWLOQ7k1UDzT3a7bRrnPGAkb4gKxu21ZMBbh6KOZKkuK52+K6cHvbsp2fJt/cWjTPmepebsFJnnWnpagJH6H7LVvsaYa9ZcJ39gzPPxY5GMMf5s8hxg9CWUNlAmmwLGZ9ryFE02Ebhva18S9nDBZIAwZ3GXPxQppCQo+a5jnvNUsrLHMjv5ZW46DJNGQE/CwyeBkTxPOzBSx1YtmjHJoW7IlvOOlC03a+5+2JHC6lTR1pPfvjTRKKbY6+fJ8pxki3OhGdO8PlQr+rBsfgRgpFyoS2Sh/zIyFsaKBAQaCdL6G6RzGfPRFK3Io+HpW0Wi2hcohrsk6gM7qQ/sWxRQApJs2srkkj5aiqZ4/bGtQZlgLngnRaBtzc2SJSeBKnk//ntTH8q3ObFVzbNNYq+RT5oPibnOMVlecq3Gn/Wdl//Yuv1o+9fNtRAcfy9gtOW6FebXvhQjMwpmwZ+8SYN2UQ8YdIeeNpqUyKSgLAFIM1GyOjp5HdaAeJGY5vxzekKU0ETwpOZ+mDexszo4Wftkedz/GBSj8QQif5RJ17VVAXtDfy0W+k9y02PDr6qACLUIe7ynhQALHX48ZD+KN9APoqrnxar5kzsZsyax4Qb8eURXaQsU7nfDV0NtugmInPfOSdwro0AwYgE4D5RSGFK/1kccS4CGzfNiXzWD9NHIm0fJutp55fZh8jnzG3guKw6xog7ztj0mgcre8Z8xdtkwa9+hj3wtSZbnf8rmkzzLmlPJ55JiHdu/6SdzwdEClK856cziV45DMdpy4zlmn+MWOCFtW9PiQuhhQTgwDJbHpGBg+9chAQNmO3lpVYJljNCfixJ9JnB8quP4ipQKknOS8iZ0XgfHy/QN+McARsrEZpGd/tAQEg5/TIoWZIq3UGSJcqwKjNgsYpozpaAGkzJ0R9FC6DXs5FBMHRcY4/2Ue67FhfjkdjAYUq/scQJgnoYUBeA9JwLxvWx1RTnqYwGQs1dOv5QWj0VlP1Lf6ctdqrp2XpVvHx8wrCqKEnORwLi+lAQq3zPxa+SFNrqIlecd+sZwayaPZHm+dWKe9R0/BjBSTiY4WoAqPzCm4r8lMJoyP2hmvhA1MyuQe6pJ+Lx7Pgwi8UcpbS5ebSkER7w3/veLx/LzfS4AWAtZww0JqpEVnTVgvChKehBPCRkDQyHelxH3mNhp2FGC9OJiWSWx4Jb0kXi5uhD8Q5T0DzOvBIqrCqaxG2yIitxOsdAmd3fuFE1iQ3mZt31HckTZgJzxg4zGSRlrPLz3e/1HW9hP6UpHj/q9S/a0nWGEnGcSRZQBx6MAI21ll8Dkdqm+PsClD1Ofbnk7rYrbMikJVOa67wi58V6dP6x8EG2hKS9K1A1PKPN9SJZ3WoCRdnjB8fcARltmUff67isCOfIgLZad9wfB0tpBGM8OZ3pCoX0tTeyA77XYNbxxXsis4UfJGOf3LHtogDGudDGv2QlsrviPvgE/aYrReLj0SiGFNp84i1CJRC1nR0eiHVUxzYH62JNsl9ByKFugEHHt/IdY6AdSuDyteVLEWwzkWqVDNWCM51N0DoVShkopyudj30craza0wk3vn/MTKZm3rw52Xrl96Hs2fg2i5K3KIZYj5SXDisWfxe6X3QpvirKdkJwYk7QkUMWf950TkXVUwHhFfvYYeONZlZeQc25LgYc8lpQsz7dOcvMr3T3ug7Z/83L3gKMFKTfD/Gyiu0elGG2ZZUpJPmPDjsXvvNzeFsO1ELLXZb6kGJZvCgh8wEi+Ruliyijbwb4BP2lgpE4oXG534lOrQBoK3EFIMYJEYPgOKBL7skoCGDHgfiDjbQJ2IGOcFXVN4NJFaTl96bcARl+5p/0aIgy2RL0oK4EiCYCdV9XWH1Q5ERYPNI/5oK3Jh7lb4x5XSsb7qVOxBdjDGk+ZA3YR3LKjx3PAnN3hKHozfs3Ma1x6v5DIhm13uyU+yEoA44bqtC65676A+H1CuWXyy3o/eb2IC7HPu/1o+9c+kXV2SDm6AOVmmPVy/PppAkZTr+cybiXsEn7aRQlKia+tSYZiNL/jx7Id7BvwkwRGqEVSq1ij6/py32Ofm+FoC9Qv5RPNJu5VE8qEXVEeU2L/oBL/TcE6nominpHWNVuuGC/FnTvlJ3E8j0/vvCO071OwjtqY+Vpo55Xbh75n49fifbyjgCeEHkM+3Cy3vk7tweTLjQAiGP5DZeItM6cPHtHpTUoCI9fNNTOvCffHvkF3Jd8nuhU7TmYllHjsGkqwCkx+DFvN8ya/rHeT1+PtTd5zf7stt/3rPpX1KwTHTxEYTYNhM8poQRms9zUZ1lkAxiHJ3YivCGUIVYLiiUAR+EMTbagqMG5ogSxp4qLxD42DpZx6rFBvAKPfZtH0cPzoTsbykzieR/Y5Eka3hOxnT9sdxAB5MlW7cKu1MNnH2wIezKlmFWC5Q9ThJYGgL3UAjporJFhdgrG8RNkm54a8ZICsXwrO2xLVEJDkS8X4vNnVnyu2CfezlsH5tDyn0OKbjYlNfnllxu8l2xu/5567/Wj7130q71fDpwyMNDyyqXI7ytchoYmBTC7ypkbZDvYN+ElSjGhnrwoQ0T5/pXBibOVwRSw1iwFZEltuVkm7WhiEoCK2IuHE2FrzhYISrGqhhHKiGEWRna/bx+Unsc2xzEfMPn36zvLAGy2tT4fszim3D4tamOxj5i5Bg9kmBI+Vy7LSCDJ2rSAq1UXtxYQS5UCcFUo3on3vyEqDrRZ8ycxrKMa7siX+g5R9fxy8Eu4XM6otMvJqDzv9ShYO+NtjLwyNavLzleW7lmyv75nomlsTt4+z30reOWSrj/JNPo2sdLKBeV/r5LN5v8t2sG/AjwuMgCG2nESuadMEHlWwUb7Y9+Xd8o2UTV8rKncVZQuL+I1Mc7bF6uCvPruxESqjHknRQrzFHwWQc6Imyid3MpafxG4JjJXfuCR6jlKoOzaEsINEDdcresct38314/zCIIWETI+NpFC+5NUCYDwX5yV513nB+UHWuSmrj9c1nhjnY+50q2vgMAq4LzP6G0XKltjiA30A+Y050rje35em3TWRon4fFCT6gvzxu4KvZQHxVf9IcEuyxiEBcV7t+eitSt7ILpzjYbxTYjr6apR9Lau96Tfcmrh9nH4670oNHN0M814w984CMJq6HvdYtoM/BjBS99DIXSw0ASLG9MUmYnkYuVzsM1GZCSRaJQGMc5ubCrW2GIaFe6Fgp1AbC7IVnZVmevl3AMbS9ddCo65ElFnb3QsNno+lua4+9cOqIpslYcLyhQDiamdv+Lvsf+6cqlaJPKBYlGvtBVFozImv5RbKhll5e/JQMhthYThOAJfbYrVRuhFWjs25sPgAx5BfonwZ0CZoA9Jy886Qdjck7meW0sf0BTafa1L8jMse9rGCXcxp07vzGkcr4TdP+o957XXfcPvR7WP3yTK/BI5uhmVeqgNjupc+FjASOWdYC/C6bBbZt+UPUrgQa5GwVATudb/u6Xolr0QBItbDOIt4tvxNATWeKPAs3htbWghm/5jke/7f7twpP4nTuUEBlkmwf2jOf5CvOyB5QdtdsCueP+XRof43yl7FfRLqkbiJRNuuAo7uoi3Z8FrFivp4QSzyuqJYoXCZ0q6OC7JPvSw7y1DmmdE47EYxOcIOFvnhqhQnWCbMS265LasFKL9WmexcVT7X1d5u5Y0bYBiDM2fgAFVsGhcky8YxYwKZY81M7rQD4xu8mjL6K/PyWQPGalPPbbY7id178V8fAxgHsVcUtTjChBSFeEM2i1CLHPlqE92kbGKSrkprP6dFMyVgmZbNIt4tBIp4JtvFhxLgk5Ltde0Ww0di/7k9W7RoYy+mTqNy3fxSD9Uu0Ba0sc+WFYNQ8qsGyb9aveCYn1/Oms4o2uYH64kCA9DABe9Pw9cy3klfdt0QbZ7pJ9NXivrYzEMEIgsab8Qk3YrSff/gshwCenPNuagJXi7hPjGK6oPpFxGadt9FOmooR6hE5p4vMS7J1iD+gCt5qEDHPyng8WJt50Hzfv78OrnoOqa8skeAkVQJHM8aMLrKprJdEz2XBIqst82EjN8vK2Ns1Cp7k7D3IrpOs7wOrmkSomi5p61ioRhx/0OuiGcDX+0qCTtPYiz+u3b5e6RAvZjpzMsOFFu4NVEGJF97/WJ5nnaXQdGi5Q1fsmW6+fmePbwmMGL70ElRIf8pcOxQf3Sn+iM/v+MCI3Vhg6gLqgtU1GaBhtfUHVC1yflhL2ecFfVxch6uiHVFdoxceeftvqjb8rauKGb6xK1cEkiyZQkJKrFR8sas5GsNWun/nH0d/K9XvwZPtIneUiJSfvb8+v2BMWxzVmOT1+vAmOwRICI9JcoCI7kZYAQM22Sr2KytHFr1N6gvNAqXby+Phnto4wJYReES+tdK1sT+4NtvZNgu+SKBNH6Yeq3tCuaC12KXVmI2nRak0m1MX3HbXLRo0+9HV2yZbn5Zz5vrLFXsVldqVEgYMssJeJGfny3X5Fh0tPkl28riXhMwxu1js3JzGXybZ9bz8evJcuP3OPfNw3V9EJ9K7LD//o1sHZvFMveEHjPRB7YhVxyDYgYFE39HScg5+YA9kVz4gSjGH2UFMR4GiSmXW1F7bS5uP1YfW5sTZ4ZiNFdLUY51YDTdZY++CVkFGG1O2vdDfsLRtqfd2pK2V3uA9Iid7gllRezlXFXhQixKIpfDOuMSyT4uCMOn1tfle66QYjVgrD6Z3MlYfhLHWxunUt383Kfyf0X0TPKZ/PyO096stiY10MkapX/n1zH5fFa55jnfPOQerPU7KUIw7n4omXLThcehDes34kLYVhWTr4+VJmQv+fe5ieAn7U1DsI0kxZhXblF77btuP1YfW5sTZ0lg5FohOH5OwFiW3fJNyKMCIwoVttC8J5tFwol9N3I99Inu0NeeLzgbGPnKY/B8icjlmHI81MT8WX7iBIr4pxbHvNgrktFrV59M7mQsP4ndWtpy3fzcp/J/oVlFvOCm/Pxsue5b2b9sfnltvSCKv7xSzOaZXa69k1cuT+XNC+O3vCkq+5nMZ9gWYV4fRlJXU5s+vJ2FWubw4Yr/bb6JKMb/NfFU4Dgrzyq2YPB/ypJZF7XXPu/2Y/WxtTlx5gNGrueC46cBjG5H0ujjJN+ETK3TnAKQM3YqUvlFGd+i5Rzo0N7QsjNjQyuMum/LN7rKplYUtSPB97oohAUpVmYEjOMy4IZaZH+QZ/KLNsDIsxgKV59Mbh+Wn8SUaJMt183PPnHUs/z8bLll87f5HbWtZUvKeq6oXN88NHkZYOQ3n0TGn61GAHH2mMYxYmynX5tdsauktjyWppoP8VFSGDRXH2TsZbFlRJ79/ewrBUBeVJSsdUUKL6eXLmqvrZtbz+pja3PiLAsYuZcJjnVgpHtsypqMecDoU7i0SKjdL2E3WxQQHAKH/TFpoE04saoBIjDNmZcWOowoJLkiCpcZTco1yeTWxF4vOPK4OjDaEc06s4uv/ILNyuto14vKzZqLlBYHxnjpyGbndralIJkM5mTL+kXPYHBfRtxEhb9wqS8MAxd/vuw5wSSmZfYzLuXYY2KhSs44rpB/U7KVPMvASPu94PgpAWM5gj5/KmRNxjxgJEejcAEk8dMknBh+0FclU2QfbmwW72jHNmwWsTMrmwiSgR84rmL4Qr+SucQjCb2x/ftJHi4vREX6UvWvrAUK8itatL4yuWbLdfPLer789fz8bLllc7T5HbWtZUvKeq6o3Ky5SH5ZwGjKQsO+KBZ7USC5Kc0xHkZ4xrCfzFXcT2XLGCrzxAZDZdreMDlER4y6D/Qu1OKcuJWJDZmFiUvBXOeROJUpfZTJp0wqaq/Nw61N9bG1OeVRi/YpDziefWC0nZjnJx3vhLzzrClSBIzxPIfaWoNrmnwoWsYkDB/r7Q0n45BAsU9uXhclX6yS2BjpOQF99ZWeXJPdopz5kTO+kv3ibOjUn86tTd2SZzqRfsP2I/fKT2I3JzuJ3fzcp47yKz8/W27ZvG1+R21r2ZKynisqN2sukl8RMJoyMc2ZlQdUo+xd3wm/CFDx89JM0Cf2mg80G9OF9o7SVDfIcsLIU0ObTmWCJnpXH2UMxWGjVxUebVlgizxzUtTipwKMYZ+aTuP42wNjNCHzy43X0D1P2zHaCX5agJEa90rOc1+bf31z+Zp8oUfDUFEYcZf9usZbjcIFLfS/K2I5pjkEoZ2X0HtRE964tMWf5xyg+LSAMdlC93cdGN3+SP7CdY/9l5bkrdIgrqNVop6Lsm3Eq6ZXcnBsIglMQQAT5JOkd+JU8HYhUC32sXjQLMolcEt2slzb0/0DcTRl3QKLPgRRne16jn7HuRBzpfyxLMVocjxkq/MBKl1Jk0EaoMydomOUZ3652Xmky7V1PE3ASAuwF7skV79BOegPyxfaeLeYr3J2KzHHUPRksUAY1C4LBOe25Fcs7fM/ZyaDX5cUTkxf/rWan68vn+MABfmVm8Tpkm25dlzST538FVtu2bxt/Y7a1rIlZT1XVO5JUIzxsongTUDFLbyb2TGwFoXnoqjBoeZtabNbQoUhNrdmnxk+5HgDwYKjkZ4RtUj0cFJe/eLlcl7UVvu8HRdzrfrYmjdVruuaZG/knIXgmA9Q6Uqa/NIAZe4UHaM888vNziNdrq3jaQNGWvGhpglkYyHiS1ZJBC9F2P1M258+mtd2sXLFmlYUnSUpXDZERe7VgfGwO6svHjtvyi/aw+JO5KSo3DzgKctKxytq8vOVy/7V2CTuyPynSY4J57XQbMSjaHdB/MkPBKgbAkmSyS9eRta5r0z/s3ZczP3qY2vePBow8nZDPkClK2mKTAOUuVN0jPLMLzc7j3S5to6nERhxB4TtwNRmSV/bdclohiS3yYpkEgKozB/COIqaqOz291gyIfbP/ocMa78XQOZRiqbnqk8m24/kUX4imxKjoy3Xzc99KuPXEV4xOdlyzZWioy3sqG2lBJtLUXnp+0Xl5gHPUYGxqMw1zT3+fClZZl79ku8XlWufT/do9bG1uR2FYjRvH7LV5oI9pitp7qUBytwpOkZ5nlZgzJrqVZQv8R4AGElLCpSAmcMFsSlESLmjPV6y0q4oRSI5TxIYVLaKyBcByCn5Er+S8uVTBcbQ77icgjPVddUXj53b5RdtqtiYFj59r+hKUbl5wJMEqaKyuE9+RWXm5ZMsM69+yXzKl2vHxeRRfWzNm0enGMmBcjPAMV1JU+RZA8YaPpnqVz4eFxgpcAKbw0WZToht+UJbGfzx8lUZeqf9Vg+IsyiNH9Fyvp9+Gfww/VoguSoZz762QFUoqowverxR1SeTO9blJ3K81Lig3M3Pfcr/67DM6q8eAaBsIYfl+quVe7V6P0fZvVfxReXmAU8SpHIrWbtZB8YyvWSfMWPrAUc7eezj0dlZA0bTyGQ7yv4+CWA0ZW2ItUbD90reK4Tbuq3YqJ3NbaFnAhpotj+dl/H2a1GMz3X/wfyk/FLng+dix5OLBYtInwihenvdsS5atKYtyaMt180v+Zzvt1NmRcrRluvL2XfN1s8p1/dozrV4uRWrHO4rnZN1aqzjz9aBMd4b2efHYaXjY5sARzt5kkXXgTHZI/7fhpX23d2WoBtPlv8z8TzcnvIr7RCIJhsD7v9UOLFxgeKMtNFz2jWRAKErAs0kMJLvJwmMNCx7+nHXSdU5gijz44AiFYgvHlNhKXFLJR7DXjAr+cbaPFsHRtMT+ceTAkZKiYFj9sysA2P+gJi7ecDIM7uiHiflWtXSMKl1pbBQMrhtU0Sen2ZfB399zRaoi8GklDbLFTWB7oI1tck7umN9VMCw5br55ZVs7nnLzMYN89oRjx8PGAG0skB9XuYkTbAjHguDOjBGQ2vnVPWhPklgpPQaOGZP7jowlhukImAkl30tCvbtJSFfXJTihRD/eLs8UzDaCajFmqlP3mIJM6j9V30yuWPtBal4ARnntlw3v4zHDy/nllctq8M880+iTHPLzc8gvGvby09b0cjNzv7Oyyoyp04/mzfWdYoxr0ftvZMGxl2NscAxPVimyM8NGMtSAKZ/zLEMMPIsRrSLYpUJRDotYPzn3ExIdRAxZUssN3ZmpLzFEj5Q+89dsPE7WefuWB8VMGy5bn5ZpZrrxeVVy8/km32M8isuNzsH7tj28sutY7u8SBq1j01RIuoNwYx75Co6XzOejnJz84vnUwfGeG9kn38MYKS0GFvtFv65AaPb+vK/ygIjObJ51Ru5We0KBNcFhqSDxNqoA2PYLSfw38kCY4vArR1PJ4Fhp1zrWgR0bCPwlbYoZa+VotSkuI/XLvUGfxm6GlyWH/y2AJK/VdmyrhJSLCGLrANjUY9G9z8WMJK7FxzrwFhuYKoAoy/HOjCaXkl8IczlIx9PFhipBsA4JtfPLxV782Z3X9AvV9A+uYQOaQ9nAooUJULR/eXyWLhB1aKCNOAQMK1tDB7I4+mB3EHZsMskA4zE6o5CFJs72Uc+qsehkE2ZpoSyH2meL19uepxdqtyUXu74MYGRGqTAsQ6M5QamDozl+ql44aQXTLmcs546WWCEYuwThTik6ElsL/CXy9cDthoAEKEYy+6ZjVXCbb3P37ZEK/My3WLvbdKWKMfzMuOCktySL71JdWA0PZE+fmxgpEQHHOvAmB4E35U6MPp6JX3tLAMjVFuvWOgBAhMr3NxtBYe9pSjtd3uHtVVub7hNabLFKNuTUG8U8PHrUJHD57sOX+9rv6jwc4vBS/nQTws02UN8vaaYO3wo46ROMWZ0TMZlH6WK8sWXDsGxDoy+7klfqwNjuk98V44EjAm5my/f7GsnSzF2SKY4ou1xb4mF/tPw1eDPl8e0CVq3otVI3qhtLnzJt8R813iX7U9xJR0Sq/6d5JA/i73+q8LQ/XNuKjin4LHr2jq3KNWBsaiH3PtVgJE3w1H+VIGxitzE7Ub/rzow+vslefVIwJjMpNLvkwXGNtkiXmmP5IsoXL4buhLcU8T2KtHai6pvtj/luTbtBAh7vis30TA0mBR3O3IXnRb7nZXqwJjVM+nrPlDkqSyK0eRA9P4jpujF3zqIRFZDk42oA2PUI8VAley56Lft52oTpLi8nPwq21LZvIrL9bfTXKW92Cx2Sas8IEXLXe2t8l+v3Aj+KKpxpKMnuChW+GMmNlX7L8PXFWS2NSxmbW9P4ejkVy+rhqTssQ6M5UfCzmP3nSJg5Gk/f+Dm4/kVTco6MHq6xnOprpWmUyyQeboovFT8RPxN+/RJACM5Nwsc++XvfkMyxnt9w2Knr4emOvFSP9Y5rRkWG98p5Q9BjdnFb//9G21jYIPKUvZZBMYsgCrbl0dVvmSVWwYYqdsRwDGalHVgLDe0dWCknyyQZfUaRCOxLMslm99JAWNU7jlRiZeCP2gri6/l9z7c0VmqOkRb2sVWUWzxjrYNeKvoSbSE/bWbay6ibDnQKvbZ1jzKOqnEQVlzS1Trf9m9Kkr2vDwNp4MFabJJdWCM+qzM/8cGRg1URXCMhvasAWOx/4K/uz9PGWNy+bp9Q6A1a5EX3csHqPz8yCFrIke5Z/+fX272e+aOW+654ILg51pnd/DnkbHg6/7LhyyueZ5jEsy4tintMraLRFbCPRSQlK2/dpzUviwtLcGAdpwc0B7R/W1BCJC8k5eudvYG50fPhwGRMfn5WeB4HGBM2jBSNvmVTeX72c3T7d+ypdnnfjeKsdaMCuAYvXHWgLHCHLCjorOzAYzuZKQB5Sey09ygTVROq+RtPdLGdmujJTw6trTIV7Xwt+TeuC3qCGXBaQHGo46rabW7cKN+HNLGUiPSIN/q7g+3yzXPxo+mx+mLHVGLq3uwwNqnWX8A2ZJAcvvgTRiarPn8hXC/IPYOGrrYKQ+Znoh11i5/DecbwiaY/OJldKseeOAs726JkpWRuTZRe6EI8lmh6uLvJs/rwBj1SGlWOjYgJcExeuOsAeNJxmNMTrq8378NKx0bxVpljgqMAAWmK9ekob3V0x/cF0vZrV3oJrXH8RNFMJ/WNp5ThFETGMRTfnnp+sXf5dwFqOTdnN9HZQVqWbrlngsu6UPQK1nfLdkvAkaX9HEoSosCwl8Vb/PF6oLC0GmvZoWaW1NQ433trwKbTWiyC2EUngtBq1hqAJK+vaso8De7tD1vV1/4Acoqh+1R+2RjicvhHcUBbVIk+FntGJi3Z1AyrzowRj1yFGDkzRLgWAfG5KTL+30WgRHZ1mhbpwLwStalKOX/beyOWMFL4aZeyMCa5huDbcnS4uD4uwFjXueXuJcERl6BWh6TDeMdGXpD4QFMeQnWekJg9cPMq+CnhengiTxdnm1tKnDIBwH+uSD+tvGZHhO1OC0AXRWAAp5sfzoodjsvdeqdqwLHhZ2NYE9a62X5YfvCnfnyqANj1CtHBUbeLgDHzwcYUQbAKh0nnTVgvKYIMbjFXRa1dL2rV+A4GHzZPySqpr9m06ftO8VavxFbzQJ9qUhCsNWfEjAy3h1NjaGs8UYPPtOdQZP2cfYl9gXflYvfrCjpRzLafrg0GzxiV0gB49va1HnjET0AVJMHe9ojejncza9FlOolmezwCiDZLNfCaKW5pbYLtC/DjksGOasymkTJl0l1YIx66TjASA454Pj5AKOZcG+PAY6nFRhbtOz2wmVoWhkdey6cD65LBvYv8hW+Jzb6uigU9tTuk+LgoigWUq/Ovx28Ik3s23Brh86GpWBOcSizk2+Ju0+7lJt772P+cst169kmEELWCKsLKys9s7cq2/pQvFxbDCO3/2NW+4azjUUMGH0vxYFqXFTjW8XuxAAcZc3e24Pgi96h4IpMh3w+2k2SSxLggo8Xckizh7SvHHMtXp65Vle+mJ5IH339ZZ7KAMfPDxiZeHypj5JOKzDSljgwdkkI2y6WsVPRx/tbO4KvB2TLN3JdADgaLsC2JjyKbWrU8yxMotAQaOGG9rdplPxrWdSTYRft0y7g2Ov2zAUoe92cVVnE5p0yR7fcdD1howdFoV3p6BZF1xaa4PjyRQEzLurv4cJsGLX9lYBxJ4fZ8C08KMgW9WOHxBWNUth0t7RLztntK05xIiULJfKPALJT4Mg+0nnJV16VPs3nCOIlu/Vw+zf+XLnz31srnVVLDzhGDf9clC+mY1okNIdy+lJ/j2t2ZeZe3vE0A2O83gDjHVEoV7u6QkrlisDuprSytxQlZlBtTgJj/N0BAcd3kkW+kf0eMraHon4ACpvcxWKv27MyC6i8naPNt+jMLddfzyaBFKDY3doWIGPFPtGXdiV3xTj7mWSMk9vrwWZOcAgfUJk8VyQ7fCkWGa+bLyTKeBdG4kmz8s2iHFEO9Uj0cVHz87yX+Y5y9ZVXB0bT4+mjr7+STyXA8VxwVFAk4/SHzU4y36ZQpjLuBDZX08eswT6qVjpeQoe0lURb+bJ/MJyCj0oA5FkBRtp5WeziPbXtK1GJXw+OCBQHtejawwAIDZKB5SWCLdwR+4dx88bBbvBCe2lbmx47xll5HHd8s/Ituu6Wm13PRokYLjYriK2AyMfemnIOJHvFXGdcypi53b3I3MsjiilaeNvKZ1pb8HZLfIGGO+ujAPsNVQtAYkDekAHavvKy1oppS/xYpxjjvWHPY+D4aQIjk6SIHaE7OmSse7d/ODTBGCIai/aLRgi+srcdRmteiQUj5fnTDoxQit2iNi5pAUZmJH3B/YHRUCNN+K0RaWez4YIW2tQg8MDukf1uYAUtBVOcgwtQNs+PfeaWm1/P8xKptAh8irTUb96/DTZkbzi7o33IM/YQ9wFVsq17AtRZUd5Du9uyAjgIPmAxnpMITAF168NGX3l1YMzuTF9/+Z6mD2vg+GkCI41mQp07l08Z8Vy3fGq/ldvYFSkp1vd2gyVRCE8UofmH6dfBY22deiA7v63agjjtwBi2R8B4Qxro74avBH/QH0J/hPs9Yh1RuOTDBTnYtCfbvVXtn72kPtgQSxixgcU5uABl8/OfFefnfy991S23OF8CTiBfLUpYM7CD5EJti4vk82UXnnlvSwqZA/VtUWrWh4kPFH4t8eQrrw6M8R5yz3395T4R/TJ9KHD8dIGRpr6T+cW+Ix/zdYeCDqCk4K9me0a0Zmz93uur/kEyIdga9pKel8byQo2V2hVDZDrSn6u96i5Ye91/5i4CninL+vSLuutvbZVyoSukhP/1ys3gL6NjoU0dbFrZhC3eG4HA5pu9YFpU9EsZO7+WImFV1M7bAkqHMo7SXuinD+fyqaii+rvllm9vmb4J6+dho6lT2YXn1l/1K1HFczImT3aLr7yyc5E6lJ1PyQq6/eu2psyv06p8MXWP92HDpy5jxC6NLVDxf60Sjw/B/PWeXlFJt4Ohzs7gpbwgJiRrmxRQTMjObUJ7gMQ70nSuz8Wr2oRKr5YyExn3v5vYxIldHqvZLN5U5GpYaExyyix+0waAETe4FysLCuW/EExKQ4sB8+zmRigr28hgKc37x22vyafq0S033Y9Z+cmfJfyIZt031xnvC6IwMfTGntEkH1CZe1lH8sI6okmeSUXpjajVuJmZrzzfXMzKt8x8it51+9Dt36zcs6+fJWCkFcUjk9HWs6J82RIbOCHf1OHORRk69wWXZBJRNnUTY2+0PbgjRcarlWXZtc0GD+dngsa5SVFP74MZsd9JRVPyd7UJ5U5G6ll2Io/I3Y8YhH+QXeJXQyMKtYV5ziWxY8UihXh/0C58el+tLgZ/mxoP/mPyRTCuj8K6qO8dsYA7AsY8Y/mjtveDml6BsI1XOTx3y033Y+qF2gX6ly1z96QkoV2w2FmpQXK/DgHaFYklXmrsST6gynrfXG+RjPOSzKaIG8nWrlCGeWlPH3gsBQh74SuvDozZvefrL9/TyT5kXhwJHM8KMNIJy6Lwflboeb7zyBKhqjCNQLmAHCfZKfGOixbKudAWraE3kvvgzcCEHhLLPSubvwXF28MlbF72a0nbP3fBxnP2nacXSB4whv7ANYULhstXZSv3pewW7/ZdDu70DZTaES9ei02JEdCcLkiLOi1zlRcCx59k6PxIhs7PJG9MslcnSSHntTNex6xzt5/T/Zj1nimXD8KO5H9bGkM0w8wVXy7I/pDbjslgHN9pxjxu0JRVTvw6861L4pvrUvphhI8Pe94cBLC3NDb7Am8o3GTKezf5rGlv8nr6t9t6t3/TTxddOWsUo+mnyuB4loCRQZuUYmVP1M/Uxkowq0X/rZQT12XfN9x5Kdw9rrEkZYUd4KhY1i597e8pdD6BB54vLcggeCYMzvCW7TVjYe3jE8oX5sudUO5k5J4ZIPc5+2tQ1AsKl/vSsN+XaQ4eLr1auHhSdEm5VCUBDq9FHf48PylPGAVSWFUgBcxVJI5YCNuUrt9JUchF7SxqR7yf/ZDmzyFe7oGosk19ONcU2AGtPDsF+shYPor08z3ZJu7rndkV+ToLvEzK2krVXAfIKLdDc4kgFwShGJKMuyGDckS8ATCu7u/IbfEgpHBNWRzrwBjvDff8OBSjyakSOJ41YCTs2JJYkiXZLE6Lgnzz7r1kN++lcd2TCcV+sNt5ILCT9raxJSgCSYIz4M3AH+mu9hTBe6RVE513icayL/ncgsq7WJvssGuhL7Lpbe8xDTzxhWteMW6AHK+2tQV35LWC6RGxB/9FfwB32cRypm7vtfiQZ81KnvhQvsLfz7ySa9xc8FTgOHEI9On6JctxASp5N/nb5pdsZwxnki95f7vl2ny9D8cuJsvdVx9A/S/sbmg8G4PGFnEVHva6FYpP4IiSakPzZ0HKqZeaVyZlUZFcN8AIxT0sGfCtbrZpHVSMR8mDM9wVDzSXViXiWNBHijn7zuJwHRhNp3uOJwGMZFsaHM8aMIZRlGNsyIbYkvGa4/68FAsvVxZl66eAC/IQIc4eto1V5JF03rDYq2/ejoaeDkRzuaetNWcFxAsyeVmSZntaC46vf3ZKL2hY+Texept3WwS4d2HF5NlyTbJTqMYbooBv4OGisqskqJEFiQQQC0yrviia0EY/DylG/f4dgJH6e/Aos1n6VsVSuh9jN53TJDByE6Udlggz6g+o7p7aB9B5UT8IPYajAB40+/KWwTe6RZT2U413XGGSfM8A47AMum8qmO63CqT7lUQghDDrEVudJefckx/7rDxxsBJYxkpAH3dSnWJM9rD9fVLASI6lwPGsASMUo08+My3Z2YYW/nOB2CVpowG3rwZGItc4gWdTw0BosmO7Ov8M8x72Mh4SBfmNFCFzWlxPFKXlp9mJ0EbyYOV9MCGA9Kf0gmbhZqlPBsQuE536X6/eEsU4FIxqkfVKdkr4fTSoVdK8APGXxengl/np4MH8VOjxsqZ+wYaPwLZRStcvWYZLuSXvJn/b/HwAlXy6/G+bb9E7WeXCss5J1jolS4TLF7tS7KvJF3Z7qF0yZ4372w/SIOvDd0Eufm8+TAXPJHv2JQOM3Lsl6v47eSj9SaKdL3uGwmg7ebVny4WJ0F1xQZ45m8G+yqwDo6+Xo2snCYzkWAiOZxEYk91HQCiosX2x1PtvZaYiSiEQUK7XKCSE6+v6TYj7EYEOCg7Mfho18fMSE7tJC6anlb+2oP/iRVEXjaEL2kW5IxKPr29tVezXVrAqbe+2wCdK7pKIL1oTKKJDgNdXU7ggRxyVwuVPI1dDmSmBIADGsgluDI3nllgzWOjHi/Nin6dD4/YHYqOfpwDcrZ+vnE8FGGnbpiJ3TyuSN8oYQrfRV8gesxJzA+odX+vzougxIO+TudOG2G0S8wka75zIWyQszKNB3DclirmvD9wtySyJ5VjUyxtS+EwKHF+Ksp8T5fimhH1pWAH9F59T5pr/6Nai2rimczyrypd0SwrA8VMARhrtY1O5vipwRAGxInewRwqogLLlmhbHv1yRHE/bcrJdZpWECxrvE1CAmIj3RZWOi0p9LKUNm7X/KuoEpiiesibxgBbgPZnmAIRjYp+v63hV7D9BIjrFilVJGMLDOv9jThStwJDFhsIF90g0rm5y6+fei35VW0A2v6y2+soovmbzLXq2qNxVyQ9fCIQwe/pSAAYlyYctL8EO35PMt6/9YsgeYwPKx3VdHxrYdNjsJllDdLdclNijQw4F2iqhtVNKs4tipbUNgj58RQlwnCAau8brtRRG8SC6ee8Wtde+6/ZhtXG1uZizTwkYaVMmafSpAKMZON9xQ5TchgTqCNVxCeyWHdsdySFJGE7f6j2vaDWiBOV+aFhXdzq5uXKP4AX8XRVIjvUo1NeqwFILgSg2mGUsi3rbFVjxF5/ERuFCjgOSTd3R+4QSI1DEfWnHCZefFznHrUn0C3knVNCSWDK06v8x8SL4WYqX12KrX6se6ZTXuujpagvI5hdva7rcj3elTLlrosjWBD6tMu5/LasGtoXAnxkZY1YgCvywWyUDRtt8Sx/Cdflcz8mCAQp0U2MN290ic7HLemZMHzZCxOVRo6YHoDp5d0lzkm0qphgr1Y2UF0nTvF+mvdGzdmz4XW1cTWn2+KkBIy3zguPnAIxmWON+0qsyz5gQBfB3yQyRWRL8tF9ffVwKw6+/ALNNVGGZhEKIHeewpITJapXx8F3thYxcEmUNVNu0omtPH0ior2d6xI4PiDUflRwUBRGhxNi2APYN+WIVYITyWdxCy7kRyqxei3p9Lk36Y5kbvdLitQqXeEvcxRK/Y86rLSCbX9kFK1w40VRUblJ+t7K3FzxVH/219YVY7b3gvsaL4L95Cc8jvKnYgrVZ3i5Ed8JmEpCDncYaAgDNUrok84bifCZvrJ8WJmU9MBHM6MNWNhW11+Zjx4Zr1cbV5mLOPkVgpG0pcPxcgdEM9LKoyb/LCwZbv2FNatjaW/KQ+Vos8vmB8wEaxzJBCsL8tHC6xH59M3RFQDcs9n1LLO2SFuBc6GkTzAeiEtZDs5FhURaEFPuvV28HXysABjIpZFtQrkWyT1N3jlCn82Lfn4RyxRmx0pMCxblgSewemzPthbED429w7i6W5F1+V1tANr/yC9ZX6tGvFZWbBEZK2tXHkViV7NeCRh8ZZBE4mhrCWXRK001UcUykSHi+wHVkxYc078aP2Mr+LGD8ny8eBY8VN3IuNMCPP+E/L2qvfcuODdeqjavNxZx9qsBI+xxw/D2AsaKi1YxJeDzO9qlxitFkGmoWBS7YKvL3VKwNFMS2zt8JNNFOriqEGbaORLYJoznnCO6ZhthANkoHjWYbpQ2h0dpEJeKhgznK8GZHyLIju0KG9UcpXe73j5RiwUy9AUTY9k2xdmG8QSkHAOBHiib0T2mkH8lPOju5i8X3XLUFZPMrv2DFMqoNUFsnkYrK9QEj5a5pfLel+MAo/GJzY0jFM26YaQF6eR/FcKw1mfOeyWvbgeYXxt7PBYg/a9x+kdXDr+IuyqSi9to87Nhwrdq42lzM2acMjLTxEBzrwOhOHDMBZmTDhnnZhiiv1/LRHpVMkija7AqHGc8VbX5UJWFDR6BZBP7sW4LLGpQhNpa4po0qtFgZ2VS8TCIIvV4XKyalz2OF8GcPZTaZx8NlTgsuO/nbHH++2gKy+ZVfsFFp8wL3A8VL/ICT9TFSUblZwGiKJPDskhQ0z/SBaXr9NDTA/uPw1eAbcQ69FRV0Js8yRz5qf5sZD36Ul9IDfdAWxeKXSUXttXm4/VptXG0u5uxTB0ba2ZAGRS7bjswborId7JuQp41ipNW+NCeqcU2a3WmBDRGw2Q3uhljtpf6tkNJpb1QYe1GEZROUJJQIpjhotJExsYF7i9h12+vlcoNixF98ht3wFuaCf594HsqppgXoRM4xZkH+3IpLKzu+Uf42v/IL1tZsFLmdzKLOJWNz2UcKz4rK9c3DeKbGTm5HFOS4qLZNyYMX1ZckfKD5iGFXmqWkiedV5RwZ5Qtt3PUfCvTxt9nXwYzEL2uH9qbZORW1175px4Zr1cbV5mLOPgdgpK2HlKNpeB0YbU+YMz4Q70TV7Oy+DVlrWCDcDwEmFCwoTJBNIXzvkpyqjNIG9quxwFzElJ88Uj4BIigbO7gJeVA8l6wMhctrXd/U4k4uHDdQhLtYkvnzu9oCsvkly03m3aOPQ5dY1TZ9EJCntl3QucQMKKHYT4Ud946SisotC4ym7E19XPbFLSA37JIMkI8aHjQjMvhHHtyrsa4iCzb5ckQ8A7UfRplXGVOyPf1Jxvi/ipUmFsByRjDdeB5F7bXP2rHhWrVxtbmYs88GGNVtiZloO/JzpxjNZOBoJhSmFLBc2xvax1mG3c+lVfz7zOvQ/vArBX/4UjLDm2KZr4q6qBI/MV5WmXPknr8sTGlBTYfaVWwp0X6HYcVETfoWjh1PO8ZZZZn2Zt13r9v8fOW6z0rGqo/HgOSrvbL/62tvD8OqYRWADSeiiiZR0FVTUblVgdGUj080plc/yTYUW1hiW8Je35MWO5A1AVroo6RN7cODudArfdR+kXwRhdmERCFTu5uiGI2jQHbORe21b9qx4Vq1cbW5mLPPCRhpcwwcbUfahWS6xR7LdrBvQp4VVtq2Nj2hjI1iuKeMNInNotwIDLCvrz1hpTi+FZVJFPEWvGWksT4JoITa2JVcbkVlIrT/UQbdP81OacEu1ozLo1rnLxw7xvE2xs/Ljm/0js3PlEsg2IvSNDWFmtrzIQtKH7RKAdUnI/thiRTwBUcUMdDWGdqD3pKYYkjG7a0Z0XDi9YPttqUWe4L45mE8P8NKx6/Fz9cFVutirZclA9xQ/xOwg60N2PtlTWDeJVkx9UGVRFmY7Oifk/SKxCdRkA9Cwy3KhGtK4IjlAnanaMinNK51O0an28IfReNj3kiOs5mP5n7ZoymP/GrgaEezDoy2G8sAxb5m/oy02h9ExWG/iOEu0cKJwk1gCNwRqypYbA3sGdroBzLL+X76VfCrqI1xUR2TG2KrpaE2KX9C2DE2zyePZdpr37H5xctuUpKvAAASUklEQVQFGIcEGGzsxR+eJAOisNjkC408mn4ABdkd7DSKKKhIjK7LJFjZ8/rK4k0eL9f3bnLBJJ8xCyF53fd7RR++ZoHkhw+zCgaxETxYmg7BHoN/fK2JzoRhOHLTKE6oIh+FW2xg1K14kRo/Iv8YVnpNFOmK5s2sZNlLOq8DY7rXy45PcpyL5kW6pOiKKc/kJ3C0k7wOjLbbqgDFiqjFFXkyPJe8b1Z/bMsAdXCg6+xsNyCfa1wLbU/bcsqe7UsxNCnvDTb8+nlpVnaLu8FqTGifPyGKS67S3viciZfLjofXBIAj8goBCDGCH5WMDl9iggz3yr8Ykxg8R0LyCpKKlCS1oqve//H6wY6waHsPM8F9mZhF4LuXdY38lqH6JFY5r3FolzdVq+SQBDDp0wegR/v2YADervB3TTUW6R3m/wJItPDYTSKznBXrvC5f7gO1geDI500fZBVcux7v5/xH3bGuNq7pnD83Vjo+bw7Z6jow2olRbULZyQgV+VKUwPmVc2HYfXbqQ1kyKnlaGEVH1FOnFhBuaVXt4RoEKIMCnXsKdQUlOqNQVoRGWxA1Mh8DSdsKc2brZ64kj1Xb24syRRRSS2NDGBX9oihA/MnR6KKsiChElFMKxiGQpO3DYpvDILLxwiuAonmNMGtropYBnawUn+DJZ44KjOSzY7pS47xDn/Mn0BvRX4/GgWC4iA/YRhWLJOw2sSjAHRDKcZaxkgY8Xr9iCWMxhWzbaCoYXak2rjYXc/Y5AyN9EIJjHRjNdEjLGO0d35k7Gfm6Q9lMCrRWxSo9kSypS6zlbQnvv5HXyxe9Q2EACUKccb2KLBLw+dPwtdClkfh+hBt7qD+Mhecld/Qnt36+Z6otoHNBm6iiAYEgVGCf5IZ9MkliO1t8v3GxxCOoQ9RTs4CzQVQzWl5Y6OYjaqFNnSPPnygkHOHF9jIUF3HgMe+a43GAMY9yWxdVjwVBo8Yc+ard11sAeR5wZAMvAao04Hn1M/WMH/PKjT8Xp+a5Xm1c3Zz49bkDI33QUAdGuiFK1SaUCzxmEsMq7Wix4GETJgHlksLvo1DBno14kkR1JkoLUYAAvTJUJM8gn+OPLR7Cjd5FpZyToeoH5T0hVt4E1t3WItzJJqxqrc1eQCgV2M0QcMP1LVIqnQ86JFND04xSBTlib5v8hkXNEuaLwK1cS1GHh6VVO4kCMETKFzaXWpA2/skKXj8zweTmSkiZJ3PMA56PBYzUYUv9v0WQsgQZmCwzr37JtvDbzCnfPfeaOxerzWM3J37VgTHqk0O2OtlFZTvYN+A1kUsyy1K/P4ZLYJmCy7Y3ysudjEWTeE5s4COZa7CB1cvlpdAInBBktxRYAmC5rFiNVZQ2ANCNnr6gsUEG5R2dYUALArUik5wWVTUtIPFH3YlqX9TWLlF7vbV4lJFSRVRiqFBpD6PL9Ihq7ESpIrBEzsbvXgH9SQEjtWQ3QPqLDwmKixfri6KWtV+PAJKtcW1QXjMi7phEV6P/kyAVv5d1buZ10dhmvZ8s0+SX9Xzyevly3XYXjW2ynOTvOjDaHvGCY9kO9g14HRht55ozjLJ/lWYZz5W2hgUJ8FvFaveHvtD7CoUPI3ZVLonuNDdv+48YnV+STI+9SDBGf72xHO4W+GBuWp7c50Wlvg0WPbLIorFlV8MR5Y0nUJ/c5fp1xAaRCEGwz8QibGsQtSu5o0lQl9VikZs3/Ue2B4BSxPNnRgbSGLo/lfnSA2npH8oagP6MJ988NPeTIGWu5x1NfuUBys0tWabJz30q+1f5ct0ZUzS22SVGd+rA6PaQneG162U72DfgdWB0OzceoxFXPqghhPirYq9J5yW4hzKa29gIRru65X3RHSpdiPxdJoVBLQRmRO9BOUJqkUlJtyi5QbG/0wq/Nitj9WmVQWAHM7aYWXeK6msTW47GFddFlAkX9S6+39gh4ueN/LBbckXcHQniOyjbzTIigLAiBf/B9bMHC4oKtgPgSKg19hmHYlxUvZf0MeGIn/ikjKTHZREQB8YoHK32c8koKwlSGY85l828Lg9QzusSQbi/TX7u1exf5ct1CzJjm51z/p06MKb7xwHHsh3sG/A6MKY71+fbTB+/lXCe3RC3ZLf4cnUxZE3Zhe6b4dHgf9y4G3RqP5qy8f9MqVCR9xTNhz1Q7mnv6gkFoiA24fezE8GBglEs1gCZ59sEiEMoU8QKA8TICqEKryioRr8MswnVBeDC6qMlb0U7LROck/QphmJeVB8sSgwwt2M2+ooCza7KIJpo2jsygcGEaVcflG0BaJKV3s+htZMgZfop72jmdXmAcnNLlmnyc5/K/lW+3DowZvdi9h0zPmXH5RAcPydgLNtW283uZCw/iW0OnJlyUdUsa9HzFwggSL2i3qCc+sXKomxhHxsMniOtbxSJ3K1F+Nrhf1CR3RdaQ7DD8JyIP93KCy3qW4ELEaW3VF6zqFW0ytgfAsi48OEvfLM7MlqHXa8i/zysgOfEKFXeyZQFz5IP+ijAEO/IVpBAvDMAo1hntmyYkMyU3Q+fKPIR/VLUx3kT3CwCT5UyL5n8isrNyiBZpskv6/nk9fLlurPAzKlkfmV/1ynG7J4KwbFsB/sG/LRQjL66+Zpdtq32XXcylp/ENgfObLlufuYpAOGZTHL+vxePg1dyKxsWYMHOsjf2qOSRAFlZahJww8Tmjvy8eee6lDewqMR7RD5IRCBsJjubm8VKR54sgCI2iY0Cz5NKsMpr8iNek7Z+VXESV2CRdeScbQk2VJ91ueWtKazain6zPWodGPN63507dk7lvZN973MCxrL4EO+thrId7Mv8qMB4HI00lU8GqvXVLd5Ic162reb5pO3YxwJGU95LmeNM7j4Lvpff9A2xuXekBPlSRt8YESPr65I8sCxAhvuXiHoc7OgI/vxuLIwbifsaxtOYAxE9CG03CWc8QLNs3qa+eUeoYPZUCZUqolpRqoxLhAB1OKt2wiqz8deBXOtEVIYy0Tf4H7vrP1VE3lgnqbfUy54LJr+icj2vhpeSZZr8sp5PXi9frtsx1eeyW/JpBkZfH5bvJ7edjI8vP/cp/69Dttp/O7rqy7wOjHk9Zu/ZSexObvuEPYPdxlZxQlTU3rtFAYbAQzZ+bOa+JjncgLxMuiVbxBOlQwCXB2YYmBMEolHA1yIMJGo51CEs7kmZ3GCYzeb2u+9Qpkg+WDvflhcIkYMIyMEfMREx3J4Q+/xM2uaskFxFC8A3D03vJUHKXM87mvyKys3KI1mmyS/r+eT18uW6c8fOqWSO5X7/HsCY7Kusmvr6sHw/ubkeBxjJKRccfRXlpTow0gvFyU5id3IXvxkEC1JYXMBsRZHCZ0V5PZTx86g2hSe8102Z77ClAkqTKgnqU2EbqryS+yxgOC8fcsBvXm59yBAnZVIExbghdhljeBQrUJG7b96GUW2yQnIVLYCsuUgFyy68eGNMfkXlxt+JnyfLNPnFn8k7L1+uO3fsnMrLPfveSQLjbo5CLF6DZF/F78XPfX1Yvp/iOUVzwpef+1T2L8rNBMesjOvAmN2h8Tt2EruTO/5M1nk4IUSVsUsgf/2y+RsQUF6T8mJZcQV3FLigSSzxFz1D4a6EeN9AKcIaF5VWdD9ZJ+MfjCoFShEW/J0oWkAbQCQu4YzAG6UK20hgj/hMNp2E+iqbihZAXqvKLrx4XUx+ReXG34mfJ8s0+cWfyTsvX647WnZO5eXuv3dUUCQ3X7mfOjDSbi84Zg12HRjpsuJkJ5M7uYvf9LuMYcx9gLxQsrkdUWB4jMwIjH7uno4iU9ei4LDHyUnZIZq6Ek1mXUqVUHEiVpmyCbuFQsUcUawQZ3JZCpep7e06MJrO8xzLAWN63tg55cm04FIdGAs6KHY7Pj4pcKwDY9RT8U6K9V3hqZ3E6Qle9HJemTtCxglpeecFRONSbjwQmz0sQ+0v+oaCbxXU4q6CWgCMJ7kJFIFZiYKDlwoU4vT6mhQqC8G4KMQl1YUtTN9CUYaKlSjAwr7Oy6a89pJH1lzkXpJ641pRMvkVlZuVT7JMk1/W8/Hr5ctMzxs7p+I5ljuvA2O5fuKp5Bg54Jg12HWKsVwH20mcnuBFOSQHxn3+XKTN1cVtsasrsKx41oha29f5e0JiCcgIbEHcxB5RkK3ymCmzxwksOXEn8d7BMHtPMkJsI7eUPwA4H4ZG2xQLjTvfevBSEYF+FTjjqWLbS22rtTm/vXVgNOPv9rG5Wu5YB8Zy/cRTvvl4CI51YIw60tdJZbrYTuJqIJE1MLbM7PwIdvtCwSZge6ONtlaCu/1Dsm8cCqPk4AJYlLBFXJJ7XqhUCU1vRCmKZZ/Xta39g3AjMUAXF79wawCB5lkExqOOK/1XpxiD4HOQMSbXSgiOdWCMuuWoC+j3AMaoxh+COVGM/M3KgBpD6nWx3TsypSER6qtD9ozNcgG8IPIfLxUSIciIMYi5zZyowWmB4TRbLigU2MuV5eCp7BFf6vqq3vcl217uZoO3792iPs6ai+SVBClf/slr5FdUZvKd+O9kmXn1i7/Hefly033o9nEy5/zfdYoxv3/id/PGSGOfHhherrPS8S7MPreT2N+P2W8WLZ78/Gy5UQnYDrYJ0Nj2meAN02J98bKJNrNqD5rlH41dJHaUW9I0r0jBsy7PlXBPk9pxBTZ6a0uxITdOHBjzJqHpo6y5yP0kSJl38o51YMzrnfS95Jziic+RYox65nCDLbej6sDo9kfWLzuZ8oHM934+WOTnZ8t1c14mwo1Mfl4JGJvkZdMjg/HrRPvp7AldBZtEQcIiswEYUW5w7dvXTnpvRSGiSGFvlj39rZ0wxZjf1qgNdWCM+iFrbN2R9v+qU4z+fvFdzZ+T0fo7lDmaDOrAaHoi/2gncT6Q+XIpMzC+97hmy00/sSNg4y9Mcrd5LTZ7Q0EeVnXsIKqOwBFvlglpnX+SFrpKcsst3+b8tkY1qANj1A9uH1cZHXEh2gr3qMlX7udMMZp+dMCxDoymW/KPdjJVn5D5YJGfny03v3727rlo208ZbYdyR2SNAs8VySirJLfc/DrG881va/RkHRijfnD7ON6Lxed1YCzuI/NE/px05/YhONaB0XRf/tFOYrcj89+K7lYZmGR+ttzknazfUf2WxCKzjetRk1tu+TbntzWqTR0Yo35w+7jaSNWBsXx/5c/J9NwOwbEOjOU62E7idEfm5ZA/KLyZn58tN6+U+L0ov+Jy4++kz91y8+sYf7tMuXVgjHrM7eN4Lxaf14GxuI/ME/lz0j+3z9eB0XRf/tFOYn9HZr2dPyi8lZ+fLTerhOT1KL/icpPvub/dcvPrGH+zTLl1YIx6zO3jeC8Wn9eBsbiPzBP5czJ7bh+y1SajMsd6PMYyvVRkqkMe2QPD3eqLpw6M9FuVlDQRygPuZL75iy7+dHqcq4+tza8OjLYv8s6Kxyc9LiY/xqdy/Ko6MJruyz8eZ2DIufriqQNj/oik79aB8dO1YzzO+jNrrxI41oExvcB8V44zMORnBseXt/9aHRj9/ZJ9tQ6MdWD0zY742ivNVteB0deV6Wt1YEz3SR6rmgSp9NvpK+RX3M/p98yVZJl59TPvmGP5ctMsW3zhmfzKHs8aK12+n9I9wPhUGZN4DsXlpsfFvJ8cn1KUYx0YTfflH48zMOScHJz80rhbpxiL+8h9og6MH59iLF4H7pjEf50WYKROhZRjHRjjQ5d9Xjwhsr9Y5FoNGG1exeVm1zldrs03/60yyqb8r38SpIrK436dYizTS9EzWfPpY3u+HGc+niZgpBdzKcc6MJabjMUTIh90siayv3SbV3G5/hzMVbdcm6+5n3UsU24eW1QHxqyeda8flZV2x9XmWQdG2xfmLKuvuJ9JOdaB0XRf/jEfKIoBJ29w0iXb/PLLTb+ZvOKWa/NNPpf8XabcOjBW5QSSvXx0X2l3XG2+dWC0fWHOsvrK3PeC4+cJjOUBwnRePlAU51c0OKac6Gjzyy/Xfcv3yy3X5ut7Nn6tTLl1YKwDY3zOFJ2fNlY6Xt8UONaBMd492ef5QFEMOC5AZZcT3bH55ZdblE9y4dp8i94sU+5pAkYf655Xv2T7y7Q3OTb8rjauyVLrFGO6R/xX8scnf16XHSMHHM8GMKYbnt9R/s7latRJ6fyy34ju5JdXnF/ZwYlKs/nll1tUa9Ne85zN11zJOpYpNw94fECVVZa5Tn5lyjXPx4++8vLqF3+X8/Llun1YbVyTpdaBMd0j/iv54+OOSTKHKmP0fwH7NAMqzdyZHQAAAABJRU5ErkJggg==;fontColor=#000000;fontStyle=1" parent="1" vertex="1">
          <mxGeometry x="571" y="309" width="72.78" height="71" as="geometry" />
        </mxCell>
        <mxCell id="BQA1cjj0MLRr8krq4X8K-14" value="New&lt;br&gt;Document&lt;br&gt;Upload" style="image;aspect=fixed;perimeter=ellipsePerimeter;html=1;align=center;shadow=0;dashed=0;spacingTop=3;image=img/lib/active_directory/documents.svg;fontStyle=1;labelBackgroundColor=none;fontColor=#000000;" parent="1" vertex="1">
          <mxGeometry x="70" y="231" width="33" height="50" as="geometry" />
        </mxCell>
        <mxCell id="BQA1cjj0MLRr8krq4X8K-15" style="edgeStyle=orthogonalEdgeStyle;rounded=0;orthogonalLoop=1;jettySize=auto;html=1;entryX=0;entryY=0.5;entryDx=0;entryDy=0;entryPerimeter=0;strokeColor=#000000;" parent="1" source="BQA1cjj0MLRr8krq4X8K-14" target="BQA1cjj0MLRr8krq4X8K-4" edge="1">
          <mxGeometry relative="1" as="geometry" />
        </mxCell>
        <mxCell id="BQA1cjj0MLRr8krq4X8K-17" style="edgeStyle=orthogonalEdgeStyle;rounded=0;orthogonalLoop=1;jettySize=auto;html=1;entryX=0;entryY=0.5;entryDx=0;entryDy=0;entryPerimeter=0;strokeColor=#000000;" parent="1" source="BQA1cjj0MLRr8krq4X8K-2" target="BQA1cjj0MLRr8krq4X8K-3" edge="1">
          <mxGeometry relative="1" as="geometry" />
        </mxCell>
        <mxCell id="BQA1cjj0MLRr8krq4X8K-19" style="edgeStyle=orthogonalEdgeStyle;rounded=0;orthogonalLoop=1;jettySize=auto;html=1;entryX=0;entryY=0.5;entryDx=0;entryDy=0;entryPerimeter=0;strokeColor=#000000;" parent="1" source="BQA1cjj0MLRr8krq4X8K-11" target="BQA1cjj0MLRr8krq4X8K-9" edge="1">
          <mxGeometry relative="1" as="geometry" />
        </mxCell>
        <mxCell id="BQA1cjj0MLRr8krq4X8K-27" value="Amazon Textract&lt;br&gt;Extract text from docs" style="sketch=0;points=[[0,0,0],[0.25,0,0],[0.5,0,0],[0.75,0,0],[1,0,0],[0,1,0],[0.25,1,0],[0.5,1,0],[0.75,1,0],[1,1,0],[0,0.25,0],[0,0.5,0],[0,0.75,0],[1,0.25,0],[1,0.5,0],[1,0.75,0]];outlineConnect=0;fontColor=#232F3E;fillColor=#01A88D;strokeColor=#ffffff;dashed=0;verticalLabelPosition=middle;verticalAlign=middle;align=left;html=1;fontSize=12;fontStyle=1;aspect=fixed;shape=mxgraph.aws4.resourceIcon;resIcon=mxgraph.aws4.textract;labelPosition=right;spacingLeft=3;" parent="1" vertex="1">
          <mxGeometry x="571" y="125" width="78" height="78" as="geometry" />
        </mxCell>
        <mxCell id="BQA1cjj0MLRr8krq4X8K-28" style="edgeStyle=orthogonalEdgeStyle;rounded=0;orthogonalLoop=1;jettySize=auto;html=1;entryX=0;entryY=0.5;entryDx=0;entryDy=0;entryPerimeter=0;strokeColor=#000000;" parent="1" source="BQA1cjj0MLRr8krq4X8K-2" target="BQA1cjj0MLRr8krq4X8K-27" edge="1">
          <mxGeometry relative="1" as="geometry" />
        </mxCell>
        <mxCell id="BQA1cjj0MLRr8krq4X8K-8" value="Generative AI&lt;br&gt;Chatbot&lt;br&gt;Users" style="image;aspect=fixed;perimeter=ellipsePerimeter;html=1;align=center;shadow=0;dashed=0;spacingTop=3;image=img/lib/active_directory/users.svg;fontStyle=1;labelBackgroundColor=none;fontColor=#000000;" parent="1" vertex="1">
          <mxGeometry x="71" y="523" width="33" height="50" as="geometry" />
        </mxCell>
        <mxCell id="BQA1cjj0MLRr8krq4X8K-21" style="edgeStyle=orthogonalEdgeStyle;rounded=0;orthogonalLoop=1;jettySize=auto;html=1;entryX=0;entryY=0.5;entryDx=0;entryDy=0;entryPerimeter=0;strokeColor=#000000;" parent="1" source="BQA1cjj0MLRr8krq4X8K-8" target="BQA1cjj0MLRr8krq4X8K-13" edge="1">
          <mxGeometry relative="1" as="geometry" />
        </mxCell>
      </root>
    </mxGraphModel>
  </diagram>
</mxfile>
